<svg width="19" height="21" viewBox="0 0 19 21" fill="none" xmlns="http://www.w3.org/2000/svg">
<path fill-rule="evenodd" clip-rule="evenodd" d="M10.4821 1.82812C12.0134 0.0103478 14.142 0 14.142 0C14.142 0 14.4597 1.71084 12.9361 3.35614C11.3129 5.11527 9.4676 4.82554 9.4676 4.82554C9.4676 4.82554 9.11922 3.44583 10.4821 1.82812Z" fill="white"/>
<path fill-rule="evenodd" clip-rule="evenodd" d="M9.6627 6.02693C10.4513 6.02693 11.9138 5.05078 13.8164 5.05078C17.0935 5.05078 18.3798 7.15139 18.3798 7.15139C18.3798 7.15139 15.8608 8.3138 15.8608 11.1284C15.8608 14.3052 19 15.4021 19 15.4021C19 15.4021 16.8064 20.9692 13.8394 20.9692C12.4765 20.9692 11.4199 20.1414 9.98428 20.1414C8.52186 20.1414 7.07092 21.0002 6.12533 21.0002C3.4187 21.0002 0 15.7194 0 11.4768C0 7.29971 2.89422 5.10942 5.6085 5.10942C7.37336 5.10942 8.7439 6.02693 9.6627 6.02693Z" fill="white"/>
</svg>
