<svg width="353" height="282" viewBox="0 0 353 282" fill="none" xmlns="http://www.w3.org/2000/svg">
<path d="M192.984 144.357C193.691 146.668 194.372 148.695 194.933 150.757C197.409 159.856 200.755 168.628 205.025 177.038C210.528 187.872 214.616 199.223 217.687 210.962C218.092 212.523 218.48 214.11 219.084 215.602C221.534 221.743 216.436 228.773 209.389 228.652C204.844 228.575 201.609 226.056 200.54 221.545C198.909 214.688 197.331 207.813 195.666 200.956C195.416 199.938 194.968 198.912 194.372 198.05C191.112 193.271 187.757 188.553 184.488 183.783C183.901 182.929 183.401 182.653 182.357 182.998C178.804 184.163 178.838 184.111 179.261 187.803C179.77 192.331 180.141 196.876 180.693 201.405C180.848 202.681 181.201 204.01 181.814 205.131C185.126 211.195 188.55 217.198 191.923 223.227C194.795 228.368 193.26 233.465 188.015 236.277C183.246 238.83 177.13 237.019 174.75 232.232C171.17 225.038 167.539 217.862 164.227 210.548C162.683 207.132 161.812 203.415 160.682 199.818C156.352 185.983 152.039 172.148 147.709 158.312C147.597 157.95 147.433 157.605 147.226 157.079C145.027 158.735 142.741 160.132 140.869 161.961C137.721 165.04 134.141 165.558 130.019 164.859C125.188 164.04 120.315 163.462 115.459 162.806C111.112 162.22 107.903 159.391 107.153 155.414C106.42 151.49 108.378 147.514 111.923 145.659C114.226 144.452 116.632 144.564 119.099 144.952C122.29 145.452 125.507 145.849 128.699 146.332C129.648 146.478 130.329 146.297 130.993 145.504C133.969 141.985 137.005 138.509 140.067 135.067C140.671 134.386 140.757 133.799 140.481 132.954C139.179 128.9 137.954 124.82 136.695 120.749C136.039 118.627 135.832 116.393 136.746 114.401C137.816 112.055 137.945 109.631 138.256 107.173C139.317 98.7112 145.337 92.1473 153.652 90.267C161.51 88.4902 169.963 92.0783 174.551 99.0907C175.069 99.8843 175.767 100.609 176.509 101.204C178.407 102.748 179.632 104.706 180.348 107C181.546 110.83 182.737 114.668 183.884 118.515C184.169 119.472 184.643 120.085 185.609 120.482C189.275 121.991 192.923 123.552 196.537 125.191C197.745 125.743 198.607 125.7 199.686 124.829C202.575 122.483 205.542 120.223 208.561 118.023C211.623 115.798 214.961 115.6 218.273 117.351C221.447 119.033 223.009 121.853 223 125.424C222.991 128.158 221.905 130.53 219.74 132.221C214.866 136.016 209.941 139.751 204.999 143.46C202.929 145.012 200.54 145.374 198.012 145.029C196.417 144.831 194.83 144.615 192.984 144.357ZM185.902 124.699C183.116 122.992 178.821 121.689 175.897 121.715C175.466 121.715 174.914 122.069 174.62 122.431C168.565 129.875 160.915 132.307 151.66 129.857C151.28 129.754 150.694 129.719 150.461 129.926C147.675 132.505 144.932 135.136 141.982 137.948C143.586 138.802 144.777 139.432 146.088 140.13C145.173 141.942 144.319 143.632 143.414 145.426C141.637 144.546 139.938 143.701 138.135 142.813C136.41 144.788 134.624 146.677 133.037 148.721C131.977 150.084 130.803 150.386 129.191 150.075C127.293 149.704 125.361 149.54 123.325 149.273C123.86 153.06 123.481 156.51 121.971 159.891C122.351 160.012 122.609 160.141 122.885 160.176C126.137 160.615 129.398 161.012 132.641 161.478C134.461 161.737 136.005 161.262 137.428 160.124C140.343 157.804 143.302 155.535 146.243 153.258C148.477 151.533 149.486 151.861 150.331 154.543C154.532 167.947 158.732 181.359 162.933 194.763C163.114 195.341 163.338 195.91 163.442 196.195C167.737 195.022 171.826 193.909 176.112 192.736C175.828 189.864 175.543 186.699 175.181 183.55C175.017 182.144 175.535 181.299 176.88 180.894C178.993 180.264 181.107 179.643 183.194 178.944C184.565 178.487 185.497 178.815 186.308 180.048C188.033 182.653 189.879 185.189 191.543 187.57C195.614 185.914 199.53 184.327 203.558 182.696C203.05 181.558 202.428 180.178 201.816 178.806C199.703 174.123 197.262 169.551 195.545 164.721C193.035 157.674 191.043 150.438 188.844 143.278C188.248 141.338 189.033 140.32 191.086 140.527C193.57 140.768 196.054 141.096 198.521 141.467C200.333 141.735 201.911 141.338 203.351 140.234C205.723 138.414 208.104 136.611 210.485 134.791C210.821 134.532 211.123 134.23 211.52 133.885C208.501 131.643 206.301 128.909 204.956 125.381C203.222 126.701 201.644 127.865 200.117 129.081C199.211 129.806 198.349 129.935 197.271 129.435C195.416 128.581 193.51 127.822 191.526 126.985C190.75 128.451 190.042 129.806 189.275 131.255C187.429 130.315 185.747 129.452 183.996 128.555C184.652 127.218 185.264 125.993 185.902 124.699ZM141.689 109.562C141.421 118.429 148.667 125.924 157.775 126.209C166.271 126.476 173.663 119.248 173.896 110.459C174.146 101.152 167.306 93.812 158.094 93.4843C149.288 93.1737 141.965 100.341 141.689 109.562ZM201.592 210.194C205.654 209.573 209.234 208.417 212.468 206.356C210.674 199.792 208.872 193.392 205.775 187.44C205.413 186.742 205.163 186.172 204.188 186.354C200.427 187.035 197.055 188.639 193.656 190.589C194.295 191.511 194.812 192.331 195.407 193.099C197.512 195.841 199.203 198.74 199.755 202.259C200.169 204.898 200.954 207.486 201.592 210.194ZM183.41 215.464C181.676 212.368 179.908 209.375 178.303 206.295C177.717 205.165 177.389 203.854 177.173 202.578C176.837 200.577 176.699 198.541 176.475 196.54C172.852 196.609 167.366 198.162 164.693 199.826C165.236 203.889 170.722 217.163 173.094 220.148C176.82 219.302 181.624 217.146 183.41 215.464ZM174.517 223.503C175.595 225.737 176.725 228.005 177.803 230.308C178.959 232.792 181.003 233.81 183.599 233.767C187.61 233.707 190.784 229.843 189.404 226.444C188.292 223.71 186.618 221.209 185.29 218.785C181.633 220.398 178.157 221.916 174.517 223.503ZM202.428 213.791C202.972 216.059 203.533 218.388 204.102 220.708C204.913 224.029 207.431 225.59 210.847 224.9C214.107 224.245 216.626 221.071 215.962 218.103C215.341 215.317 214.375 212.601 213.607 210.004C209.838 211.281 206.206 212.514 202.428 213.791ZM219.36 125.295C219.351 123.268 218.463 121.612 216.591 120.576C214.676 119.516 212.744 119.585 210.916 120.827C210.148 121.344 209.467 122 208.682 122.483C207.897 122.966 207.699 123.639 208.13 124.329C209.312 126.209 210.381 128.227 211.89 129.823C214.055 132.109 214.185 131.945 216.712 130.064C218.291 128.874 219.326 127.442 219.36 125.295ZM120.634 152.628C120.324 148.963 119.659 148.298 116.071 148.316C115.925 148.316 115.778 148.333 115.631 148.342C112.94 148.54 110.827 150.688 110.62 153.422C110.43 155.949 112.345 158.494 114.881 159.02C115.692 159.192 116.537 159.192 117.348 159.373C118.193 159.563 118.685 159.227 118.918 158.476C119.504 156.536 120.065 154.578 120.634 152.628ZM140.171 119.731C141.206 123.052 142.353 126.761 143.56 130.634C144.992 129.34 146.208 128.244 147.174 127.373C144.725 124.691 142.344 122.095 140.171 119.731ZM180.054 118.317C179.313 115.953 178.657 113.84 177.924 111.494C177.398 113.788 176.941 115.755 176.475 117.773C177.596 117.946 178.648 118.101 180.054 118.317Z" fill="#95A1B3" fill-opacity="0.25"/>
<path d="M159.535 99.4966C156.291 99.6605 152.307 100.842 148.779 103.326C145.208 105.845 143.923 109.442 145.027 113.435C146.726 119.559 152.634 123.812 158.577 123.182C165.477 122.449 170.532 117.42 170.817 110.692C171.058 104.974 168.212 99.2724 159.535 99.4966Z" fill="#95A1B3" fill-opacity="0.25"/>
<path d="M159.707 162.988C157.706 162.928 156.524 162.134 156.024 160.565C154.454 155.588 152.927 150.594 151.435 145.6C150.831 143.564 151.823 141.925 154.1 141.201C159.241 139.571 164.399 138.009 169.54 136.422C172.412 135.534 175.276 134.611 178.157 133.748C180.848 132.946 182.374 133.783 183.22 136.474C184.626 140.968 186.023 145.462 187.412 149.955C188.343 152.966 187.558 154.484 184.617 155.398C176.923 157.787 169.229 160.168 161.527 162.54C160.837 162.747 160.112 162.885 159.707 162.988ZM179.511 137.328C171.299 139.872 163.261 142.357 155.17 144.858C156.671 149.697 158.094 154.285 159.586 159.116C167.763 156.588 175.802 154.104 183.936 151.594C182.435 146.764 181.003 142.124 179.511 137.328Z" fill="#95A1B3" fill-opacity="0.25"/>
<path d="M159.224 103.284C157.033 103.396 154.333 104.198 151.953 105.871C149.537 107.571 148.666 110.012 149.417 112.711C150.564 116.852 154.566 119.732 158.585 119.31C163.252 118.818 166.676 115.411 166.866 110.857C167.021 106.984 165.098 103.129 159.224 103.284Z" fill="white"/>
<path d="M2.99371 240.971C2.07646 236.137 1.49754 231.303 2.61027 226.401C6.41458 209.665 23.8122 199.868 40.0444 205.687C49.3748 209.033 58.4795 212.995 67.6821 216.694C76.7192 220.333 85.7488 223.987 94.7784 227.641C96.0716 228.167 97.7557 228.664 96.9287 230.536C96.1317 232.34 94.613 231.551 93.2973 231.017C75.5538 223.852 57.848 216.612 40.067 209.544C23.7069 203.041 6.18151 214.386 5.58756 231.724C5.23419 242.009 11.1963 251.535 20.6996 255.504C30.3382 259.527 40.0444 263.369 49.7206 267.301C50.3672 267.564 51.2243 267.699 51.5776 268.195C52.0137 268.804 52.3069 269.797 52.119 270.466C51.9912 270.91 50.8935 271.301 50.2319 271.301C49.4875 271.301 48.7432 270.857 48.0064 270.556C41.0068 267.737 34.0748 264.722 26.9925 262.121C18.3688 258.955 10.4144 255.008 5.45974 246.776C4.64024 244.851 3.82073 242.911 2.99371 240.971Z" fill="#95A1B3" fill-opacity="0.25"/>
<path d="M139.032 258.173C138.46 260.226 137.205 260.406 135.408 259.655C131.205 257.895 126.957 256.234 122.732 254.535C121.454 254.023 120.01 253.324 120.98 251.76C121.364 251.144 123.138 250.851 124.01 251.159C128.859 252.881 133.619 254.843 138.415 256.715C138.626 257.204 138.829 257.692 139.032 258.173Z" fill="#95A1B3" fill-opacity="0.25"/>
<path d="M22.6695 213.626C33.1802 209.213 45.0969 214.07 49.5477 224.588C54.0287 235.174 49.1267 247.203 38.5107 251.669C28.0301 256.083 15.7976 251.008 11.452 240.452C7.15146 230.001 12.1512 218.047 22.6695 213.626ZM13.9932 230.558C13.8504 231.302 13.5872 232.039 13.5872 232.783C13.6248 241.256 20.0004 248.399 28.4511 249.497C36.7138 250.564 44.7059 245.271 46.9389 237.234C49.2395 228.971 45.1946 220.423 37.3755 217.017C26.8722 212.446 14.1285 219.874 13.9406 230.67L13.9932 230.558Z" fill="#95A1B3" fill-opacity="0.25"/>
<path d="M117.732 252.143C116.732 251.887 115.958 251.782 115.251 251.504C96.5526 243.963 77.8619 236.399 59.1636 228.851C57.8629 228.325 56.5848 227.693 57.2314 226.032C57.9306 224.227 59.3591 224.971 60.5696 225.46C79.1851 232.971 97.8082 240.482 116.394 248.068C117.288 248.436 118.025 249.429 118.567 250.301C118.747 250.587 118.085 251.406 117.732 252.143Z" fill="#95A1B3" fill-opacity="0.25"/>
<path d="M68.103 249.362C69.2834 248.354 69.9601 247.52 70.8322 247.144C71.3134 246.933 72.1479 247.437 72.7945 247.693C82.1549 251.46 91.5078 255.241 100.861 259.023C101.425 259.249 102.199 259.391 102.477 259.827C102.891 260.474 103.237 261.436 103.049 262.098C102.913 262.557 101.861 262.887 101.169 263.015C100.718 263.098 100.177 262.73 99.6954 262.534C90.1771 258.692 80.6588 254.85 71.148 250.993C70.351 250.67 69.6368 250.189 68.103 249.362Z" fill="#95A1B3" fill-opacity="0.25"/>
<path d="M75.0127 269.421C75.2608 268.684 75.2909 267.729 75.7119 267.496C76.3735 267.135 77.4111 266.97 78.1103 267.225C81.5612 268.496 84.952 269.939 88.3579 271.315C92.0945 272.826 95.8687 274.247 99.5377 275.916C100.312 276.27 100.681 277.51 101.229 278.345C100.184 278.631 98.9438 279.443 98.1318 279.127C91.0194 276.405 83.9746 273.488 76.9224 270.593C76.3059 270.345 75.7645 269.894 75.0127 269.421Z" fill="#95A1B3" fill-opacity="0.25"/>
<path d="M44.3074 256.88C45.4727 255.948 46.1569 255.196 46.999 254.812C47.4125 254.624 48.1493 255.075 48.7132 255.301C55.2842 257.94 61.8478 260.601 68.4189 263.248C69.7572 263.789 71.2909 264.346 70.5316 266.173C69.8248 267.864 68.4039 267.21 67.1633 266.706C60.5171 264.022 53.8633 261.353 47.2245 258.639C46.4652 258.323 45.796 257.782 44.3074 256.88Z" fill="#95A1B3" fill-opacity="0.25"/>
<path d="M75.99 281.503C75.0427 281.263 74.2683 281.15 73.5615 280.864C69.0806 279.075 64.6071 277.255 60.1337 275.436C58.8781 274.925 57.3669 274.278 58.3443 272.684C58.7202 272.068 60.5246 271.775 61.3968 272.098C66.0958 273.805 70.7271 275.707 75.3209 277.676C76.0577 277.992 76.6817 278.932 76.9824 279.722C77.1253 280.112 76.396 280.827 75.99 281.503Z" fill="#95A1B3" fill-opacity="0.25"/>
<path d="M54.7279 243.746C54.2242 242.28 55.4046 240.904 56.9007 241.385C59.2991 242.159 61.6373 243.167 63.9079 244.257C64.3966 244.49 64.8627 245.603 64.7124 246.129C64.5545 246.693 63.4793 247.55 63.1034 247.422C60.4043 246.497 57.7804 245.362 55.149 244.264C54.9384 244.182 54.8257 243.873 54.7279 243.746Z" fill="#95A1B3" fill-opacity="0.25"/>
<path d="M13.9404 230.671C15.3088 228.618 16.2636 226.272 18.9702 225.385C22.0528 224.37 25.1053 225.077 27.1954 227.626C29.2329 230.122 29.4434 233.392 27.7367 236.144C26.1353 238.723 22.7294 240.099 19.7897 239.347C16.6771 238.55 14.5118 235.994 14.2637 232.828C14.2036 232.069 14.0833 231.31 13.9931 230.558L13.9404 230.671ZM20.0303 228.784C18.2785 229.565 17.4139 231.843 18.1808 233.648C19.0078 235.603 21.316 236.482 23.1881 235.565C24.9699 234.685 25.7594 232.452 24.9098 230.663C24.0677 228.904 21.7671 228.009 20.0303 228.784Z" fill="#95A1B3" fill-opacity="0.25"/>
<path d="M43.6306 232.746C44.7734 235.475 43.5479 238.572 40.8488 239.768C38.082 241.001 34.8942 239.678 33.6913 236.798C32.5635 234.091 33.8116 230.919 36.4731 229.746C39.1872 228.55 42.4427 229.919 43.6306 232.746ZM37.5332 232.37C37.3076 233.896 36.8114 234.986 37.1573 235.512C37.5181 236.054 38.7587 236.354 39.488 236.189C39.8864 236.099 40.3977 234.633 40.1496 234.121C39.8488 233.482 38.8263 233.182 37.5332 232.37Z" fill="#95A1B3" fill-opacity="0.25"/>
<path d="M27.827 241.174C29.1427 241.971 30.3081 242.294 30.466 242.888C30.6389 243.52 30.0299 244.67 29.4209 245.091C29.06 245.339 27.6315 244.783 27.3985 244.271C27.1203 243.625 27.5789 242.655 27.827 241.174Z" fill="#95A1B3" fill-opacity="0.25"/>
<path d="M33.5035 220.717C34.7891 221.461 35.8191 221.717 36.1274 222.333C36.368 222.807 35.8417 224.213 35.3981 224.348C34.6989 224.559 33.4358 224.303 33.0599 223.777C32.714 223.303 33.2403 222.205 33.5035 220.717Z" fill="#95A1B3" fill-opacity="0.25"/>
<path d="M24.5715 222.725C25.4361 221.364 25.767 220.244 26.3534 220.086C27.015 219.913 27.9022 220.605 28.6916 220.92C28.3834 221.642 28.2631 222.717 27.7293 223.003C27.1353 223.319 26.1579 222.905 24.5715 222.725Z" fill="#95A1B3" fill-opacity="0.25"/>
<path d="M272.021 169.1C269.242 169.1 266.979 166.822 267 164.036C267.022 161.278 269.35 158.979 272.093 159C274.837 159.022 277.15 161.371 277.122 164.107C277.1 166.879 274.837 169.1 272.021 169.1Z" fill="#95A1B3" fill-opacity="0.25"/>
<path d="M5.02143 179.1C2.24218 179.1 -0.0213373 176.822 0.000151753 174.036C0.0216408 171.278 2.34963 168.979 5.09307 169C7.83651 169.022 10.1502 171.371 10.1215 174.107C10.1 176.879 7.8365 179.1 5.02143 179.1Z" fill="#95A1B3" fill-opacity="0.25"/>
<path d="M78.8624 75.001C78.8524 77.151 77.0824 78.951 74.9924 78.941C72.8224 78.941 70.9224 76.961 71.0024 74.811C71.0824 72.731 72.9624 70.951 75.0424 71.001C77.1524 71.051 78.8724 72.851 78.8624 75.001Z" fill="#95A1B3" fill-opacity="0.25"/>
<path d="M327.862 257.001C327.852 259.151 326.082 260.951 323.992 260.941C321.822 260.941 319.922 258.961 320.002 256.811C320.082 254.731 321.962 252.951 324.042 253.001C326.152 253.051 327.872 254.851 327.862 257.001Z" fill="#95A1B3" fill-opacity="0.25"/>
<path d="M178.862 276.001C178.852 278.151 177.082 279.951 174.992 279.941C172.822 279.941 170.922 277.961 171.002 275.811C171.082 273.731 172.962 271.951 175.042 272.001C177.152 272.051 178.872 273.851 178.862 276.001Z" fill="#95A1B3" fill-opacity="0.25"/>
<path d="M213.862 24.001C213.852 26.151 212.082 27.951 209.992 27.941C207.822 27.941 205.922 25.961 206.002 23.811C206.082 21.731 207.962 19.951 210.042 20.001C212.152 20.051 213.872 21.851 213.862 24.001Z" fill="#95A1B3" fill-opacity="0.25"/>
<path d="M317.659 44.3002C317.961 44.4519 318.233 44.5884 318.475 44.7098C321.527 46.2417 324.594 47.7435 327.585 49.3207C328.461 49.7606 329.218 49.3838 330.019 49.2944C330.14 49.2794 330.277 48.9319 330.338 48.7354C330.702 47.6323 331.429 47.0135 332.593 47.0305C336.751 47.0371 340.06 48.7358 342.459 52.0962C342.745 52.5049 342.684 53.155 342.819 53.7146C342.909 54.1381 342.923 54.6371 343.165 54.9852C346.288 59.3145 347.112 64.003 345.289 68.9897C342.617 76.2732 339.748 83.496 336.939 90.7491C334.707 96.5516 328.156 99.0511 322.657 96.1393C319.258 94.3195 317.448 91.3682 317.273 87.4973C317.141 84.972 317.175 82.4168 317.119 79.8917C317.104 79.3927 317.09 78.8937 317.091 78.2889C316.773 78.3187 316.531 78.3485 316.274 78.4086C310.845 79.2769 305.937 75.1867 305.855 69.698C305.841 68.9723 305.63 68.6393 305.011 68.3662C303.711 67.7895 302.443 67.0769 301.158 66.47C300.917 66.3487 300.418 66.363 300.221 66.529C295.876 69.909 288.983 68.5674 286.452 63.1354C286.422 63.0446 286.331 62.9991 286.21 62.8628C285.938 63.0287 285.666 63.1946 285.423 63.3756C283.244 64.9295 281.049 66.5136 278.869 68.0675C275.312 70.5566 270.7 70.6249 267.332 68.2911C263.632 65.7148 261.975 61.5542 263.116 57.2468C263.451 55.9773 264.103 54.7536 264.815 53.6359C268.711 47.3824 272.622 41.1743 276.593 34.9966C279.579 30.3293 283.907 28.038 289.426 27.9711C289.774 27.9566 290.137 27.685 290.485 27.5192C291.06 27.2782 291.666 26.8256 292.24 26.8114C296.338 26.7877 299.631 28.5166 302.06 31.8166C302.649 32.6038 302.572 33.4352 302.147 34.2813C301.995 34.5834 301.677 34.9912 301.768 35.1879C302.054 35.8234 302.37 36.6252 302.899 36.9285C306.207 38.7028 309.622 40.3411 312.96 42.055C313.474 42.3129 313.656 42.0259 313.898 41.6936C316.202 38.5372 319.214 36.3799 322.905 35.2064C327.504 33.7319 331.964 34.0414 336.33 36.1198C340.122 37.91 343.994 37.4323 346.795 34.7152C347.537 33.9906 348.129 33.1146 348.689 32.2234C349.478 31.0302 350.673 30.6088 351.821 31.2607C352.939 31.8975 353.269 33.1228 352.647 34.3616C349.568 40.6466 341.505 43.5217 335.174 40.533C330.687 38.3939 326.287 38.1904 321.838 40.5723C320.249 41.4013 318.871 42.639 317.659 44.3002ZM286.631 55.243C286.601 55.2279 286.57 55.2127 286.555 55.1673C287.055 54.4726 287.54 53.7325 288.116 53.1135C290.933 50.1394 295.425 49.4056 298.899 51.3011C302.661 53.3786 304.454 57.4184 303.389 61.5747C303.252 62.0735 303.282 62.391 303.81 62.6187C304.762 63.0587 305.699 63.5289 306.62 64.0293C307.179 64.3477 307.467 64.2272 307.861 63.744C311.012 59.8783 316.562 59.2975 320.473 62.3579C324.354 65.4032 325.026 70.923 322.01 74.9704C321.798 75.2422 321.616 75.6048 321.616 75.9072C321.67 79.7931 321.724 83.679 321.854 87.565C321.941 89.9541 323.631 91.9375 325.853 92.561C328.241 93.23 330.676 92.4477 332.025 90.4389C332.632 89.5326 333.011 88.4749 333.421 87.4322C335.926 80.9346 338.401 74.4219 340.906 67.9243C342.379 64.0862 341.961 60.4719 339.305 57.3227C336.589 54.1432 333.037 53.0791 328.938 54.0857C328.121 54.2809 327.381 54.2495 326.595 53.8551C317.863 49.4716 309.13 45.088 300.398 40.7045C299.461 40.2342 298.873 39.5983 298.451 38.6299C296.914 35.0592 294.135 32.9833 290.311 32.5388C286.501 32.064 283.279 33.4348 280.991 36.561C279.566 38.494 278.383 40.6241 277.095 42.6632C274.185 47.255 271.305 51.862 268.334 56.4235C266.773 58.8553 266.964 61.7889 268.987 63.788C270.935 65.7113 273.958 65.9429 276.32 64.2532C278.833 62.4882 281.3 60.6626 283.843 58.9127C284.993 58.1283 286.128 57.3742 286.327 55.8474C286.373 55.6811 286.525 55.4546 286.631 55.243ZM292.62 63.3569C294.932 64.4794 297.61 63.5916 298.717 61.3102C299.824 59.0289 298.921 56.3815 296.61 55.2589C294.389 54.1819 291.711 55.1453 290.619 57.3964C289.527 59.5719 290.46 62.3101 292.62 63.3569ZM318.901 71.4425C320.039 69.1763 319.106 66.5137 316.764 65.376C314.603 64.3293 311.895 65.2775 310.803 67.4531C309.711 69.6286 310.599 72.3818 312.714 73.4436C315.101 74.6419 317.733 73.7691 318.901 71.4425Z" fill="#95A1B3" fill-opacity="0.25"/>
<path d="M290.137 45.694C289.803 46.3588 289.5 46.9631 289.211 47.5372C288.529 48.8213 287.258 49.3182 286.08 48.7267C284.901 48.1351 284.51 46.8039 285.163 45.5047C285.451 44.9306 285.739 44.3565 286.088 43.6615C285.393 43.3126 284.743 43.0243 284.124 42.6756C282.9 42.0235 282.494 40.7225 283.116 39.5593C283.707 38.4565 284.978 38.1107 286.217 38.657C288.12 39.537 288.12 39.537 289.121 37.694C289.789 36.4401 291.014 36.0338 292.223 36.6405C293.401 37.2321 293.747 38.4271 293.185 39.6963C292.897 40.346 292.336 41.0859 292.487 41.6154C292.622 42.0994 293.574 42.3126 294.163 42.6462C295.357 43.2831 295.808 44.5691 295.247 45.687C294.656 46.8654 293.385 47.2868 292.131 46.6951C291.466 46.3614 290.862 46.0581 290.137 45.694Z" fill="#95A1B3" fill-opacity="0.25"/>
<path d="M306.779 60.3247C306.416 60.1427 306.008 59.9757 305.661 59.7635C304.649 59.142 304.273 57.9318 304.758 56.8893C305.244 55.8468 306.394 55.2892 307.542 55.7144C308.464 56.0636 309.34 56.5035 310.156 57.0642C311.122 57.7008 311.347 58.9107 310.831 59.9381C310.301 60.92 309.166 61.3718 308.078 60.977C307.594 60.8099 307.202 60.5371 306.779 60.3247Z" fill="#95A1B3" fill-opacity="0.25"/>
<path d="M303.192 52.2458C302.859 52.0789 302.481 51.9271 302.164 51.7301C301.122 51.0934 300.731 49.8378 301.231 48.7651C301.762 47.7075 303.003 47.1954 304.121 47.6811C304.907 47.9998 305.692 48.3942 306.448 48.849C307.55 49.516 307.881 50.8169 307.275 51.8743C306.713 52.9167 305.458 53.3078 304.34 52.8222C303.917 52.6098 303.554 52.4278 303.192 52.2458Z" fill="#95A1B3" fill-opacity="0.25"/>
<path d="M315.368 58.3594C315.005 58.1774 314.597 58.0105 314.25 57.7982C313.207 57.1615 312.816 55.906 313.347 54.8484C313.878 53.7909 315.149 53.2939 316.237 53.7644C317.037 54.1285 317.808 54.4775 318.563 54.9323C319.591 55.5236 319.936 56.8698 319.42 57.8972C318.859 58.9396 317.604 59.4063 316.486 58.9207C316.123 58.7386 315.73 58.5415 315.368 58.3594Z" fill="#95A1B3" fill-opacity="0.25"/>
<path d="M331.012 70.0744C330.436 71.147 329.09 71.5682 328.002 71.0222C326.884 70.461 326.433 69.0995 326.994 67.9815C327.57 66.8333 328.916 66.4121 330.065 66.9885C331.167 67.5799 331.589 68.9262 331.012 70.0744Z" fill="#95A1B3" fill-opacity="0.25"/>
<path d="M336.065 59.9326C335.503 61.0506 334.112 61.4868 332.994 60.85C331.891 60.2586 331.485 58.9576 332.046 57.8396C332.623 56.6914 333.984 56.24 335.087 56.8314C336.25 57.4532 336.671 58.7996 336.065 59.9326Z" fill="#95A1B3" fill-opacity="0.25"/>
<path d="M338.548 67.5743C338.002 68.662 336.701 69.1438 335.598 68.628C334.465 68.097 333.984 66.7203 334.545 65.6023C335.121 64.4541 336.452 63.9875 337.57 64.5487C338.673 65.0646 339.14 66.3958 338.548 67.5743Z" fill="#95A1B3" fill-opacity="0.25"/>
<path d="M327.554 59.4045C328.687 60.0111 329.063 61.2969 328.471 62.4753C327.895 63.5479 326.579 63.9843 325.491 63.4382C324.343 62.8618 323.922 61.5155 324.483 60.3975C325.105 59.2343 326.406 58.8281 327.554 59.4045Z" fill="#95A1B3" fill-opacity="0.25"/>
</svg>
