<svg width="306" height="757" viewBox="0 0 306 757" fill="none" xmlns="http://www.w3.org/2000/svg">
<path d="M59.9999 138.53C59.9829 140.961 57.9618 143.006 55.5681 143C51.7403 142.994 48.6239 137.664 53.4961 134.479C56.7649 132.92 60.0225 135.401 59.9999 138.53Z" fill="#95A1B3" fill-opacity="0.25"/>
<path d="M247.73 62.4117C247.7 64.3817 246.22 65.8217 244.27 65.7617C242.47 65.7117 240.98 64.1617 241 62.3717C241.03 60.5117 242.67 58.9417 244.53 59.0017C246.37 59.0517 247.75 60.5317 247.73 62.4117Z" fill="#95A1B3" fill-opacity="0.25"/>
<path d="M219.73 422.412C219.7 424.382 218.22 425.822 216.27 425.762C214.47 425.712 212.98 424.162 213 422.372C213.03 420.512 214.67 418.942 216.53 419.002C218.37 419.052 219.75 420.532 219.73 422.412Z" fill="#95A1B3" fill-opacity="0.25"/>
<path d="M6.7302 3.41166C6.7002 5.38166 5.2202 6.82167 3.2702 6.76167C1.4702 6.71167 -0.019801 5.16166 0.000199025 3.37166C0.030199 1.51166 1.6702 -0.0583351 3.5302 0.00166489C5.3702 0.0516649 6.7502 1.53166 6.7302 3.41166Z" fill="#95A1B3" fill-opacity="0.25"/>
<path d="M24.7302 250.412C24.7002 252.382 23.2202 253.822 21.2702 253.762C19.4702 253.712 17.9802 252.162 18.0002 250.372C18.0302 248.512 19.6702 246.942 21.5302 247.002C23.3702 247.052 24.7502 248.532 24.7302 250.412Z" fill="#95A1B3" fill-opacity="0.25"/>
<path d="M300.021 455.1C297.242 455.1 294.979 452.822 295 450.036C295.022 447.278 297.35 444.979 300.093 445C302.837 445.022 305.15 447.371 305.122 450.107C305.1 452.879 302.837 455.1 300.021 455.1Z" fill="#95A1B3" fill-opacity="0.25"/>
<path d="M20.0214 756.1C17.2422 756.1 14.9787 753.822 15.0002 751.036C15.0216 748.278 17.3496 745.979 20.0931 746C22.8365 746.022 25.1502 748.371 25.1215 751.107C25.1 753.879 22.8365 756.1 20.0214 756.1Z" fill="#95A1B3" fill-opacity="0.25"/>
<path d="M25.8624 418.001C25.8524 420.151 24.0824 421.951 21.9924 421.941C19.8224 421.941 17.9224 419.961 18.0024 417.811C18.0824 415.731 19.9624 413.951 22.0424 414.001C24.1524 414.051 25.8724 415.851 25.8624 418.001Z" fill="#95A1B3" fill-opacity="0.25"/>
</svg>
