<svg width="180" height="189" viewBox="0 0 180 189" fill="none" xmlns="http://www.w3.org/2000/svg">
<path d="M143.538 83.7117C147.45 86.6474 145.438 93.9631 140.201 93.6071C137.991 93.4581 135.23 88.578 134.491 86.2407C134.387 85.8907 133.438 89.0976 135.762 93.014C136.065 93.5156 136.513 94.2964 136.983 94.7111C136.391 95.5217 135.626 96.0679 134.875 96.6137C130.828 99.5867 126.937 102.656 122.545 105.128C119.058 107.08 105.08 113.594 105.463 113.813C105.747 113.977 107.067 113.845 108.598 113.681C109.258 113.614 109.513 113.793 109.467 114.427C109.374 115.68 109.266 116.947 109.117 118.201C108.604 122.358 108.048 126.501 107.183 130.607C106.762 132.554 106.243 134.488 105.484 136.328C105.172 137.078 104.958 137.827 105.055 138.655C105.768 144.762 104.448 151.336 102.228 157.023C101.47 158.947 100.895 160.925 100.758 163.009C100.747 163.192 100.623 163.362 100.569 163.504C100.192 163.678 99.8797 163.486 99.5559 163.463C92.9531 163.001 89.0639 166.183 89.281 166.587C89.4979 166.978 94.652 164.663 98.5579 165.335C99.4179 165.476 100.264 165.646 101.03 166.042C105.411 168.352 100.004 172.513 97.4145 173.34C95.5111 173.946 93.378 174.246 91.3891 173.854C87.2137 173.032 86.6509 168.414 86.2323 164.946C86.0868 163.711 85.6604 162.494 85.165 161.362C84.1596 159.071 82.6941 157.04 81.354 154.937C80.3306 153.307 79.3767 151.62 78.772 149.787C78.551 149.13 78.1076 148.644 77.5669 148.231C74.0379 145.528 69.4179 145.064 65.6565 142.801C64.3222 141.992 61.3211 137.945 60.986 138.105C60.6648 138.251 61.4436 141.361 61.8352 142.142C61.7424 142.509 61.4203 142.599 61.0982 142.688C57.4284 143.658 54.2209 145.437 51.4482 148.053C49.6598 149.74 47.8004 151.386 46.3968 153.404C43.466 157.64 38.0261 157.821 33.9064 155.114C31.2781 153.382 29.25 149.503 32.4784 147.26C33.7725 146.354 35.258 146.008 36.8193 146.026C38.6478 146.041 44.1893 147.911 44.4084 147.528C44.5863 147.202 41.8346 144.754 39.2826 144.329C38.3944 144.188 38.1805 143.995 38.2356 142.995C38.7953 133.606 43.6925 121.845 52.4971 117.294C53.3901 116.83 53.6612 116.165 53.7452 115.222C53.9882 112.715 54.2591 110.193 54.6288 107.698C54.7946 106.585 54.4732 105.802 53.6881 105.041C50.6051 102.078 48.0915 98.6429 45.8144 95.0352C44.6759 93.2384 43.6069 91.3843 42.8033 89.4136C42.4817 88.6169 42.23 87.791 41.9783 86.9651C41.6963 85.999 42.0803 85.3603 42.6428 84.4376C43.9875 82.2372 43.7553 80.8484 43.4161 80.7411C43.2465 80.6874 42.4849 82.3867 42.3761 82.6274C41.1089 85.2908 37.7764 85.3276 35.3463 83.6771C31.9498 81.3663 33.9944 77.116 37.2533 75.9412C41.5184 74.3571 47.0588 78.9134 50.2589 81.2554C51.7379 82.3297 53.1615 83.4612 54.5852 84.5926C55.1687 85.0478 57.463 86.0956 57.5586 86.8255C57.6381 87.429 57.4548 88.3178 57.3522 88.9663C57.0857 90.8549 56.6681 93.899 57.1051 93.9626C57.4574 94.0135 59.2387 88.178 59.9969 86.2538C60.1187 85.9426 60.1698 85.6043 60.4899 85.3884C60.9518 85.2407 61.1689 85.6452 61.4261 85.9085C67.937 92.3205 75.8785 95.715 84.84 96.8297C93.0688 97.8572 100.995 96.5548 108.58 93.2043C109.167 92.9422 109.866 92.7065 110.41 92.4169C110.425 92.4588 110.442 92.6414 110.471 92.6832C111.558 95.7324 118.027 92.0614 119.788 91.2892C124.691 89.1328 129.211 86.7714 134.005 84.7996C136.94 83.5734 140.578 81.4786 143.538 83.7117Z" fill="#FBFDFA"/>
<path d="M44.3949 78.5318C48.3076 82.4098 52.1114 86.5286 57.4926 88.0355C57.5565 87.6126 57.592 87.1761 57.5445 86.8253C57.4491 86.1095 55.1549 85.0616 54.5711 84.5924C53.1474 83.4609 51.7097 82.3297 50.2448 81.2551C47.5141 79.2576 43.0708 75.6268 39.1746 75.5879C39.8778 75.5912 43.5953 77.7424 44.3949 78.5318Z" fill="#5BB3EF"/>
<path d="M108.015 95.828C110.826 95.7148 112.942 95.1761 115.673 94.4734C118.419 93.7564 127.869 88.1835 129.814 86.6209C126.504 88.1341 123.238 89.7591 119.773 91.2887C118.013 92.0609 111.544 95.7319 110.457 92.6827C110.442 92.6267 110.425 92.4582 110.396 92.4164C109.867 92.7198 109.167 92.9415 108.566 93.2038C105.968 94.3545 103.338 95.2666 100.661 95.9123C103.122 95.9028 105.57 95.9217 108.015 95.828Z" fill="#5BB3EF"/>
<path d="M87.3307 165.956C86.5585 159.597 84.3366 152.248 78.2288 149.205C78.3298 149.372 78.431 149.554 78.4904 149.764C79.0951 151.597 80.049 153.284 81.0724 154.914C82.3984 157.017 83.878 159.048 84.8834 161.339C85.3788 162.47 85.8055 163.701 85.9507 164.923C86.2083 167.056 86.5288 169.625 87.6963 171.478C87.6682 169.636 87.5557 167.795 87.3307 165.956Z" fill="#5BB3EF"/>
<path d="M61.1877 140.267C54.6226 141.352 49.1753 146.568 46.8785 152.721C48.2162 150.985 49.8674 149.525 51.4616 148.01C54.2345 145.408 57.4417 143.615 61.1116 142.645C61.4337 142.556 61.7558 142.466 61.8486 142.099C61.6747 141.765 61.4381 141.009 61.2438 140.252C61.2299 140.267 61.2159 140.267 61.1877 140.267Z" fill="#5BB3EF"/>
<path d="M161.512 71.8185C162.936 72.9641 164.595 73.8528 166.44 74.0356C167.581 74.1447 168.731 73.9443 169.871 74.0113C170.885 74.0661 171.505 75.1255 170.928 76.0203C170.461 76.7447 169.866 77.3726 169.186 77.9314C166.338 80.2673 163.154 81.7082 159.387 81.8361C157.067 81.9137 154.772 81.6957 152.462 81.4778C150.082 81.247 147.738 80.664 145.345 80.5318C143.952 80.4546 142.491 80.5754 141.147 80.9616L141.562 108.098C141.568 108.534 141.222 108.877 140.8 108.883L140.167 108.893C139.732 108.899 139.389 108.553 139.382 108.131L138.734 65.6973C138.727 65.2615 139.074 64.9187 139.496 64.9122L140.128 64.9025C140.466 64.8974 140.751 65.1743 140.869 65.496C141.566 65.1196 142.292 64.7992 142.949 64.536C147.031 62.8985 151.577 63.1525 155.823 63.9877C160.097 64.8365 164.282 64.4491 168.442 63.3027C169.226 63.0938 170.01 62.8427 170.736 62.5082C171.532 62.1444 172.782 61.0846 173.555 62.001C173.856 62.3621 173.892 62.8537 173.561 63.2807C172.058 65.2866 170.2 67.0308 168.127 68.4688C166.457 69.6335 161.782 72.0113 161.512 71.8185ZM167.298 76.8352C167.423 76.7208 167.533 76.5363 167.46 76.3827C167.417 76.313 167.36 76.2858 167.289 76.2447C166.624 75.9314 165.822 75.9436 165.103 75.7858C162.929 75.2987 160.929 74.162 159.317 72.6396C159.031 72.3627 158.759 72.0575 158.543 71.7373C158.169 71.1946 158.412 70.5017 159.056 70.295C159.434 70.1767 159.826 70.1145 160.22 70.0663C161.02 69.9837 161.775 69.7331 162.502 69.4126C164.695 68.4368 166.766 66.8582 168.714 65.4502C167.914 65.6031 165.345 65.8814 164.167 66.1244C161.377 66.6733 158.617 66.4202 155.853 65.9421C153.428 65.5291 150.963 65.2855 148.517 65.3229C146.042 65.3607 143.114 66.0805 140.943 67.6184L141.116 78.9088C142.362 78.5382 143.681 78.3914 144.991 78.498C147.511 78.6845 149.98 79.2093 152.489 79.5367C155.391 79.9142 158.306 80.165 161.224 79.6704C162.571 79.4529 163.858 79.0114 165.058 78.3602C165.839 77.9545 166.675 77.4635 167.298 76.8352Z" fill="#191820"/>
<path d="M129.178 36.7049C131.14 41.8081 131.91 47.0983 131.796 52.5427C131.79 53.035 131.953 53.6091 131.342 54.0966C131.091 53.341 130.884 52.6691 130.663 51.9834C127.417 42.0619 121.295 33.4782 112.543 27.6912C106.605 23.7598 100.073 21.525 92.9625 20.9586C81.7401 20.0613 71.6917 23.2806 62.5923 29.7061C58.9887 32.2504 55.8143 35.2663 52.9973 38.6705C52.652 39.0836 52.3208 39.4965 51.9753 39.8956C51.8923 39.9812 51.7521 40.0115 51.6407 40.0835C51.9824 36.6749 55.2026 30.2127 58.888 25.6561C63.8982 19.4479 70.2017 15.0481 77.7712 12.4995C82.5702 10.8791 87.5102 10.1989 92.3508 10.3781C93.2099 11.3776 93.972 12.4769 94.6371 13.6622C94.9262 14.1781 95.2017 14.7224 95.5605 15.1951C95.8045 15.5148 96.2144 15.6492 96.6323 15.3896C97.0085 15.1589 97.2143 14.8182 97.0951 14.3841C97.005 14.0057 96.8305 13.6287 96.6564 13.2797C96.1494 12.3171 95.5871 11.4116 94.9833 10.5489C104.843 11.5374 114.166 16.0781 121.059 23.5671C124.592 27.4227 127.288 31.7975 129.178 36.7049Z" fill="#FCFCFC"/>
<path d="M69.0224 17.9344C75.6464 14.261 83.3645 13.1587 90.8647 13.4379C92.1312 13.4888 93.3981 13.5679 94.6516 13.6894C94.6373 13.6755 94.6371 13.6615 94.6228 13.6476C93.9578 12.4624 93.1956 11.363 92.3366 10.3636C87.496 10.1844 82.5562 10.8787 77.7569 12.4849C72.2302 14.3414 67.3936 17.1858 63.2188 21.0045C65.2453 20.1719 67.112 19.0043 69.0224 17.9344Z" fill="#5BB3EF"/>
<path d="M96.9484 13.9782C99.8095 14.3845 102.645 14.9881 105.415 15.8178C107.732 16.5137 109.995 17.3651 112.19 18.3863C114.456 19.4346 116.586 20.724 118.756 21.9425C119.295 22.2437 119.848 22.5587 120.388 22.8739C113.571 15.7916 104.519 11.4999 94.9692 10.5488C95.5729 11.3975 96.1354 12.3171 96.6423 13.2797C96.7582 13.503 96.8601 13.7264 96.9484 13.9782Z" fill="#5BB3EF"/>
<path d="M40.584 131.019C41.0822 130.491 46.5951 122.208 53.5676 118.333C55.1574 117.45 55.6007 115.165 55.7843 113.376C55.9322 112.01 56.1198 109.56 55.5092 108.262C55.2182 107.619 54.2793 106.002 53.7795 105.503C53.4227 107.928 53.6738 112.396 53.4439 114.833C53.3598 115.776 53.0887 116.441 52.1957 116.905C46.8655 119.659 42.9543 125.076 40.584 131.019Z" fill="#5BB3EF"/>
<path d="M109.033 113.673C107.966 113.788 106.997 113.887 106.421 113.882C106.421 113.91 106.422 113.938 106.422 113.966C106.476 117.51 106.685 121.064 106.444 124.598C106.224 127.724 105.483 130.716 104.784 133.751C104.084 136.771 103.779 139.771 103.77 142.865C103.761 145.988 103.879 149.122 103.519 152.235C103.294 154.095 102.928 155.915 102.393 157.709C102.488 157.469 102.569 157.228 102.663 156.988C104.883 151.3 106.189 144.727 105.491 138.62C105.394 137.806 105.621 137.043 105.919 136.293C106.679 134.439 107.212 132.518 107.618 130.571C108.498 126.465 109.039 122.322 109.552 118.166C109.716 116.912 109.823 115.658 109.902 114.391C109.949 113.786 109.693 113.607 109.033 113.673Z" fill="#5BB3EF"/>
<path d="M45.7381 156.324C42.3368 157.375 34.0271 157.502 32.0114 154.439C31.0326 152.963 30.1068 152.204 30.305 150.443C30.6758 147.104 31.9653 146.817 34.7817 147.055C44.4561 147.892 46.2839 156.147 45.7381 156.324Z" fill="white"/>
<path d="M87.4845 173.265C90.5596 174.793 98.4863 175.375 100.893 172.765C102.056 171.509 103.03 171.747 103.116 170.044C103.277 166.793 102.089 166.333 99.3718 166.136C89.9947 165.435 86.9885 173.019 87.4845 173.265Z" fill="white"/>
<path d="M121.371 38.4415C121.512 39.4097 121.541 40.3937 121.458 41.3935C121.318 43.252 121.065 45.0841 120.614 46.9052C119.249 52.3827 116.837 57.3981 113.787 62.1138C113.498 62.5541 113.196 62.9947 112.893 63.4353C112.577 63.9183 112.542 64.3829 112.761 64.9421C113.713 67.3887 114.131 69.9278 114.227 72.5422C114.392 76.8572 113.611 81.0038 112.084 85.0212C111.921 85.4315 111.773 85.8416 111.666 86.2511C109.115 87.7245 106.35 88.9622 103.342 89.9926C99.8721 91.1847 96.2523 91.7463 92.5836 91.8727C80.2309 92.4693 68.2688 87.336 60.1406 78.1642C60.1254 78.0941 60.1101 78.01 60.0809 77.9401C58.951 73.0211 59.2284 68.1649 60.9278 63.4136C61.4945 61.8439 62.1883 60.3144 63.3795 59.1149C64.0029 58.5006 64.1207 57.9222 63.8558 57.1528C62.5613 53.4317 61.9256 49.5598 61.2056 45.7034C60.623 42.548 60.3076 39.3885 60.5117 36.1789C60.5674 35.2217 60.7078 34.2914 60.9474 33.4017C63.0996 31.5968 65.3817 30.0009 67.8495 28.599C68.0206 28.7511 68.2062 28.9311 68.3779 29.1254C69.6073 30.4286 70.7815 31.8029 71.8302 33.2495C73.9281 36.1708 76.2621 38.8916 78.6101 41.6122C79.5548 42.6947 80.5325 43.172 81.9174 42.6867C82.0993 42.6277 82.31 42.6104 82.5062 42.5652C87.2124 41.312 91.9046 40.9871 96.5166 42.7731C98.95 43.7203 98.8995 43.1726 100.2 41.7464C100.919 40.9619 101.638 40.1774 102.4 39.4345C104.299 37.5632 106.347 35.3942 108.647 34.0371C110.263 33.0842 111.954 32.3552 113.819 32.0032C114.226 31.9267 114.619 31.8785 114.998 31.8586C117.306 33.7923 119.449 35.9956 121.371 38.4415Z" fill="#EA9D3D"/>
<path d="M65.2465 57.9761C62.2732 51.1444 60.8823 41.1102 60.5577 33.6756C60.5547 33.4787 60.314 33.3699 60.1612 33.4988C60.1195 33.5276 60.092 33.5702 60.0788 33.6267C59.8531 34.502 59.7263 35.404 59.6701 36.3331C59.4658 39.5286 59.7674 42.7024 60.3641 45.8576C61.084 49.714 61.7339 53.5856 63.0143 57.307C63.2792 58.0764 63.1614 58.6548 62.5379 59.2691C61.3325 60.4548 60.6387 61.9842 60.0863 63.5678C59.9108 64.0486 59.7496 64.5433 59.6163 65.0235C59.8783 64.682 60.1682 64.326 60.4723 63.9838C60.1126 64.369 65.7275 59.0797 65.2465 57.9761Z" fill="#D36820"/>
<path d="M121.482 38.3264C121.195 37.9651 120.908 37.6038 120.607 37.2428C120.564 39.0014 120.422 40.7615 120.195 42.5088C119.262 49.5127 117.188 56.4777 112.799 61.9311C110.647 64.622 111.725 65.2805 111.889 65.8406C112.421 67.5341 112.687 69.288 112.841 71.0717C112.892 71.6757 112.929 72.2798 112.953 72.8842C113.635 72.4238 114.232 71.9505 114.173 71.7405C114.173 71.7405 114.248 72.0487 114.341 72.5958C114.339 72.5255 114.339 72.4693 114.338 72.399C114.241 69.7846 113.809 67.2457 112.871 64.7989C112.652 64.2397 112.687 63.7751 113.003 63.2921C113.292 62.8517 113.594 62.4111 113.897 61.9705C116.961 57.2546 119.36 52.2395 120.724 46.762C121.175 44.955 121.428 43.1088 121.568 41.2503C121.652 40.2786 121.623 39.2946 121.482 38.3264Z" fill="#D36820"/>
<path d="M114.355 72.6105C114.463 76.0263 113.98 79.3526 112.988 82.5883C113.048 80.942 113.023 79.2969 113.011 77.6517C113.015 76.0624 113.019 74.4732 112.939 72.8993C112.201 73.3888 111.379 73.8654 111.211 73.9664C107.197 76.292 102.654 78.1193 97.9686 77.0658C94.4688 76.2755 91.2985 74.0456 89.3534 70.9954C88.4459 69.5889 87.7746 67.9959 86.5619 66.8612C84.6215 65.0485 81.7466 64.6565 79.2373 65.1871C78.0878 65.4297 76.7445 65.8721 75.7993 66.6038C74.1035 67.9094 73.1687 69.316 70.8961 69.6883C68.4972 70.0765 65.5138 69.9533 63.6578 68.1394C63.4152 67.904 62.5883 67.1713 61.8164 66.3533C60.916 65.4107 60.0984 64.3685 60.458 63.9692C60.1397 64.3116 59.8639 64.6674 59.6019 65.0089C53.5921 72.9904 60.5555 80.4783 60.5555 80.4783C70.6228 91.3784 81.2246 91.2446 81.2246 91.2446C99.5379 94.1712 112.12 88.3114 112.12 88.3114C116.062 83.9899 114.861 75.3592 114.355 72.6105Z" fill="#F4D9BE"/>
<path d="M112.953 72.8987C113.019 74.4869 113.016 76.0761 113.026 77.6511C113.023 79.2966 113.048 80.9416 113.003 82.5877C113.994 79.352 114.477 76.0256 114.369 72.6099C114.262 72.063 114.201 71.7546 114.201 71.7546C114.233 71.965 113.635 72.4383 112.953 72.8987Z" fill="#C7C8C2"/>
<path d="M116.983 88.1541C117.673 88.1857 117.992 88.8559 117.636 89.452C117.54 89.6222 117.416 89.821 117.263 89.8937C115.879 90.4492 114.554 91.1867 113.027 91.5335C112.789 90.7355 113.019 90.0991 113.178 89.4779C113.218 89.3085 113.383 89.1091 113.551 89.0362C114.64 88.5414 115.759 88.1024 116.983 88.1541Z" fill="#2A66BC"/>
<path d="M116.705 110.462C116.535 112.209 116.43 113.645 116.255 115.082C115.954 117.449 115.596 119.804 115.267 122.171C115.089 123.426 114.728 124.627 114.253 125.801C113.847 126.82 113.153 127.421 112.073 127.606C110.235 127.902 109.555 128.503 110.061 125.724C110.774 121.748 111.275 117.732 111.283 113.667C111.287 112.992 111.463 112.54 112.134 112.29C113.546 111.748 114.958 111.164 116.705 110.462Z" fill="#2A66BC"/>
<path d="M121.947 131.392C120.777 134.842 117.716 137.94 114.622 138.859C112.242 139.585 110.041 139.126 108.036 137.68C107.624 137.377 107.393 137.029 107.568 136.492C108.077 134.853 108.572 133.2 109.067 131.547C109.094 131.434 109.233 131.361 109.372 131.205C111.288 132.371 113.312 133.24 115.661 133.218C117.897 133.212 119.882 132.436 121.947 131.392Z" fill="#EA9D3D"/>
<path d="M61.8095 56.6913C62.0149 57.2507 61.9374 57.7019 61.5649 58.1717C60.3919 59.6382 59.5736 61.3102 58.9537 63.0776C57.9564 65.9196 57.5092 68.8657 57.4146 71.8767C57.3885 72.9319 57.4747 73.9713 57.6031 75.01C54.4711 70.6841 52.1299 65.6429 50.8486 60.023C49.8687 55.7205 49.6473 51.3501 50.1002 46.9413C50.1743 46.2651 50.3478 45.6578 50.7329 45.0893C53.0554 41.538 55.6645 38.3338 58.5612 35.5472C58.2873 37.8718 58.393 40.1907 58.7238 42.5061C59.4018 47.3055 60.1642 52.1036 61.8095 56.6913Z" fill="#2A66BC"/>
<path d="M130.468 59.5101C130.654 60.6042 130.487 61.6193 130.165 62.6368C127.104 72.1905 121.774 79.5428 114.187 84.6654C115.497 81.0873 116.271 77.4189 116.24 73.566C116.212 70.824 115.904 68.1285 115.062 65.5115C114.796 64.6858 114.8 63.9826 115.365 63.2708C115.738 62.801 116.025 62.2763 116.341 61.7651C118.948 57.4922 121.059 52.9877 122.349 48.1302C122.961 45.8566 123.362 43.5722 123.425 41.2648C127.068 46.8205 129.327 52.9317 130.468 59.5101Z" fill="#2A66BC"/>
<path d="M112.821 30.2338C111.504 30.5212 110.245 31.0045 109.031 31.6137C106.463 32.9046 104.162 35.0774 102.068 37.0502C100.904 38.1509 99.7963 39.2929 98.7174 40.4766C98.2471 40.9901 97.785 41.1237 97.1348 40.9087C92.0333 39.299 87.1265 39.388 81.9429 40.6907C81.0603 40.9152 80.4678 40.7977 79.8523 40.0898C78.0199 37.9802 76.1181 35.9278 74.522 33.6317C73.2278 31.767 71.7114 30.0885 70.2923 28.3381C70.0916 28.0881 69.8914 27.8661 69.663 27.6446C72.2307 26.3396 74.9568 25.2713 77.8691 24.4252C90.3445 20.8172 102.967 23.1698 112.821 30.2338Z" fill="#2A66BC"/>
<path d="M111.38 88.6895C111.182 89.5223 108.965 90.8219 108.602 90.9962C100.099 95.0217 91.1999 96.1281 81.9616 94.3847C76.475 93.3434 71.4084 91.2551 66.8577 87.9634C65.08 86.6686 63.4267 85.2313 61.9393 83.6085C61.6389 83.2756 61.5069 82.926 61.6839 82.5436C69.8002 90.0139 80.7799 94.3606 92.6559 93.8556C99.4302 93.5693 105.787 91.7283 111.38 88.6895Z" fill="#5BB3EF"/>
<path d="M93.1532 81.2883C93.156 81.4711 92.9183 81.5591 92.8034 81.4062C92.5452 81.0726 92.2409 80.4866 91.788 80.2966C91.6606 80.2423 91.5342 80.2583 91.4083 80.3024C91.0447 80.4345 90.6672 80.5809 90.2755 80.7135C88.0796 81.5065 85.8451 81.6109 83.6261 80.8854C82.3823 80.4825 81.2246 81.1049 80.0032 81.2502C78.9783 81.3643 77.8654 81.2406 76.9161 80.777C76.4344 80.5453 75.9793 80.2147 75.6214 79.7983C75.2632 79.3678 75.0301 78.8369 74.5194 78.5494C73.9661 78.2344 73.1934 78.2884 72.53 78.1297C71.3016 77.811 70.2785 77.1234 69.4484 76.1798C68.4178 75.0001 67.376 75.8458 67.384 75.4519C67.3929 75.1142 71.3176 72.4103 71.55 72.899C71.7391 73.304 70.2709 73.8608 71.3177 75.1808C72.5077 76.6675 74.3638 76.6532 76.1139 76.1342C76.8279 75.9264 77.9322 75.4876 78.3442 74.8344C79.0306 73.741 78.4893 72.3711 77.7726 71.482C75.6366 68.8285 77.4789 66.9861 79.2466 66.706C80.8882 66.4559 84.7653 67.0857 85.9425 68.6569C86.7181 69.7139 86.5685 70.9679 85.5974 71.8406C84.5292 72.7991 83.1917 72.7071 81.9189 73.1625C81.0097 73.4858 80.6393 74.0962 80.668 75.0521C80.7014 76.3173 81.3485 77.2496 82.3162 77.9943C83.5542 78.9457 85.0089 79.3454 86.5419 79.3501C87.9062 79.3574 89.2387 79.1261 90.4092 78.4191C90.4371 78.4046 90.4648 78.3761 90.4641 78.3339C90.7182 77.4721 89.9171 76.5843 90.1661 76.3133C90.4153 76.0563 93.0106 78.3934 93.1532 81.2883ZM81.1039 78.73C81.1251 78.2797 79.925 77.0464 79.4095 76.4495C79.2809 76.3108 79.0834 76.2717 78.9159 76.3586C78.4418 76.619 77.2252 77.0735 76.8777 77.3461C74.918 78.8667 81.0046 80.5176 81.1039 78.73Z" fill="#191820"/>
<path d="M79.4095 76.4483C79.925 77.0452 81.1251 78.2785 81.1039 78.7288C81.0044 80.5024 74.918 78.8655 76.8777 77.3449C77.2252 77.0723 78.4417 76.6178 78.9159 76.3574C79.0834 76.2705 79.2809 76.3096 79.4095 76.4483Z" fill="#FED4D5"/>
<path d="M89.1017 65.5709C91.8759 65.8098 94.4058 66.629 96.4887 68.5661C96.5455 68.6074 96.6167 68.6626 96.6729 68.6617C96.8138 68.6736 96.9827 68.6851 97.066 68.6135C97.1493 68.5419 97.1603 68.3449 97.1305 68.2328C96.7895 67.0848 96.0864 66.1674 95.2714 65.2938C93.6129 63.519 90.9188 62.9977 88.8195 64.5908C88.4446 64.9059 88.609 65.5363 89.1017 65.5709Z" fill="#191820"/>
<path d="M93.222 58.1814C93.222 58.1814 93.2361 58.1812 93.222 58.1814C94.4958 58.7104 95.783 59.197 97.0291 59.7546C98.0204 60.2036 98.9713 60.7656 99.9494 61.271C100.12 61.3669 100.359 61.3913 100.44 61.151C100.48 61.052 100.394 60.8845 100.321 60.7731C98.8447 58.9252 95.956 57.6333 93.3114 57.5894C93.0021 57.5941 92.9105 58.0455 93.222 58.1814Z" fill="#191820"/>
<path d="M71.6381 63.0244C71.6948 63.0517 71.7789 63.0364 71.8488 63.0072C74.5493 62.108 77.1835 62.3912 79.8135 63.3214C79.8135 63.3214 79.8135 63.3214 79.8276 63.3212C80.2942 63.4829 80.6942 62.9705 80.4626 62.538C79.2179 60.2366 76.5498 59.5742 74.3001 60.5227C73.21 60.9753 72.1918 61.5252 71.4041 62.4374C71.321 62.523 71.2678 62.7207 71.3115 62.8185C71.3411 62.9165 71.5107 62.9701 71.6381 63.0244Z" fill="#191820"/>
<path d="M72.6504 55.6405C73.7465 55.5816 74.8417 55.4664 75.9386 55.4637C77.3167 55.4567 78.6823 55.5484 80.0472 55.5978C80.0472 55.5978 80.0472 55.5978 80.0612 55.5976C80.3848 55.6067 80.5045 55.1549 80.1932 55.0331C77.7724 53.9872 74.6078 53.9652 72.5006 55.0381C72.389 55.096 72.2503 55.2247 72.2377 55.3234C72.2277 55.5907 72.4397 55.6578 72.6504 55.6405Z" fill="#191820"/>
<path d="M103.126 44.5987C103.126 44.5987 109.629 49.5762 111.093 55.1652C111.093 55.1652 121.013 40.7532 117.874 36.0196C117.888 36.0053 114.204 33.2489 103.126 44.5987Z" fill="white"/>
<path d="M75.2888 44.2367C75.2888 44.2367 68.4703 37.0278 66.764 33.9599C65.0435 30.8922 62.6845 44.9355 67.7985 51.0454C67.7985 51.0454 70.2481 45.6919 75.2888 44.2367Z" fill="white"/>
<path d="M88.1447 41.5929C88.1447 41.5929 85.648 43.8671 86.5246 46.9336C86.5246 46.9336 90.1034 41.8442 97.1242 42.0463C97.1242 42.0463 92.3501 40.6989 88.1447 41.5929Z" fill="white"/>
<path d="M114.333 47.2409C113.01 49.0332 111.431 50.5762 109.808 52.0917C110.372 53.0816 110.824 54.1154 111.107 55.1658C111.107 55.1658 118.096 45.0177 118.482 38.9504C117.344 41.8367 116.207 44.709 114.333 47.2409Z" fill="#FED4D5"/>
<path d="M108.874 40.6301C110.588 38.6772 112.413 36.6382 115.004 35.9376C112.735 36.5489 108.955 38.6177 103.126 44.5854C103.126 44.5854 103.795 45.0955 104.765 45.9807C104.308 45.5518 107.975 41.6423 108.307 41.2716C108.501 41.0717 108.68 40.858 108.874 40.6301Z" fill="#FED4D5"/>
<path d="M68.4388 37.7333C68.5255 37.8867 68.6123 38.04 68.6988 38.1793C70.0989 40.5347 72.0557 42.5018 73.9004 44.4988C74.2008 44.8317 74.9246 44.3425 75.2746 44.2387C72.5302 41.3414 69.9384 38.3151 67.4854 35.1602C67.5857 35.2852 67.579 35.7635 67.6239 35.9456C67.6838 36.1838 67.7716 36.4074 67.8594 36.6311C68.0339 37.0082 68.2366 37.3848 68.4388 37.7333Z" fill="#FED4D5"/>
<path d="M66.0891 45.0271C65.6284 44.3309 65.2238 43.6199 64.833 42.8945C65.1457 45.8712 66.0223 48.9377 67.7984 51.0483C67.7984 51.0483 68.2476 50.071 69.1707 48.8193C68.0278 47.6555 66.9819 46.3916 66.0891 45.0271Z" fill="#FED4D5"/>
<path d="M79.0857 90.2363C82.7166 91.32 86.4944 91.8951 90.3482 91.9206C86.5857 91.4296 82.8358 90.84 79.0857 90.2363Z" fill="white"/>
<path d="M63.548 94.0874C62.9697 95.812 62.4761 97.5634 62.053 99.3278C60.3737 106.315 59.103 113.352 59.6638 120.6C60.1003 126.163 60.9959 132.309 65.2485 136.35C68.802 139.728 74.9472 141.532 79.8137 141.571C84.7506 141.608 89.0506 138.617 91.8323 134.749C95.5919 129.53 97.9416 124.08 99.6332 117.894C101.058 112.655 102.495 107.275 103.157 101.878C103.297 100.878 103.549 99.8892 103.576 98.8903L103.576 98.8762C103.594 98.215 102.94 97.7468 102.31 97.9393C96.4441 99.7024 90.4052 100.259 84.1773 99.482C77.2872 98.631 70.9952 96.4207 65.4931 92.5248C64.9956 92.1808 64.2949 92.3462 64.0362 92.8986C63.8581 93.2107 63.7095 93.6068 63.548 94.0874Z" fill="#377BF5"/>
<path d="M102.717 93.2941C102.363 93.1166 101.925 92.9968 101.418 92.9623C100.982 92.9408 100.545 92.9053 100.109 92.8839C97.698 93.4129 95.2277 93.7319 92.6839 93.8411C84.7292 94.1877 77.1912 92.348 70.6265 88.8621C69.9358 88.7602 69.259 88.6439 68.5683 88.542C68.5402 88.5424 68.3572 88.5311 68.1744 88.5339C68.0198 88.5363 67.8651 88.5387 67.7104 88.541C72.045 91.4984 76.8277 93.4083 81.9898 94.3842C89.0985 95.7382 96.0123 95.3794 102.717 93.2941Z" fill="white"/>
<path d="M66.9543 99.8028C66.5376 101.061 66.1635 102.346 65.8596 103.631C64.6298 108.741 63.6959 113.888 64.1005 119.198C64.4158 123.271 65.0753 127.776 68.1862 130.724C70.7977 133.201 75.2901 134.525 78.8485 134.541C82.4632 134.57 85.608 132.37 87.6461 129.54C90.4006 125.729 92.1255 121.723 93.3643 117.204C94.4169 113.376 95.4534 109.423 95.9416 105.478C96.0429 104.745 96.2288 104.025 96.2458 103.293C96.2458 103.293 96.2458 103.293 96.2456 103.279C96.2523 102.801 95.7827 102.442 95.3209 102.59C87.7489 104.97 71.5743 102.109 68.3765 98.9935C68.0624 98.6889 67.497 98.5007 67.3062 98.8974C67.1837 99.1664 67.0617 99.4636 66.9543 99.8028Z" fill="#FBFDFA"/>
<path d="M87.2181 110.787C87.3905 109.611 86.5772 108.518 85.4015 108.346C84.2259 108.173 83.133 108.987 82.9606 110.162C82.7882 111.338 83.6015 112.431 84.7772 112.603C85.9528 112.776 87.0457 111.962 87.2181 110.787Z" fill="#377BF5"/>
<path d="M83.4372 120.084C84.6252 120.066 85.5737 119.088 85.5555 117.9C85.5374 116.712 84.5595 115.763 83.3714 115.782C82.1833 115.8 81.2349 116.778 81.2531 117.966C81.2712 119.154 82.2491 120.102 83.4372 120.084Z" fill="#377BF5"/>
<path d="M81.869 127.9C83.0571 127.882 84.0056 126.904 83.9874 125.716C83.9692 124.528 82.9914 123.58 81.8033 123.598C80.6152 123.616 79.6668 124.594 79.685 125.782C79.7031 126.97 80.681 127.919 81.869 127.9Z" fill="#377BF5"/>
<path d="M73.2172 126.808L70.8763 126.393C69.4943 126.147 68.5884 124.839 68.8204 123.457L71.5268 108.213C71.7729 106.831 73.081 105.925 74.4628 106.157L76.8036 106.572C78.1856 106.818 79.0916 108.126 78.8596 109.508L76.1532 124.752C75.9071 126.134 74.5992 127.054 73.2172 126.808Z" fill="#377BF5"/>
<path d="M93.5384 158.057C96.1552 158.017 98.2406 155.624 98.1961 152.712C98.1516 149.8 95.9941 147.472 93.3772 147.512C90.7603 147.552 88.675 149.945 88.7195 152.857C88.764 155.769 90.9215 158.097 93.5384 158.057Z" fill="#377BF5"/>
<path d="M52.4057 138.213C54.6103 136.31 55.1633 133.337 53.6409 131.573C52.1185 129.81 49.0971 129.923 46.8925 131.826C44.6878 133.729 44.1348 136.701 45.6572 138.465C47.1796 140.229 50.201 140.116 52.4057 138.213Z" fill="#377BF5"/>
<path d="M118.967 102.628C121.717 101.67 123.499 99.6087 122.947 98.0246C122.395 96.4406 119.718 95.9334 116.968 96.8917C114.218 97.8501 112.436 99.9111 112.988 101.495C113.54 103.079 116.217 103.586 118.967 102.628Z" fill="#377BF5"/>
<path d="M52.2146 96.5047C53.0427 95.8493 52.249 93.4667 50.4418 91.1832C48.6346 88.8996 46.4981 87.5797 45.67 88.2351C44.8418 88.8905 45.6355 91.2731 47.4427 93.5567C49.2499 95.8402 51.3864 97.1601 52.2146 96.5047Z" fill="#377BF5"/>
<path d="M98.9877 76.5207C99.2313 75.5249 98.3586 74.4559 97.0384 74.133C95.7183 73.8101 94.4507 74.3556 94.2071 75.3513C93.9636 76.3471 94.8363 77.4161 96.1564 77.739C97.4766 78.0619 98.7442 77.5164 98.9877 76.5207Z" fill="#FED4D5"/>
<path d="M70.287 69.4832C70.3615 68.6633 69.5441 67.919 68.4613 67.8206C67.3785 67.7222 66.4403 68.307 66.3658 69.1269C66.2914 69.9467 67.1087 70.6911 68.1915 70.7895C69.2744 70.8879 70.2125 70.303 70.287 69.4832Z" fill="#FED4D5"/>
<path d="M103.494 31.8388C103.297 31.8418 103.113 31.7743 102.942 31.6504C98.1147 27.716 91.485 27.3392 86.7794 27.7064C81.5961 28.109 77.5247 29.4932 77.4827 29.5079C77.035 29.6554 76.5673 29.4235 76.406 28.99C76.2587 28.5562 76.4905 28.0745 76.924 27.9132C77.0918 27.8544 81.2051 26.4555 86.5989 26.0215C93.8188 25.4471 99.8327 26.9444 104.005 30.3403C104.361 30.6302 104.426 31.1636 104.122 31.5339C103.97 31.7331 103.733 31.8352 103.494 31.8388Z" fill="#5BB3EF"/>
<path d="M81.3261 68.433C81.3291 68.6299 81.0645 68.8027 80.7271 68.8078C80.3897 68.813 80.1201 68.6624 80.1169 68.4515C80.1139 68.2547 80.3785 68.0819 80.7159 68.0767C81.0534 68.0715 81.3231 68.2362 81.3261 68.433Z" fill="white"/>
<path d="M140.467 48.4304C140.465 48.3038 143.476 46.5421 143.755 46.3831C147.34 44.4579 151.704 43.8146 155.459 45.6839C156.947 46.4206 158.006 47.5998 158.676 49.1085C159.739 51.4971 160.072 53.9953 159.182 56.4841C157.712 60.6131 156.596 64.8633 154.843 68.8982C152.044 75.3258 154.238 81.7334 155.28 88.271C155.809 91.582 155.803 94.8729 154.868 98.1499C152.384 106.753 141.136 108.781 133.606 110.232C129.105 111.102 125.051 111.797 121.197 114.5C121.249 115.132 121.231 115.793 121.129 116.484C120.733 119.106 119.203 121.126 117.506 121.447C117.369 121.689 117.274 121.943 117.237 122.253C117.032 123.564 116.714 124.849 116.241 126.108C115.552 127.947 114.36 129.118 112.397 129.471C112.018 129.533 111.64 129.652 111.122 129.772C112.065 130.728 113.138 131.021 114.251 131.173C117.281 131.577 119.898 130.707 122.102 128.606C122.49 128.234 122.821 127.821 123.195 127.45C123.555 127.079 123.975 126.932 124.457 127.206C124.939 127.48 125.338 127.825 125.32 128.444C125.309 128.698 125.229 128.966 125.149 129.22C123.053 135.679 116.806 143.721 109.05 140.534C108.512 140.318 107.974 140.087 107.493 139.897C107.119 140.254 107.209 140.591 107.199 140.9C107.124 147.019 105.976 152.915 103.743 158.603C103.134 160.159 102.652 161.741 102.649 163.429C102.647 164.189 102.825 164.805 103.396 165.387C105.381 167.353 105.023 169.651 103.645 171.514C102.804 172.652 101.692 173.499 100.465 174.179C97.857 175.611 94.8 176.192 91.8424 175.914C90.2651 175.769 88.6681 175.259 87.4848 174.208C85.8312 172.757 85.2357 170.6 84.7683 168.54C84.4375 167.139 84.4158 165.719 84.1551 164.302C83.7566 162.157 82.8401 160.16 81.5059 158.436C79.7845 156.226 78.4112 153.786 77.3448 151.187C76.8189 149.901 75.9628 149.098 74.7461 148.625C73.3313 148.07 71.9024 147.515 70.4332 147.087C68.6957 146.579 67.026 145.916 65.5206 144.954C64.3987 144.24 63.2583 144.159 62.0815 144.458C59.882 145.012 57.7275 145.748 55.8629 147.057C52.4679 149.443 49.5022 152.315 47.0357 155.644C45.8921 157.194 44.4585 158.172 42.6782 158.551C38.5427 159.416 34.2371 158.357 31.168 155.38C28.513 152.819 27.9703 148.594 30.9122 146.003C31.8835 145.145 33.0432 144.649 34.2905 144.363C34.7389 144.257 35.2018 144.18 35.6505 144.089C36.015 144.013 36.1941 143.771 36.2448 143.405C36.4173 141.813 36.562 140.235 36.791 138.657C37.5136 133.485 39.4955 128.813 42.5107 124.576C43.9699 122.515 45.5289 120.536 47.4153 118.82C48.5112 117.833 49.6078 116.888 50.8906 116.165C51.4624 115.847 51.7371 115.421 51.8254 114.758C52.1136 112.447 52.4582 110.15 52.7888 107.852C52.8911 107.19 52.645 106.729 52.174 106.273C48.7622 102.964 46.0036 99.1382 43.5647 95.0689C42.0637 92.5604 40.6463 89.9944 39.9972 87.0932C39.8615 86.4905 39.6769 86.3808 38.9886 86.4335C37.9912 86.505 37.0202 86.4636 36.031 86.1552C31.8486 84.869 30.7931 80.2161 32.5732 77.0668C34.2984 74.0027 38.1698 73.3388 41.3603 74.1339C45.5108 75.1674 49.465 78.0885 52.7538 80.7103C54.0065 81.7037 55.2729 82.6688 56.5534 83.6337C56.9233 83.9093 57.3072 84.1847 57.7045 84.4177C58.2295 84.7191 58.5657 84.6296 58.8672 84.1187C59.2231 83.4804 59.5367 82.8287 59.8783 82.1766C60.0425 81.8787 60.1926 81.5811 60.3997 81.3248C53.13 74.0384 48.4499 64.1108 47.9845 52.9796C47.0003 29.9866 64.7023 9.47875 89.1577 8.48631C89.5793 8.4658 89.9871 8.45957 90.3948 8.45334C89.5541 7.73489 88.6441 7.0878 87.6509 6.51231C85.1254 5.06016 82.4129 4.25779 79.3627 4.36065C77.0837 4.31109 74.8714 4.94962 72.7642 6.02252C72.513 6.15293 72.29 6.28291 72.1096 6.44036C72.2698 6.80357 72.3745 7.20981 72.3812 7.64568C72.4069 9.33291 71.0639 10.7176 69.3767 10.7434C67.6895 10.7692 66.3048 9.42614 66.279 7.73891C66.2532 6.05168 67.5962 4.667 69.2835 4.64122C69.7615 4.63391 70.2272 4.73931 70.638 4.92992C71.0851 4.74027 71.5171 4.48052 71.9636 4.24868C76.6104 1.87126 81.4037 1.71365 86.2289 3.65101C89.0307 4.77547 91.3762 6.4132 93.3068 8.50729C111.492 9.46704 126.472 21.6141 131.758 38.058C131.912 38.0275 132.067 38.0392 132.237 38.121C132.634 38.3399 133.032 38.601 133.388 38.905C135.184 40.4527 136.507 42.3451 137.342 44.5684C137.504 45.0019 137.665 45.4214 137.881 45.7978C138.977 45.7389 139.979 46.8346 140.467 48.4304ZM155.327 61.8871C156.5 58.5643 158.451 54.6529 157.341 51.0696C155.566 45.3307 148.554 45.705 144.372 48.1175C143.187 48.7966 141.723 49.6347 140.768 50.6056C140.748 52.9827 139.666 54.9259 138.264 55.1723C138.236 55.2009 138.208 55.2154 138.18 55.2439C137.597 55.7029 137.437 56.3241 137.194 56.9326C136.179 59.5779 134.668 61.9074 132.63 63.8653C132.312 64.1655 132.021 64.5074 131.588 64.6688C128.602 73.6025 122.728 81.2304 115.072 86.4383C115.633 86.3172 116.194 86.1962 116.756 86.1876C118.106 86.1669 119.224 86.5999 119.71 88.0551C119.96 88.7826 120.045 88.7813 120.73 88.5177C121.722 88.1368 122.701 87.7281 123.678 87.2913C128.511 85.122 133.284 82.6864 138.321 81.0202C144.24 79.0734 149.246 85.4802 147.108 90.9695C146.012 93.7709 143.536 95.5947 140.512 95.5706C139.485 95.5582 138.774 95.9066 138.024 96.5228C132.829 100.821 127.449 104.869 121.432 107.816C120.302 108.368 119.205 109.341 118.787 110.458C119.621 110.741 120.293 111.462 120.715 112.44L120.729 112.426C130.392 106.048 146.805 110.705 152.596 98.5222C154.476 94.5557 153.728 89.7574 152.793 85.637C152.144 82.7779 151.72 79.8873 151.409 76.9809C151.081 73.9201 152.099 70.6277 153.14 67.8554C153.883 65.8892 154.626 63.8949 155.327 61.8871ZM140.201 93.6206C145.438 93.9765 147.45 86.6609 143.538 83.7251C140.578 81.492 136.94 83.5868 134.005 84.7849C129.211 86.7567 124.691 89.1181 119.787 91.2744C118.027 92.0467 111.558 95.7177 110.47 92.6685C110.455 92.6124 110.439 92.4439 110.41 92.4022C109.88 92.7056 109.181 92.9272 108.58 93.1896C107.085 93.8453 105.575 94.4309 104.064 94.9321C97.8649 96.9676 91.4481 97.6423 84.8399 96.8291C77.6115 95.927 71.0355 93.5382 65.345 89.2795C63.9793 88.2597 62.6824 87.1403 61.426 85.9079C61.1691 85.6587 60.9517 85.2401 60.4899 85.3878C60.1697 85.6036 60.1048 85.9562 59.9968 86.2532C59.2386 88.1774 57.4714 94.0126 57.105 93.962C56.6821 93.8981 57.0859 90.8683 57.3521 88.9656C57.4407 88.3174 57.638 87.4284 57.5585 86.8248C57.4632 86.1091 55.1689 85.0612 54.5851 84.592C53.1615 83.4605 51.7238 82.3293 50.2588 81.2547C47.0587 78.9128 41.5324 74.3563 37.2666 75.8981C34.0078 77.073 31.9632 81.3233 35.3597 83.6341C37.7897 85.2846 41.1222 85.2477 42.3895 82.5844C42.4983 82.3437 43.2599 80.6444 43.4295 80.6981C43.7686 80.8054 44.0008 82.1941 42.6562 84.3945C42.0937 85.3172 41.7097 85.956 41.9916 86.9221C42.2293 87.7482 42.481 88.5741 42.8166 89.3706C43.6202 91.3413 44.689 93.1813 45.8277 94.9922C48.0908 98.6 50.6185 102.035 53.7015 104.998C54.4864 105.745 54.808 106.542 54.6421 107.655C54.2724 110.15 54.0015 112.672 53.7586 115.179C53.6746 116.122 53.4034 116.787 52.5105 117.251C43.7059 121.802 38.8087 133.563 38.2489 142.952C38.1939 143.951 38.4078 144.145 39.296 144.286C41.8477 144.697 44.5994 147.144 44.4218 147.485C44.2028 147.882 38.6473 146.012 36.8326 145.983C35.2713 145.965 33.7859 146.311 32.4918 147.217C29.2774 149.46 31.2915 153.339 33.9197 155.071C38.0395 157.778 43.4793 157.597 46.4101 153.361C47.8138 151.343 49.6731 149.697 51.4616 148.01C54.2345 145.408 57.4417 143.615 61.1116 142.645C61.4337 142.556 61.7558 142.466 61.8486 142.099C61.4569 141.318 60.6781 138.208 60.9993 138.062C61.3344 137.902 64.3215 141.949 65.6699 142.758C69.4313 145.021 74.0512 145.485 77.5803 148.188C78.121 148.601 78.5644 149.087 78.7854 149.744C79.39 151.577 80.344 153.264 81.3674 154.894C82.6934 156.998 84.1729 159.028 85.1783 161.319C85.6738 162.451 86.1004 163.682 86.2457 164.903C86.6643 168.371 87.2268 172.975 91.4024 173.811C93.3914 174.203 95.5245 173.903 97.4278 173.297C100.017 172.47 105.424 168.309 101.043 165.999C100.277 165.589 99.4313 165.433 98.5712 165.292C94.6654 164.62 89.5115 166.949 89.2944 166.544C89.0775 166.154 92.9666 162.972 99.5693 163.42C99.8931 163.443 100.191 163.635 100.582 163.461C100.637 163.319 100.761 163.149 100.772 162.966C100.909 160.882 101.483 158.918 102.241 156.98C104.461 151.293 105.767 144.719 105.069 138.612C104.972 137.798 105.199 137.035 105.497 136.285C106.257 134.431 106.79 132.51 107.196 130.563C108.076 126.458 108.617 122.315 109.13 118.158C109.294 116.904 109.401 115.651 109.48 114.384C109.527 113.75 109.271 113.571 108.611 113.637C107.081 113.801 105.761 113.934 105.477 113.77C105.094 113.551 119.072 107.037 122.558 105.085C126.95 102.627 130.841 99.5437 134.888 96.5707C135.625 96.025 136.39 95.4789 136.997 94.668C136.526 94.2393 136.078 93.4726 135.775 92.9709C133.451 89.0546 134.387 85.8479 134.505 86.1977C135.23 88.5914 137.991 93.4715 140.201 93.6206ZM136.346 52.0514C136.785 47.6709 135.615 43.8354 132.502 40.7327C133.206 43.5487 133.63 46.4675 133.746 49.4612C133.906 53.4388 133.515 57.2982 132.643 60.9821C134.727 58.4188 136.004 55.4459 136.346 52.0514ZM131.796 52.5288C131.91 47.0844 131.14 41.7942 129.178 36.691C127.303 31.7974 124.606 27.4086 121.045 23.5393C114.166 16.0501 104.829 11.5096 94.9689 10.5211C95.5726 11.3698 96.1351 12.2894 96.642 13.252C96.8302 13.6007 96.9906 13.978 97.0808 14.3563C97.1857 14.7766 96.9942 15.1311 96.618 15.3619C96.2001 15.6214 95.7902 15.4871 95.5462 15.1673C95.1874 14.6946 94.9121 14.1644 94.6227 13.6344C93.9577 12.4492 93.1955 11.3498 92.3364 10.3504C87.4959 10.1712 82.5561 10.8655 77.7568 12.4717C70.1874 15.0204 63.8979 19.4199 58.8736 25.6284C55.2021 30.1707 51.9821 36.647 51.6263 40.0558C51.738 39.9978 51.8781 39.9676 51.961 39.8678C52.3065 39.4688 52.6518 39.0557 52.983 38.6428C55.8001 35.2526 58.9744 32.2226 62.578 29.6783C71.6914 23.2527 81.7258 20.0335 92.9481 20.9309C100.045 21.4975 106.59 23.732 112.529 27.6635C121.281 33.4505 127.403 42.0342 130.648 51.9556C130.87 52.6414 131.091 53.313 131.328 54.0688C131.953 53.5952 131.776 53.0213 131.796 52.5288ZM130.165 62.6372C130.487 61.6197 130.654 60.5906 130.468 59.5105C129.327 52.9462 127.082 46.8207 123.411 41.2795C123.348 43.6009 122.947 45.8853 122.335 48.1449C121.045 53.0024 118.934 57.5069 116.327 61.7798C116.011 62.2909 115.724 62.8157 115.352 63.2855C114.786 63.9832 114.782 64.6865 115.048 65.5262C115.89 68.1432 116.212 70.8385 116.226 73.5807C116.257 77.4196 115.483 81.102 114.174 84.68C121.76 79.5435 127.104 72.205 130.165 62.6372ZM121.458 41.3937C121.527 40.3941 121.498 39.4101 121.371 38.4417C119.449 35.9818 117.306 33.7925 114.984 31.8732C114.605 31.893 114.212 31.9412 113.805 32.0177C111.954 32.3695 110.249 33.0987 108.633 34.0516C106.333 35.4087 104.285 37.5777 102.386 39.449C101.624 40.1919 100.905 40.9764 100.186 41.7609C98.8855 43.1871 98.936 43.7348 96.5026 42.7876C91.8904 40.9876 87.1982 41.3124 82.4922 42.5797C82.296 42.6249 82.0993 42.642 81.9033 42.7012C80.5185 43.1865 79.5268 42.7094 78.5961 41.6267C76.2481 38.9061 73.9003 36.1996 71.8162 33.264C70.7675 31.8174 69.5933 30.4431 68.3639 29.1399C68.1781 28.9458 68.0066 28.7656 67.8355 28.6135C65.3815 30.0011 63.0857 31.6113 60.9334 33.4162C60.6938 34.3059 60.5674 35.236 60.4977 36.1934C60.2933 39.3889 60.595 42.5627 61.1917 45.7179C61.9116 49.5743 62.5614 53.446 63.8418 57.1673C64.1067 57.9367 63.9889 58.5151 63.3655 59.1294C62.1601 60.3151 61.4662 61.8446 60.9138 63.4281C59.2144 68.1794 58.951 73.0354 60.0669 77.9546C60.082 78.0247 60.0974 78.1089 60.1266 78.1787C65.221 83.9232 71.8241 88.0836 79.0718 90.2511C82.6886 91.335 86.4805 91.9099 90.3343 91.9354C91.0797 91.9381 91.8249 91.9267 92.5697 91.8872C96.2381 91.7468 99.8581 91.1992 103.328 90.0071C106.322 88.9769 109.101 87.739 111.652 86.2656C111.773 85.8559 111.921 85.4458 112.07 85.0357C113.597 81.0183 114.378 76.8717 114.213 72.5567C114.117 69.9423 113.685 67.4034 112.747 64.9566C112.528 64.3974 112.563 63.9328 112.879 63.4498C113.167 63.0094 113.47 62.5689 113.773 62.1283C116.837 57.4123 119.236 52.3972 120.6 46.9197C121.065 45.0984 121.318 43.2522 121.458 41.3937ZM114.608 138.874C117.702 137.941 120.763 134.857 121.933 131.407C119.882 132.451 117.897 133.227 115.647 133.247C113.299 133.269 111.274 132.4 109.358 131.234C109.206 131.405 109.08 131.477 109.054 131.576C108.544 133.215 108.049 134.868 107.554 136.521C107.394 137.058 107.61 137.406 108.022 137.709C110.027 139.141 112.228 139.586 114.608 138.874ZM117.636 89.465C117.993 88.8689 117.659 88.1989 116.983 88.1671C115.759 88.1155 114.64 88.5404 113.551 89.0352C113.383 89.1081 113.232 89.3073 113.178 89.4769C113.019 90.1121 112.775 90.7347 113.027 91.5324C114.554 91.1857 115.879 90.4482 117.263 89.8926C117.431 89.8338 117.54 89.6212 117.636 89.465ZM116.241 115.082C116.43 113.645 116.521 112.195 116.691 110.462C114.944 111.164 113.547 111.748 112.12 112.29C111.449 112.539 111.273 112.992 111.269 113.667C111.261 117.732 110.76 121.747 110.047 125.724C109.541 128.502 110.221 127.915 112.059 127.606C113.139 127.421 113.847 126.819 114.239 125.801C114.714 124.626 115.075 123.425 115.253 122.171C115.582 119.817 115.94 117.449 116.241 115.082ZM109.031 31.6125C110.245 31.0033 111.504 30.52 112.821 30.2326C102.953 23.1688 90.3306 20.8162 77.8691 24.424C74.9569 25.2701 72.2308 26.3384 69.663 27.6434C69.8774 27.8651 70.0917 28.0869 70.2924 28.3369C71.7114 30.0873 73.2278 31.7658 74.522 33.6305C76.1182 35.9266 78.02 37.979 79.8524 40.0886C80.4679 40.7964 81.0604 40.914 81.9429 40.6895C87.1265 39.3868 92.0474 39.2976 97.1349 40.9074C97.7849 41.1085 98.2471 40.9889 98.7175 40.4754C99.7966 39.3057 100.904 38.1497 102.068 37.049C104.162 35.0762 106.463 32.9034 109.031 31.6125ZM108.617 90.9951C108.98 90.8208 111.196 89.5212 111.394 88.6884C107.893 90.5842 104.104 92.0204 100.095 92.8832C97.684 93.4123 95.2136 93.7313 92.6698 93.8405C84.7151 94.1871 77.1771 92.3474 70.6122 88.8474C67.3654 87.125 64.3794 84.9908 61.6976 82.5144C61.5206 82.8968 61.6526 83.2464 61.953 83.5793C63.4404 85.202 65.0799 86.6537 66.8714 87.9342C67.1416 88.127 67.426 88.3336 67.71 88.5121C72.0446 91.4695 76.8272 93.3794 81.9894 94.3553C89.1119 95.695 96.0259 95.3503 102.716 93.2651C104.705 92.6862 106.662 91.911 108.617 90.9951ZM61.5648 58.1725C61.9375 57.7167 62.001 57.2657 61.8094 56.6921C60.164 52.0903 59.4156 47.292 58.7375 42.4926C58.4068 40.1772 58.3011 37.8583 58.5749 35.5337C55.6644 38.3346 53.0692 41.5245 50.7467 45.0758C50.3757 45.644 50.1881 46.2516 50.114 46.9278C49.647 51.3369 49.8825 55.707 50.8624 60.0095C52.1436 65.6294 54.4849 70.6706 57.6168 74.9965C57.4885 73.9578 57.4023 72.9184 57.4283 71.8632C57.523 68.8522 57.9702 65.9061 58.9675 63.0641C59.5735 61.3109 60.3918 59.6389 61.5648 58.1725Z" fill="#191820"/>
<path d="M132.502 40.7318C135.629 43.8342 136.785 47.67 136.346 52.0505C136.004 55.445 134.727 58.4179 132.643 60.9811C133.515 57.2972 133.906 53.4379 133.746 49.4603C133.63 46.4665 133.192 43.534 132.502 40.7318Z" fill="#C7C8C2"/>
<path d="M132.474 65.4083C133.273 63.6134 133.076 61.7819 132.033 61.3175C130.99 60.853 129.497 61.9316 128.697 63.7266C127.898 65.5215 128.096 67.353 129.139 67.8174C130.181 68.2818 131.675 67.2032 132.474 65.4083Z" fill="#909090"/>
<path d="M51.1765 46.4346C51.3543 44.4778 50.5768 42.8078 49.4398 42.7044C48.3029 42.6011 47.2371 44.1037 47.0593 46.0604C46.8814 48.0172 47.659 49.6873 48.7959 49.7906C49.9329 49.8939 50.9987 48.3914 51.1765 46.4346Z" fill="#909090"/>
<path d="M33.8482 85.0352C36.6179 85.907 40.6383 85.7894 42.2349 83.5148C43.0058 82.4201 43.5623 81.1037 43.3731 79.7706C43.0249 77.2304 40.8346 76.5466 38.5437 76.6379C31.0099 76.9218 33.3959 84.8874 33.8482 85.0352Z" fill="white"/>
<path d="M134.546 86.1545C134.591 89.0649 136.083 92.8393 138.978 93.6389C140.376 94.0254 141.911 94.1425 143.224 93.5318C145.724 92.3967 145.689 90.1048 144.812 87.9665C141.948 80.9082 134.539 85.6905 134.546 86.1545Z" fill="white"/>
<path d="M140.467 48.4304C140.465 48.3038 143.476 46.5421 143.755 46.3831C147.34 44.4579 151.704 43.8146 155.459 45.6839C156.947 46.4206 158.006 47.5998 158.676 49.1085C159.739 51.4971 160.072 53.9953 159.182 56.4841C157.712 60.6131 156.596 64.8633 154.843 68.8982C152.044 75.3258 154.238 81.7334 155.28 88.271C155.809 91.582 155.803 94.8729 154.868 98.1499C152.384 106.753 141.136 108.781 133.606 110.232C129.105 111.102 125.051 111.797 121.197 114.5C121.249 115.132 121.231 115.793 121.129 116.484C120.733 119.106 119.203 121.126 117.506 121.447C117.369 121.689 117.274 121.943 117.237 122.253C117.032 123.564 116.714 124.849 116.241 126.108C115.552 127.947 114.36 129.118 112.397 129.471C112.018 129.533 111.64 129.652 111.122 129.772C112.065 130.728 113.138 131.021 114.251 131.173C117.281 131.577 119.898 130.707 122.102 128.606C122.49 128.234 122.821 127.821 123.195 127.45C123.555 127.079 123.975 126.932 124.457 127.206C124.939 127.48 125.338 127.825 125.32 128.444C125.309 128.698 125.229 128.966 125.149 129.22C123.053 135.679 116.806 143.721 109.05 140.534C108.512 140.318 107.974 140.087 107.493 139.897C107.119 140.254 107.209 140.591 107.199 140.9C107.124 147.019 105.976 152.915 103.743 158.603C103.134 160.159 102.652 161.741 102.649 163.429C102.647 164.189 102.825 164.805 103.396 165.387C105.381 167.353 105.023 169.651 103.645 171.514C102.804 172.652 101.692 173.499 100.465 174.179C97.857 175.611 94.8 176.192 91.8424 175.914C90.2651 175.769 88.6681 175.259 87.4848 174.208C85.8312 172.757 85.2357 170.6 84.7683 168.54C84.4375 167.139 84.4158 165.719 84.1551 164.302C83.7566 162.157 82.8401 160.16 81.5059 158.436C79.7845 156.226 78.4112 153.786 77.3448 151.187C76.8189 149.901 75.9628 149.098 74.7461 148.625C73.3313 148.07 71.9024 147.515 70.4332 147.087C68.6957 146.579 67.026 145.916 65.5206 144.954C64.3987 144.24 63.2583 144.159 62.0815 144.458C59.882 145.012 57.7275 145.748 55.8629 147.057C52.4679 149.443 49.5022 152.315 47.0357 155.644C45.8921 157.194 44.4585 158.172 42.6782 158.551C38.5427 159.416 34.2371 158.357 31.168 155.38C28.513 152.819 27.9703 148.594 30.9122 146.003C31.8835 145.145 33.0432 144.649 34.2905 144.363C34.7389 144.257 35.2018 144.18 35.6505 144.089C36.015 144.013 36.1941 143.771 36.2448 143.405C36.4173 141.813 36.562 140.235 36.791 138.657C37.5136 133.485 39.4955 128.813 42.5107 124.576C43.9699 122.515 45.5289 120.536 47.4153 118.82C48.5112 117.833 49.6078 116.888 50.8906 116.165C51.4624 115.847 51.7371 115.421 51.8254 114.758C52.1136 112.447 52.4582 110.15 52.7888 107.852C52.8911 107.19 52.645 106.729 52.174 106.273C48.7622 102.964 46.0036 99.1382 43.5647 95.0689C42.0637 92.5604 40.6463 89.9944 39.9972 87.0932C39.8615 86.4905 39.6769 86.3808 38.9886 86.4335C37.9912 86.505 37.0202 86.4636 36.031 86.1552C31.8486 84.869 30.7931 80.2161 32.5732 77.0668C34.2984 74.0027 38.1698 73.3388 41.3603 74.1339C45.5108 75.1674 49.465 78.0885 52.7538 80.7103C54.0065 81.7037 55.2729 82.6688 56.5534 83.6337C56.9233 83.9093 57.3072 84.1847 57.7045 84.4177C58.2295 84.7191 58.5657 84.6296 58.8672 84.1187C59.2231 83.4804 59.5367 82.8287 59.8783 82.1766C60.0425 81.8787 60.1926 81.5811 60.3997 81.3248C53.13 74.0384 48.4499 64.1108 47.9845 52.9796C47.0003 29.9866 64.7023 9.47875 89.1577 8.48631C89.5793 8.4658 89.9871 8.45957 90.3948 8.45334C89.5541 7.73489 88.6441 7.0878 87.6509 6.51231C85.1254 5.06016 82.4129 4.25779 79.3627 4.36065C77.0837 4.31109 74.8714 4.94962 72.7642 6.02252C72.513 6.15293 72.29 6.28291 72.1096 6.44036C72.2698 6.80357 72.3745 7.20981 72.3812 7.64568C72.4069 9.33291 71.0639 10.7176 69.3767 10.7434C67.6895 10.7692 66.3048 9.42614 66.279 7.73891C66.2532 6.05168 67.5962 4.667 69.2835 4.64122C69.7615 4.63391 70.2272 4.73931 70.638 4.92992C71.0851 4.74027 71.5171 4.48052 71.9636 4.24868C76.6104 1.87126 81.4037 1.71365 86.2289 3.65101C89.0307 4.77547 91.3762 6.4132 93.3068 8.50729C111.492 9.46704 126.472 21.6141 131.758 38.058C131.912 38.0275 132.067 38.0392 132.237 38.121C132.634 38.3399 133.032 38.601 133.388 38.905C135.184 40.4527 136.507 42.3451 137.342 44.5684C137.504 45.0019 137.665 45.4214 137.881 45.7978C138.977 45.7389 139.979 46.8346 140.467 48.4304ZM155.327 61.8871C156.5 58.5643 158.451 54.6529 157.341 51.0696C155.566 45.3307 148.554 45.705 144.372 48.1175C143.187 48.7966 141.723 49.6347 140.768 50.6056C140.748 52.9827 139.666 54.9259 138.264 55.1723C138.236 55.2009 138.208 55.2154 138.18 55.2439C137.597 55.7029 137.437 56.3241 137.194 56.9326C136.179 59.5779 134.668 61.9074 132.63 63.8653C132.312 64.1655 132.021 64.5074 131.588 64.6688C128.602 73.6025 122.728 81.2304 115.072 86.4383C115.633 86.3172 116.194 86.1962 116.756 86.1876C118.106 86.1669 119.224 86.5999 119.71 88.0551C119.96 88.7826 120.045 88.7813 120.73 88.5177C121.722 88.1368 122.701 87.7281 123.678 87.2913C128.511 85.122 133.284 82.6864 138.321 81.0202C144.24 79.0734 149.246 85.4802 147.108 90.9695C146.012 93.7709 143.536 95.5947 140.512 95.5706C139.485 95.5582 138.774 95.9066 138.024 96.5228C132.829 100.821 127.449 104.869 121.432 107.816C120.302 108.368 119.205 109.341 118.787 110.458C119.621 110.741 120.293 111.462 120.715 112.44L120.729 112.426C130.392 106.048 146.805 110.705 152.596 98.5222C154.476 94.5557 153.728 89.7574 152.793 85.637C152.144 82.7779 151.72 79.8873 151.409 76.9809C151.081 73.9201 152.099 70.6277 153.14 67.8554C153.883 65.8892 154.626 63.8949 155.327 61.8871ZM140.201 93.6206C145.438 93.9765 147.45 86.6609 143.538 83.7251C140.578 81.492 136.94 83.5868 134.005 84.7849C129.211 86.7567 124.691 89.1181 119.787 91.2744C118.027 92.0467 111.558 95.7177 110.47 92.6685C110.455 92.6124 110.439 92.4439 110.41 92.4022C109.88 92.7056 109.181 92.9272 108.58 93.1896C107.085 93.8453 105.575 94.4309 104.064 94.9321C97.8649 96.9676 91.4481 97.6423 84.8399 96.8291C77.6115 95.927 71.0355 93.5382 65.345 89.2795C63.9793 88.2597 62.6824 87.1403 61.426 85.9079C61.1691 85.6587 60.9517 85.2401 60.4899 85.3878C60.1697 85.6036 60.1048 85.9562 59.9968 86.2532C59.2386 88.1774 57.4714 94.0126 57.105 93.962C56.6821 93.8981 57.0859 90.8683 57.3521 88.9656C57.4407 88.3174 57.638 87.4284 57.5585 86.8248C57.4632 86.1091 55.1689 85.0612 54.5851 84.592C53.1615 83.4605 51.7238 82.3293 50.2588 81.2547C47.0587 78.9128 41.5324 74.3563 37.2666 75.8981C34.0078 77.073 31.9632 81.3233 35.3597 83.6341C37.7897 85.2846 41.1222 85.2477 42.3895 82.5844C42.4983 82.3437 43.2599 80.6444 43.4295 80.6981C43.7686 80.8054 44.0008 82.1941 42.6562 84.3945C42.0937 85.3172 41.7097 85.956 41.9916 86.9221C42.2293 87.7482 42.481 88.5741 42.8166 89.3706C43.6202 91.3413 44.689 93.1813 45.8277 94.9922C48.0908 98.6 50.6185 102.035 53.7015 104.998C54.4864 105.745 54.808 106.542 54.6421 107.655C54.2724 110.15 54.0015 112.672 53.7586 115.179C53.6746 116.122 53.4034 116.787 52.5105 117.251C43.7059 121.802 38.8087 133.563 38.2489 142.952C38.1939 143.951 38.4078 144.145 39.296 144.286C41.8477 144.697 44.5994 147.144 44.4218 147.485C44.2028 147.882 38.6473 146.012 36.8326 145.983C35.2713 145.965 33.7859 146.311 32.4918 147.217C29.2774 149.46 31.2915 153.339 33.9197 155.071C38.0395 157.778 43.4793 157.597 46.4101 153.361C47.8138 151.343 49.6731 149.697 51.4616 148.01C54.2345 145.408 57.4417 143.615 61.1116 142.645C61.4337 142.556 61.7558 142.466 61.8486 142.099C61.4569 141.318 60.6781 138.208 60.9993 138.062C61.3344 137.902 64.3215 141.949 65.6699 142.758C69.4313 145.021 74.0512 145.485 77.5803 148.188C78.121 148.601 78.5644 149.087 78.7854 149.744C79.39 151.577 80.344 153.264 81.3674 154.894C82.6934 156.998 84.1729 159.028 85.1783 161.319C85.6738 162.451 86.1004 163.682 86.2457 164.903C86.6643 168.371 87.2268 172.975 91.4024 173.811C93.3914 174.203 95.5245 173.903 97.4278 173.297C100.017 172.47 105.424 168.309 101.043 165.999C100.277 165.589 99.4313 165.433 98.5712 165.292C94.6654 164.62 89.5115 166.949 89.2944 166.544C89.0775 166.154 92.9666 162.972 99.5693 163.42C99.8931 163.443 100.191 163.635 100.582 163.461C100.637 163.319 100.761 163.149 100.772 162.966C100.909 160.882 101.483 158.918 102.241 156.98C104.461 151.293 105.767 144.719 105.069 138.612C104.972 137.798 105.199 137.035 105.497 136.285C106.257 134.431 106.79 132.51 107.196 130.563C108.076 126.458 108.617 122.315 109.13 118.158C109.294 116.904 109.401 115.651 109.48 114.384C109.527 113.75 109.271 113.571 108.611 113.637C107.081 113.801 105.761 113.934 105.477 113.77C105.094 113.551 119.072 107.037 122.558 105.085C126.95 102.627 130.841 99.5437 134.888 96.5707C135.625 96.025 136.39 95.4789 136.997 94.668C136.526 94.2393 136.078 93.4726 135.775 92.9709C133.451 89.0546 134.387 85.8479 134.505 86.1977C135.23 88.5914 137.991 93.4715 140.201 93.6206ZM136.346 52.0514C136.785 47.6709 135.615 43.8354 132.502 40.7327C133.206 43.5487 133.63 46.4675 133.746 49.4612C133.906 53.4388 133.515 57.2982 132.643 60.9821C134.727 58.4188 136.004 55.4459 136.346 52.0514ZM131.796 52.5288C131.91 47.0844 131.14 41.7942 129.178 36.691C127.303 31.7974 124.606 27.4086 121.045 23.5393C114.166 16.0501 104.829 11.5096 94.9689 10.5211C95.5726 11.3698 96.1351 12.2894 96.642 13.252C96.8302 13.6007 96.9906 13.978 97.0808 14.3563C97.1857 14.7766 96.9942 15.1311 96.618 15.3619C96.2001 15.6214 95.7902 15.4871 95.5462 15.1673C95.1874 14.6946 94.9121 14.1644 94.6227 13.6344C93.9577 12.4492 93.1955 11.3498 92.3364 10.3504C87.4959 10.1712 82.5561 10.8655 77.7568 12.4717C70.1874 15.0204 63.8979 19.4199 58.8736 25.6284C55.2021 30.1707 51.9821 36.647 51.6263 40.0558C51.738 39.9978 51.8781 39.9676 51.961 39.8678C52.3065 39.4688 52.6518 39.0557 52.983 38.6428C55.8001 35.2526 58.9744 32.2226 62.578 29.6783C71.6914 23.2527 81.7258 20.0335 92.9481 20.9309C100.045 21.4975 106.59 23.732 112.529 27.6635C121.281 33.4505 127.403 42.0342 130.648 51.9556C130.87 52.6414 131.091 53.313 131.328 54.0688C131.953 53.5952 131.776 53.0213 131.796 52.5288ZM130.165 62.6372C130.487 61.6197 130.654 60.5906 130.468 59.5105C129.327 52.9462 127.082 46.8207 123.411 41.2795C123.348 43.6009 122.947 45.8853 122.335 48.1449C121.045 53.0024 118.934 57.5069 116.327 61.7798C116.011 62.2909 115.724 62.8157 115.352 63.2855C114.786 63.9832 114.782 64.6865 115.048 65.5262C115.89 68.1432 116.212 70.8385 116.226 73.5807C116.257 77.4196 115.483 81.102 114.174 84.68C121.76 79.5435 127.104 72.205 130.165 62.6372ZM121.458 41.3937C121.527 40.3941 121.498 39.4101 121.371 38.4417C119.449 35.9818 117.306 33.7925 114.984 31.8732C114.605 31.893 114.212 31.9412 113.805 32.0177C111.954 32.3695 110.249 33.0987 108.633 34.0516C106.333 35.4087 104.285 37.5777 102.386 39.449C101.624 40.1919 100.905 40.9764 100.186 41.7609C98.8855 43.1871 98.936 43.7348 96.5026 42.7876C91.8904 40.9876 87.1982 41.3124 82.4922 42.5797C82.296 42.6249 82.0993 42.642 81.9033 42.7012C80.5185 43.1865 79.5268 42.7094 78.5961 41.6267C76.2481 38.9061 73.9003 36.1996 71.8162 33.264C70.7675 31.8174 69.5933 30.4431 68.3639 29.1399C68.1781 28.9458 68.0066 28.7656 67.8355 28.6135C65.3815 30.0011 63.0857 31.6113 60.9334 33.4162C60.6938 34.3059 60.5674 35.236 60.4977 36.1934C60.2933 39.3889 60.595 42.5627 61.1917 45.7179C61.9116 49.5743 62.5614 53.446 63.8418 57.1673C64.1067 57.9367 63.9889 58.5151 63.3655 59.1294C62.1601 60.3151 61.4662 61.8446 60.9138 63.4281C59.2144 68.1794 58.951 73.0354 60.0669 77.9546C60.082 78.0247 60.0974 78.1089 60.1266 78.1787C65.221 83.9232 71.8241 88.0836 79.0718 90.2511C82.6886 91.335 86.4805 91.9099 90.3343 91.9354C91.0797 91.9381 91.8249 91.9267 92.5697 91.8872C96.2381 91.7468 99.8581 91.1992 103.328 90.0071C106.322 88.9769 109.101 87.739 111.652 86.2656C111.773 85.8559 111.921 85.4458 112.07 85.0357C113.597 81.0183 114.378 76.8717 114.213 72.5567C114.117 69.9423 113.685 67.4034 112.747 64.9566C112.528 64.3974 112.563 63.9328 112.879 63.4498C113.167 63.0094 113.47 62.5689 113.773 62.1283C116.837 57.4123 119.236 52.3972 120.6 46.9197C121.065 45.0984 121.318 43.2522 121.458 41.3937ZM114.608 138.874C117.702 137.941 120.763 134.857 121.933 131.407C119.882 132.451 117.897 133.227 115.647 133.247C113.299 133.269 111.274 132.4 109.358 131.234C109.206 131.405 109.08 131.477 109.054 131.576C108.544 133.215 108.049 134.868 107.554 136.521C107.394 137.058 107.61 137.406 108.022 137.709C110.027 139.141 112.228 139.586 114.608 138.874ZM117.636 89.465C117.993 88.8689 117.659 88.1989 116.983 88.1671C115.759 88.1155 114.64 88.5404 113.551 89.0352C113.383 89.1081 113.232 89.3073 113.178 89.4769C113.019 90.1121 112.775 90.7347 113.027 91.5324C114.554 91.1857 115.879 90.4482 117.263 89.8926C117.431 89.8338 117.54 89.6212 117.636 89.465ZM116.241 115.082C116.43 113.645 116.521 112.195 116.691 110.462C114.944 111.164 113.547 111.748 112.12 112.29C111.449 112.539 111.273 112.992 111.269 113.667C111.261 117.732 110.76 121.747 110.047 125.724C109.541 128.502 110.221 127.915 112.059 127.606C113.139 127.421 113.847 126.819 114.239 125.801C114.714 124.626 115.075 123.425 115.253 122.171C115.582 119.817 115.94 117.449 116.241 115.082ZM109.031 31.6125C110.245 31.0033 111.504 30.52 112.821 30.2326C102.953 23.1688 90.3306 20.8162 77.8691 24.424C74.9569 25.2701 72.2308 26.3384 69.663 27.6434C69.8774 27.8651 70.0917 28.0869 70.2924 28.3369C71.7114 30.0873 73.2278 31.7658 74.522 33.6305C76.1182 35.9266 78.02 37.979 79.8524 40.0886C80.4679 40.7964 81.0604 40.914 81.9429 40.6895C87.1265 39.3868 92.0474 39.2976 97.1349 40.9074C97.7849 41.1085 98.2471 40.9889 98.7175 40.4754C99.7966 39.3057 100.904 38.1497 102.068 37.049C104.162 35.0762 106.463 32.9034 109.031 31.6125ZM108.617 90.9951C108.98 90.8208 111.196 89.5212 111.394 88.6884C107.893 90.5842 104.104 92.0204 100.095 92.8832C97.684 93.4123 95.2136 93.7313 92.6698 93.8405C84.7151 94.1871 77.1771 92.3474 70.6122 88.8474C67.3654 87.125 64.3794 84.9908 61.6976 82.5144C61.5206 82.8968 61.6526 83.2464 61.953 83.5793C63.4404 85.202 65.0799 86.6537 66.8714 87.9342C67.1416 88.127 67.426 88.3336 67.71 88.5121C72.0446 91.4695 76.8272 93.3794 81.9894 94.3553C89.1119 95.695 96.0259 95.3503 102.716 93.2651C104.705 92.6862 106.662 91.911 108.617 90.9951ZM61.5648 58.1725C61.9375 57.7167 62.001 57.2657 61.8094 56.6921C60.164 52.0903 59.4156 47.292 58.7375 42.4926C58.4068 40.1772 58.3011 37.8583 58.5749 35.5337C55.6644 38.3346 53.0692 41.5245 50.7467 45.0758C50.3757 45.644 50.1881 46.2516 50.114 46.9278C49.647 51.3369 49.8825 55.707 50.8624 60.0095C52.1436 65.6294 54.4849 70.6706 57.6168 74.9965C57.4885 73.9578 57.4023 72.9184 57.4283 71.8632C57.523 68.8522 57.9702 65.9061 58.9675 63.0641C59.5735 61.3109 60.3918 59.6389 61.5648 58.1725Z" fill="#191820"/>
<path d="M132.502 40.7318C135.629 43.8342 136.785 47.67 136.346 52.0505C136.004 55.445 134.727 58.4179 132.643 60.9811C133.515 57.2972 133.906 53.4379 133.746 49.4603C133.63 46.4665 133.192 43.534 132.502 40.7318Z" fill="#C7C8C2"/>
<path d="M167.446 76.3846C167.533 76.538 167.409 76.7087 167.284 76.8371C166.661 77.4655 165.825 77.9564 165.044 78.3762C163.844 79.0133 162.543 79.4551 161.21 79.6864C158.292 80.167 155.377 79.9162 152.475 79.5527C149.966 79.2253 147.498 78.7146 144.977 78.514C143.668 78.4074 142.348 78.5542 141.102 78.9248L140.929 67.6344C143.1 66.0965 146.028 65.3767 148.503 65.3389C150.963 65.3013 153.414 65.5451 155.839 65.9581C158.603 66.4362 161.363 66.6894 164.154 66.1404C165.331 65.9115 167.901 65.6191 168.7 65.4662C166.766 66.874 164.681 68.4529 162.488 69.4286C161.762 69.7491 161.006 69.9997 160.206 70.0823C159.813 70.1305 159.405 70.1789 159.042 70.311C158.398 70.5177 158.156 71.2106 158.529 71.7533C158.745 72.0735 159.017 72.3787 159.303 72.6556C160.915 74.178 162.915 75.3147 165.089 75.8019C165.808 75.9596 166.61 75.9333 167.276 76.2607C167.346 76.2877 167.417 76.3288 167.446 76.3846Z" fill="white"/>
<path d="M144.98 72.2551C145.045 70.0884 145.237 67.9196 145.19 65.7546C143.663 66.1295 142.167 66.743 140.915 67.62L141.087 78.9104C142.333 78.5398 143.653 78.3931 144.963 78.4996C144.991 78.4992 145.005 78.499 145.033 78.4985C144.973 76.4181 144.913 74.3376 144.98 72.2551Z" fill="#377BF5"/>
<path d="M162.991 69.2369C165.03 68.2494 166.99 66.785 168.812 65.4493C168.013 65.6021 165.443 65.8804 164.266 66.1235C163.943 66.1846 163.635 66.2315 163.312 66.2787C163.355 67.2765 163.145 68.2642 162.991 69.2369Z" fill="#377BF5"/>
<path d="M167.374 76.2582C166.708 75.9449 165.907 75.9572 165.187 75.7994C164.298 75.6021 163.435 75.2918 162.614 74.8965C162.616 75.0652 162.619 75.248 162.622 75.4167C162.656 76.71 162.732 78.0168 162.864 79.3086C163.648 79.0716 164.417 78.7505 165.142 78.3737C165.923 77.954 166.746 77.4773 167.383 76.8347C167.508 76.7203 167.617 76.5358 167.545 76.3822C167.502 76.3266 167.431 76.2855 167.374 76.2582Z" fill="#377BF5"/>
<path d="M68.928 8.97782C68.8181 9.14826 68.5087 9.15298 68.2247 8.9745C67.9407 8.79601 67.7961 8.53101 67.906 8.36057C68.0159 8.19013 68.3252 8.1854 68.6092 8.36389C68.893 8.52832 69.0379 8.80737 68.928 8.97782Z" fill="white"/>
<ellipse cx="91.5" cy="185" rx="57.5" ry="4" fill="#95A1B3" fill-opacity="0.25"/>
<path d="M7.54894 18.927C7.8483 18.0057 9.1517 18.0057 9.45106 18.9271L10.1839 21.1824C10.3177 21.5944 10.7017 21.8734 11.1349 21.8734L13.5063 21.8734C14.475 21.8734 14.8778 23.113 14.0941 23.6824L12.1756 25.0762C11.8251 25.3309 11.6784 25.7822 11.8123 26.1943L12.5451 28.4496C12.8445 29.3709 11.79 30.137 11.0063 29.5676L9.08778 28.1738C8.7373 27.9191 8.2627 27.9191 7.91221 28.1738L5.99372 29.5676C5.21001 30.137 4.15553 29.3709 4.45488 28.4496L5.18768 26.1943C5.32155 25.7822 5.1749 25.3309 4.82441 25.0762L2.90592 23.6824C2.1222 23.113 2.52498 21.8734 3.4937 21.8734L5.86509 21.8734C6.29832 21.8734 6.68227 21.5944 6.81614 21.1824L7.54894 18.927Z" fill="#95A1B3" fill-opacity="0.25"/>
<path d="M7.54894 102.927C7.8483 102.006 9.1517 102.006 9.45106 102.927L10.1839 105.182C10.3177 105.594 10.7017 105.873 11.1349 105.873L13.5063 105.873C14.475 105.873 14.8778 107.113 14.0941 107.682L12.1756 109.076C11.8251 109.331 11.6784 109.782 11.8123 110.194L12.5451 112.45C12.8445 113.371 11.79 114.137 11.0063 113.568L9.08778 112.174C8.7373 111.919 8.2627 111.919 7.91221 112.174L5.99372 113.568C5.21001 114.137 4.15553 113.371 4.45488 112.45L5.18768 110.194C5.32155 109.782 5.1749 109.331 4.82441 109.076L2.90592 107.682C2.1222 107.113 2.52498 105.873 3.4937 105.873L5.86509 105.873C6.29832 105.873 6.68227 105.594 6.81614 105.182L7.54894 102.927Z" fill="#95A1B3" fill-opacity="0.25"/>
<path d="M170.549 16.927C170.848 16.0057 172.152 16.0057 172.451 16.9271L173.184 19.1824C173.318 19.5944 173.702 19.8734 174.135 19.8734L176.506 19.8734C177.475 19.8734 177.878 21.113 177.094 21.6824L175.176 23.0762C174.825 23.3309 174.678 23.7822 174.812 24.1943L175.545 26.4496C175.844 27.3709 174.79 28.137 174.006 27.5676L172.088 26.1738C171.737 25.9191 171.263 25.9191 170.912 26.1738L168.994 27.5676C168.21 28.137 167.156 27.3709 167.455 26.4496L168.188 24.1943C168.322 23.7822 168.175 23.3309 167.824 23.0762L165.906 21.6824C165.122 21.113 165.525 19.8734 166.494 19.8734L168.865 19.8734C169.298 19.8734 169.682 19.5944 169.816 19.1824L170.549 16.927Z" fill="#95A1B3" fill-opacity="0.25"/>
</svg>
