<svg width="127" height="172" viewBox="0 0 127 172" fill="none" xmlns="http://www.w3.org/2000/svg">
<path d="M0 93.5991C0 88.5312 0 83.4632 0 78.4012C0.205536 77.8139 0.510906 77.2384 0.598993 76.6336C6.08387 39.778 26.8078 15.7832 62.0484 4.2908C67.5039 2.51145 73.3646 1.98293 79.0374 0.878906C83.3419 0.878906 87.6523 0.878906 91.9568 0.878906C92.8024 1.09031 93.6363 1.40745 94.4937 1.48966C129.458 4.93092 159.402 30.6229 167.987 64.7712C169.362 70.2326 170.013 75.8761 171 81.4373C171 85.2367 171 89.0362 171 92.8357C170.789 93.6813 170.471 94.5152 170.372 95.3726C166.326 131.318 141.456 160.087 106.385 169.16C101.658 170.381 96.7663 170.986 91.9509 171.879C87.6464 171.879 83.336 171.879 79.0315 171.879C77.0466 171.585 75.0558 171.356 73.0827 170.992C38.3413 164.579 15.0746 144.766 3.82297 111.228C1.93792 105.561 1.25083 99.4833 0 93.5991ZM149.865 134.26C180.185 95.1729 165.721 36.3603 122.875 15.519C118.811 24.8209 110.966 29.3134 100.701 28.2152C92.5851 27.3461 85.7085 21.7907 84.669 14.8554C84.4753 13.5634 85.7966 12.0425 86.419 10.6272C87.4291 11.6549 88.9912 12.5181 89.3494 13.7396C91.023 19.4594 95.3452 22.8595 102.322 23.4761C108.394 24.0105 114.93 20.722 117.173 16.1708C118.436 13.6104 117.743 12.4535 115.088 11.4376C101.306 6.15827 87.1766 4.61382 72.607 6.92756C25.9445 14.3327 -4.45132 60.8132 7.52261 106.472C18.645 148.894 60.6155 174.486 103.567 164.873C113.714 162.6 123.163 158.519 131.948 151.971C127.456 149.71 126.728 146.017 127.908 142.158C129.793 135.969 133.974 131.705 140.363 130.02C144.515 128.922 147.857 130.202 149.865 134.26ZM143.605 134.642C138.437 134.718 132.412 140.667 132.353 144.631C132.318 147.009 133.651 147.684 135.806 147.25C139.6 146.481 144.445 141.853 144.903 138.059C145.05 136.861 143.963 135.511 143.605 134.642Z" fill="#95A1B3" fill-opacity="0.25"/>
<path d="M99.0624 102.778C89.4845 102.726 81.1338 96.6065 78.1917 87.4748C75.2907 78.4724 78.5617 68.3541 86.1783 62.7929C93.7949 57.2258 104.494 57.1495 112.111 62.6167C112.622 62.9867 113.321 63.3156 113.538 63.8323C114.143 65.2593 115.37 67.2501 114.848 68.1662C113.579 70.4036 111.894 68.7946 110.484 67.6964C103.913 62.5991 96.966 62.0001 90.4123 65.9582C84.2404 69.6872 80.9577 76.8868 82.2731 83.8222C83.6414 91.0453 89.3318 96.5419 96.9719 97.7693C102.005 98.5738 106.444 96.9882 110.367 93.8171C111.723 92.7248 113.127 91.0453 114.865 93.0419C116.721 95.1736 114.853 96.5008 113.409 97.6929C109.251 101.105 104.459 102.808 99.0624 102.778Z" fill="#95A1B3" fill-opacity="0.25"/>
<path d="M54.285 130.759C51.3311 129.79 48.3127 128.974 45.4411 127.793C43.7498 127.1 41.5946 125.955 42.8337 123.6C44.108 121.175 46.0048 122.59 47.7019 123.465C56.7866 128.157 66.5936 123.489 68.6666 113.5C69.8117 107.986 67.0634 101.937 62.0307 98.9597C61.2732 98.5133 60.222 98.343 59.7287 97.7147C58.9301 96.6811 58.4838 95.3833 57.8907 94.1912C59.2061 93.9211 60.7094 93.1048 61.8135 93.4689C69.8235 96.1174 75.0911 105.502 73.6288 114.099C72.0257 123.559 64.0274 130.272 54.285 130.759Z" fill="#95A1B3" fill-opacity="0.25"/>
<path d="M28.3816 53.6597C23.2902 53.5599 20.2306 48.5507 22.6207 43.9702C23.0553 43.1363 24.7113 42.1732 25.3867 42.4199C26.2323 42.7311 27.1543 44.2168 27.166 45.2034C27.213 49.0557 27.7944 49.596 31.2944 48.0281C35.7574 46.0314 38.8992 42.6665 40.7431 38.1741C41.1307 37.2227 41.2599 35.6959 40.7431 34.9912C40.3438 34.4509 38.7113 34.5684 37.7012 34.7739C35.916 35.1439 33.7667 35.8662 33.6022 33.3293C33.5318 32.2429 35.5049 30.1464 36.6853 30.0466C39.1517 29.8352 42.129 29.9585 44.1257 31.1917C46.6684 32.7538 46.5569 35.8603 45.7465 38.7613C43.6559 46.2193 34.9235 53.7889 28.3816 53.6597Z" fill="#95A1B3" fill-opacity="0.25"/>
<path d="M134.579 80.3677C130.016 79.845 126.792 77.4902 125.242 73.1622C123.733 68.9575 124.155 64.9172 127.227 61.476C130.016 58.346 133.557 57.5121 137.562 58.6161C138.161 58.7805 138.948 58.9332 139.253 59.3737C140.029 60.4836 140.575 61.752 141.215 62.9558C139.917 63.2671 138.414 64.1538 137.368 63.7721C134.832 62.8502 132.665 62.7562 130.827 64.8703C128.859 67.137 128.525 69.9264 130.269 72.205C131.414 73.7024 133.651 75.1471 135.401 75.1471C136.899 75.1529 138.701 73.3031 139.817 71.8468C140.892 70.4491 140.927 67.7067 143.564 68.7931C146.171 69.8677 145.167 72.1286 144.41 74.0196C142.783 78.0833 138.766 80.6378 134.579 80.3677Z" fill="#95A1B3" fill-opacity="0.25"/>
<path d="M35.6575 110.806C35.7398 104.593 38.259 99.5077 43.233 95.8668C44.3135 95.074 46.9033 94.7687 47.6902 95.4792C49.5694 97.1646 47.7783 98.4742 46.3219 99.6134C42.1466 102.879 40.103 107.177 40.4612 112.492C40.5845 114.347 40.884 116.532 38.3589 116.297C37.3547 116.203 36.4738 114.013 35.7045 112.674C35.4285 112.204 35.6575 111.441 35.6575 110.806Z" fill="#95A1B3" fill-opacity="0.25"/>
<path d="M27.4771 116.65C25.9855 118.775 24.6701 121.071 22.8907 122.915C22.4092 123.415 20.5183 122.551 19.2792 122.316C19.5611 121.212 19.52 119.844 20.1777 119.051C22.8379 115.869 22.0921 113.267 18.1282 111.793C17.218 111.452 16.6542 110.166 15.9319 109.321C16.9067 108.581 17.8169 107.306 18.8622 107.189C22.9495 106.737 26.5552 111.018 27.4771 116.65Z" fill="#95A1B3" fill-opacity="0.25"/>
<path d="M82.3142 154.396C85.0742 155.912 88.0985 157.303 90.7646 159.2C91.4987 159.723 91.1639 161.743 91.3225 163.076C90.0834 162.97 88.4274 163.34 87.6757 162.683C84.4106 159.834 81.1573 159.318 77.2815 161.408C76.4123 161.878 74.9031 161.144 73.6816 160.968C74.1162 159.717 74.1867 157.885 75.0617 157.333C77.0172 156.111 79.3721 155.524 82.3142 154.396Z" fill="#95A1B3" fill-opacity="0.25"/>
<path d="M122.617 81.5539C120.973 83.6328 119.786 85.1244 118.6 86.6219C117.819 85.5296 116.492 84.4843 116.386 83.3274C116.21 81.3484 115.863 78.559 119.011 78.4885C119.974 78.465 120.978 80.0976 122.617 81.5539Z" fill="#95A1B3" fill-opacity="0.25"/>
</svg>
