<svg width="219" height="172" viewBox="0 0 219 172" fill="none" xmlns="http://www.w3.org/2000/svg">
<path d="M189.5 88.5C205.792 72.2076 205.792 45.7924 189.5 29.5C173.208 13.2076 146.792 13.2076 130.5 29.5C114.208 45.7924 114.208 72.2076 130.5 88.5C146.792 104.792 173.208 104.792 189.5 88.5Z" fill="#EB9E3D"/>
<path d="M183.361 82.3606C196.262 69.4589 196.262 48.5411 183.361 35.6394C170.459 22.7377 149.541 22.7377 136.639 35.6394C123.738 48.5411 123.738 69.4589 136.639 82.3606C149.541 95.2623 170.459 95.2623 183.361 82.3606Z" fill="#F4D9BE"/>
<path d="M175.028 62.5901C177.012 54.2891 171.89 45.9518 163.589 43.9683C155.288 41.9848 146.951 47.1061 144.968 55.4072C142.984 63.7082 148.106 72.0454 156.407 74.029C164.708 76.0125 173.045 70.8911 175.028 62.5901Z" fill="#B16E2B"/>
<path d="M177.056 33.1376L171.541 39.9089L170.667 39.199L176.183 32.4277L177.056 33.1376Z" fill="#909090"/>
<path d="M183.809 39.0136L176.82 44.2559L176.146 43.3458L183.136 38.1035L183.809 39.0136Z" fill="#909090"/>
<path d="M185.885 42.3286L178.276 46.6244L177.73 45.6414L185.321 41.3457L185.885 42.3286Z" fill="#909090"/>
<path d="M189.561 51.4476L181.152 53.7775L180.861 52.6854L189.27 50.3555L189.561 51.4476Z" fill="#909090"/>
<path d="M190.308 55.3037L181.662 56.5233L181.498 55.4129L190.144 54.1934L190.308 55.3037Z" fill="#909090"/>
<path d="M190.526 59.2711L181.789 59.3439V58.2154L190.526 58.1426V59.2711Z" fill="#909090"/>
<path d="M188.488 69.9231L180.278 66.9561L180.661 65.9004L188.87 68.8674L188.488 69.9231Z" fill="#909090"/>
<path d="M178.786 70.0117L187.686 72.287L187.031 73.3063L182.663 72.1596C181.461 71.8502 180.387 71.5589 179.404 71.1949L179.386 71.2131C180.114 71.9594 180.842 72.8513 181.589 73.7978L184.446 77.3472L183.809 78.3666L178.112 71.0493L178.786 70.0117Z" fill="#909090"/>
<path d="M173.016 76.4395L180.333 81.9912L179.332 82.6828L175.764 79.9161C174.781 79.1698 173.908 78.4781 173.143 77.7682L173.125 77.7864C173.507 78.7512 173.835 79.8615 174.162 81.0264L175.4 85.4132L174.417 86.1049L171.996 77.1493L173.016 76.4395Z" fill="#909090"/>
<path d="M171.122 87.3585L167.81 79.2767L168.847 78.8398L172.16 86.9217L171.122 87.3585Z" fill="#909090"/>
<path d="M162.477 80.5879L165.99 89.0702L164.77 89.1612L163.077 84.9747C162.604 83.8279 162.204 82.7904 161.894 81.7892H161.876C161.712 82.8086 161.439 83.9371 161.13 85.1021L159.983 89.5252L158.781 89.6162L161.221 80.6789L162.477 80.5879Z" fill="#909090"/>
<path d="M155.305 89.0504L156.524 80.4043L157.635 80.5681L156.415 89.2142L155.305 89.0504Z" fill="#909090"/>
<path d="M149.043 77.7139L146.768 86.6148L145.749 85.9595L146.895 81.591C147.205 80.3896 147.496 79.3157 147.86 78.3328L147.842 78.3145C147.096 79.0426 146.204 79.7707 145.257 80.5352L141.689 83.393L140.67 82.7559L147.987 77.0586L149.043 77.7139Z" fill="#909090"/>
<path d="M138.213 80.1888L144.365 74L145.166 74.8009L139.014 80.9897L138.213 80.1888Z" fill="#909090"/>
<path d="M135.683 77.203L142.581 71.8516L143.273 72.7435L136.374 78.095L135.683 77.203Z" fill="#909090"/>
<path d="M133.535 73.9075L141.071 69.4844L141.635 70.4491L134.099 74.8723L133.535 73.9075Z" fill="#909090"/>
<path d="M130.713 67.0263L139.086 64.5508L139.414 65.6247L131.041 68.1002L130.713 67.0263Z" fill="#909090"/>
<path d="M138.268 58.3451L136.411 59.5829C135.701 60.0743 135.246 60.402 134.755 60.6932V60.7114C135.282 60.9298 135.756 61.1483 136.557 61.5487L138.541 62.477L138.632 63.7694L134.045 61.3849L129.894 64.2244L129.803 62.9139L131.769 61.6397C132.315 61.2757 132.734 61.0026 133.189 60.7478V60.7114C132.661 60.493 132.243 60.311 131.66 60.0197L129.549 58.964L129.476 57.6716L133.881 60.0561L138.177 57.0527L138.268 58.3451Z" fill="#909090"/>
<path d="M140.488 49.4072L138.285 49.7712C137.43 49.935 136.884 50.026 136.32 50.117L136.301 50.1352C136.684 50.5357 137.048 50.9361 137.594 51.6278L139.013 53.2842L138.558 54.5038L135.373 50.4447L130.44 51.3366L130.895 50.117L133.207 49.753C133.862 49.6438 134.354 49.571 134.863 49.5164L134.882 49.48C134.481 49.0613 134.19 48.7155 133.771 48.224L132.279 46.3856L132.734 45.166L135.773 49.1523L140.925 48.1876L140.488 49.4072Z" fill="#909090"/>
<path d="M146.167 42.1803L144.019 41.5978C143.182 41.3976 142.636 41.252 142.09 41.0882L142.072 41.1064C142.254 41.6342 142.418 42.1439 142.636 42.9994L143.255 45.0927L142.345 46.0028L141.107 40.9972L136.247 39.7594L137.175 38.8311L139.432 39.4682C140.07 39.6502 140.543 39.7776 141.052 39.9414L141.089 39.905C140.889 39.3589 140.761 38.9221 140.597 38.3032L139.997 36.0097L140.907 35.0996L142.035 39.9778L147.132 41.2156L146.167 42.1803Z" fill="#909090"/>
<path d="M144.201 33.0078L148.897 40.3797L147.951 40.9804L143.255 33.6085L144.201 33.0078Z" fill="#909090"/>
<path d="M159.6 37.1953L158.271 35.4115C157.744 34.738 157.398 34.2829 157.07 33.8097H157.034C156.852 34.3375 156.651 34.829 156.306 35.6481L155.486 37.6686L154.194 37.8142L156.324 33.118L153.284 29.1317L154.576 28.9861L155.96 30.8791C156.342 31.407 156.633 31.8074 156.924 32.2443H156.961C157.143 31.6982 157.325 31.2796 157.58 30.6789L158.526 28.5128L159.819 28.3672L157.671 32.8996L160.892 37.0315L159.6 37.1953Z" fill="#909090"/>
<path d="M163.787 28.783L162.877 37.4655L161.748 37.3563L162.658 28.6738L163.787 28.783Z" fill="#909090"/>
<path d="M167.646 29.4931L165.644 37.9936L164.552 37.7388L166.554 29.2383L167.646 29.4931Z" fill="#909090"/>
<path d="M162.222 59C162.222 60.2195 161.221 61.2207 160.001 61.2207C158.781 61.2207 157.78 60.2195 157.78 59C157.78 57.7804 158.781 56.7793 160.001 56.7793C161.221 56.7793 162.222 57.7804 162.222 59Z" fill="#2A1A13"/>
<path d="M147.714 70.9234L146.622 69.6857L158.781 58.9645L143.746 44.0204L144.911 42.8555L161.221 59.0373L147.714 70.9234Z" fill="#2A1A13"/>
<path d="M53 124C82.2711 124 106 100.271 106 71C106 41.7289 82.2711 18 53 18C23.7289 18 0 41.7289 0 71C0 100.271 23.7289 124 53 124Z" fill="#FCEEDF"/>
<path d="M53.0001 118.048C78.9842 118.048 100.048 96.9837 100.048 70.9996C100.048 45.0155 78.9842 23.9512 53.0001 23.9512C27.0159 23.9512 5.95166 45.0155 5.95166 70.9996C5.95166 96.9837 27.0159 118.048 53.0001 118.048Z" fill="#F6E6C0"/>
<path d="M72.0774 74.7873C74.1619 64.252 67.3112 54.0216 56.7759 51.9371C46.2406 49.8526 36.0102 56.7033 33.9257 67.2386C31.8412 77.7739 38.6919 88.0043 49.2272 90.0888C59.7625 92.1733 69.9929 85.3226 72.0774 74.7873Z" fill="#BD895F"/>
<path d="M55.4115 70.9993C55.4115 72.3333 54.334 73.4107 53 73.4107C51.6661 73.4107 50.5886 72.3333 50.5886 70.9993C50.5886 69.6653 51.6661 68.5879 53 68.5879C54.334 68.5879 55.4115 69.6653 55.4115 70.9993Z" fill="#472E27"/>
<path d="M71.1628 34.1116L73.1382 33.1367H73.3434V40.0118C73.3434 40.4736 73.369 40.7558 73.3947 40.8584C73.4203 40.961 73.523 41.0636 73.6256 41.1149C73.7538 41.1662 73.9847 41.2176 74.3695 41.2176V41.4484H71.3168V41.2176C71.7016 41.2176 71.9581 41.1662 72.0607 41.1149C72.1633 41.0636 72.2403 40.9867 72.2916 40.8841C72.3429 40.7814 72.3685 40.4993 72.3685 40.0118V35.6251C72.3685 35.0351 72.3429 34.6503 72.3172 34.4964C72.2916 34.3681 72.2403 34.2655 72.1633 34.2142C72.0864 34.1629 72.0094 34.1116 71.9068 34.1116C71.7529 34.1116 71.5476 34.1629 71.2911 34.2911L71.1628 34.1116Z" fill="#483E3F"/>
<path d="M87.6833 51.4536L87.119 53.0185H82.3218V52.7876C83.7327 51.5049 84.7332 50.4531 85.2976 49.6322C85.862 48.8113 86.1698 48.0674 86.1698 47.4004C86.1698 46.8873 86.0159 46.4512 85.6824 46.1177C85.3745 45.7842 84.9897 45.6303 84.5536 45.6303C84.1432 45.6303 83.784 45.7586 83.4762 45.9894C83.1683 46.2203 82.9118 46.5795 82.7835 47.0156H82.5527C82.6553 46.2716 82.9118 45.7073 83.3223 45.3224C83.7327 44.9376 84.2458 44.7324 84.8615 44.7324C85.5285 44.7324 86.0672 44.9376 86.5033 45.3738C86.9394 45.8099 87.1703 46.2973 87.1703 46.8617C87.1703 47.2721 87.0677 47.6826 86.8881 48.093C86.6059 48.7344 86.1185 49.427 85.4515 50.1453C84.451 51.2227 83.8353 51.8897 83.5788 52.1206H85.708C86.1441 52.1206 86.452 52.095 86.6059 52.0693C86.7855 52.0437 86.9394 51.9667 87.0677 51.8641C87.1959 51.7615 87.3242 51.6332 87.4268 51.4536H87.6833Z" fill="#483E3F"/>
<path d="M89.7616 66.1521C89.9925 65.6134 90.2747 65.1773 90.6338 64.8951C90.993 64.5873 91.4291 64.459 91.9678 64.459C92.6091 64.459 93.1222 64.6642 93.4557 65.1003C93.7122 65.4082 93.8405 65.7417 93.8405 66.1265C93.8405 66.7165 93.4813 67.3322 92.7374 67.9735C93.2248 68.1787 93.6096 68.4609 93.8661 68.8201C94.1227 69.1792 94.2509 69.6153 94.2509 70.1027C94.2509 70.7954 94.0201 71.4111 93.5839 71.9241C92.9939 72.5911 92.1474 72.9246 91.0443 72.9246C90.5055 72.9246 90.1207 72.8477 89.9155 72.7194C89.7103 72.5911 89.6077 72.4372 89.6077 72.2833C89.6077 72.155 89.659 72.0781 89.7616 71.9754C89.8642 71.8985 89.9668 71.8472 90.0951 71.8472C90.1977 71.8472 90.3003 71.8728 90.4029 71.8985C90.4799 71.9241 90.6338 72.0011 90.8647 72.1294C91.0956 72.2576 91.2751 72.3346 91.3521 72.3602C91.506 72.4116 91.6599 72.4372 91.8139 72.4372C92.2243 72.4372 92.5835 72.2833 92.8913 71.9754C93.1991 71.6676 93.3531 71.2828 93.3531 70.8467C93.3531 70.5388 93.2761 70.231 93.1478 69.9232C93.0452 69.6923 92.917 69.5384 92.8143 69.4101C92.6348 69.2562 92.4039 69.1023 92.0961 68.974C91.7882 68.8457 91.4804 68.7688 91.1725 68.7688H90.9673V68.5892C91.2751 68.5379 91.6086 68.4353 91.9165 68.2557C92.2243 68.0761 92.4552 67.8452 92.6091 67.5887C92.763 67.3322 92.8143 67.0243 92.8143 66.7165C92.8143 66.306 92.6861 65.9725 92.4295 65.716C92.173 65.4595 91.8395 65.3312 91.4547 65.3312C90.839 65.3312 90.326 65.6647 89.8899 66.3317L89.7616 66.1521Z" fill="#483E3F"/>
<path d="M87.7604 88.1384V88.985H86.6573V91.1398H85.6568V88.985H82.2192V88.2153L85.9903 82.8281H86.6573V88.1384H87.7604ZM85.6825 88.1384V84.1108L82.8349 88.1384H85.6825Z" fill="#483E3F"/>
<path d="M75.6009 97.4746L75.1391 98.5007H72.702L72.1633 99.6038C73.2151 99.7578 74.0617 100.143 74.6773 100.784C75.2161 101.323 75.4726 101.964 75.4726 102.708C75.4726 103.144 75.3956 103.529 75.2161 103.888C75.0365 104.247 74.8313 104.555 74.5491 104.811C74.2925 105.068 73.9847 105.273 73.6769 105.427C73.2151 105.658 72.7533 105.761 72.2659 105.761C71.7785 105.761 71.4194 105.684 71.1885 105.504C70.9576 105.35 70.855 105.145 70.855 104.965C70.855 104.863 70.9063 104.76 70.9832 104.658C71.0859 104.581 71.1885 104.529 71.3424 104.529C71.445 104.529 71.5476 104.555 71.6246 104.581C71.7015 104.606 71.8298 104.683 72.035 104.837C72.3429 105.042 72.6507 105.145 72.9586 105.145C73.4203 105.145 73.8308 104.965 74.1899 104.606C74.5491 104.247 74.7287 103.811 74.7287 103.324C74.7287 102.836 74.5747 102.374 74.2669 101.938C73.9591 101.502 73.5229 101.194 72.9586 100.963C72.5225 100.784 71.9324 100.681 71.1885 100.656L72.7533 97.5003H75.6009V97.4746Z" fill="#483E3F"/>
<path d="M56.3864 102.401V102.632C55.8477 102.683 55.4373 102.785 55.1038 102.939C54.7703 103.093 54.4368 103.35 54.1033 103.658C53.7698 103.991 53.5132 104.35 53.2824 104.735C53.0771 105.146 52.8976 105.607 52.7436 106.146C53.308 105.761 53.8981 105.556 54.4881 105.556C55.0525 105.556 55.5142 105.787 55.9247 106.223C56.3351 106.659 56.5404 107.249 56.5404 107.942C56.5404 108.609 56.3351 109.25 55.9247 109.789C55.4373 110.456 54.7703 110.815 53.9494 110.815C53.385 110.815 52.9232 110.635 52.5384 110.251C51.7688 109.532 51.4097 108.609 51.4097 107.48C51.4097 106.762 51.5636 106.069 51.8458 105.402C52.128 104.735 52.5641 104.171 53.1028 103.658C53.6415 103.145 54.1546 102.811 54.6677 102.632C55.1551 102.452 55.6168 102.375 56.0529 102.375H56.3864V102.401ZM52.641 106.608C52.5641 107.147 52.5384 107.583 52.5384 107.916C52.5384 108.301 52.6154 108.711 52.7436 109.173C52.8976 109.635 53.1028 109.968 53.385 110.251C53.5902 110.43 53.8467 110.533 54.1289 110.533C54.4881 110.533 54.7959 110.379 55.0525 110.045C55.3346 109.712 55.4629 109.25 55.4629 108.634C55.4629 107.942 55.3346 107.352 55.0525 106.864C54.7703 106.377 54.3855 106.12 53.8981 106.12C53.7441 106.12 53.5902 106.146 53.4106 106.223C53.2567 106.274 53.0002 106.403 52.641 106.608Z" fill="#483E3F"/>
<path d="M33.0931 97.4746H37.4542V97.7055L34.7349 105.786H34.0679L36.505 98.4751H34.2732C33.8114 98.4751 33.5036 98.5264 33.2983 98.629C32.9648 98.8086 32.6827 99.0908 32.4774 99.4756L32.2979 99.3986L33.0931 97.4746Z" fill="#483E3F"/>
<path d="M21.8569 87.547C21.2156 87.0083 20.8051 86.5978 20.5999 86.2643C20.4203 85.9565 20.3177 85.623 20.3177 85.2639C20.3177 84.7251 20.5229 84.289 20.9334 83.9042C21.3439 83.5194 21.8826 83.3398 22.5496 83.3398C23.2166 83.3398 23.7296 83.5194 24.1401 83.8786C24.5505 84.2377 24.7301 84.6482 24.7301 85.0843C24.7301 85.3921 24.6275 85.7 24.3966 86.0078C24.1914 86.3156 23.7296 86.7004 23.037 87.1109C23.7296 87.6496 24.217 88.0857 24.4223 88.3936C24.7301 88.804 24.884 89.2401 24.884 89.6762C24.884 90.2406 24.6532 90.728 24.217 91.1385C23.7809 91.5489 23.2166 91.7542 22.4983 91.7542C21.7287 91.7542 21.113 91.5233 20.7025 91.0359C20.369 90.6511 20.1895 90.215 20.1895 89.7532C20.1895 89.3941 20.3177 89.0349 20.5486 88.6758C20.8308 88.3679 21.2412 87.9831 21.8569 87.547ZM22.1391 87.7779C21.8056 88.0601 21.5491 88.3679 21.3952 88.7014C21.2412 89.0349 21.1643 89.3941 21.1643 89.7789C21.1643 90.2919 21.3182 90.7024 21.5747 91.0102C21.8569 91.3181 22.2161 91.472 22.6522 91.472C23.0883 91.472 23.4218 91.3437 23.6783 91.1128C23.9349 90.8563 24.0631 90.5741 24.0631 90.215C24.0631 89.9328 23.9862 89.6762 23.8322 89.4454C23.5757 89.0093 22.9857 88.4705 22.1391 87.7779ZM22.7804 86.9057C23.2679 86.4696 23.5757 86.1361 23.704 85.8795C23.8322 85.623 23.8835 85.3408 23.8835 85.033C23.8835 84.6225 23.7553 84.289 23.5244 84.0581C23.2935 83.8273 22.96 83.699 22.5496 83.699C22.1391 83.699 21.8056 83.8273 21.5491 84.0581C21.2925 84.289 21.1643 84.5712 21.1643 84.8791C21.1643 85.0843 21.2156 85.2895 21.3182 85.4947C21.4208 85.7 21.5747 85.9052 21.78 86.0848L22.7804 86.9057Z" fill="#483E3F"/>
<path d="M15.11 72.8995V72.6686C15.623 72.6686 16.1104 72.5403 16.5722 72.3095C17.0083 72.0786 17.4444 71.6681 17.8805 71.0781C18.291 70.4881 18.5988 69.8467 18.7527 69.1541C18.1371 69.5645 17.547 69.7698 17.0596 69.7698C16.4952 69.7698 16.0078 69.5389 15.5974 69.1028C15.1869 68.6667 14.9817 68.0766 14.9817 67.3327C14.9817 66.6144 15.1869 65.9987 15.5974 65.4343C16.0848 64.7674 16.7261 64.4082 17.5214 64.4082C18.1884 64.4082 18.7527 64.6904 19.2402 65.2291C19.8302 65.9218 20.1124 66.7683 20.1124 67.7688C20.1124 68.6667 19.8815 69.5132 19.4454 70.3085C19.0093 71.0781 18.3936 71.7451 17.5983 72.2582C16.957 72.6943 16.2644 72.8995 15.4948 72.8995H15.11ZM18.8297 68.7436C18.9067 68.2306 18.9323 67.8201 18.9323 67.4866C18.9323 67.1018 18.8554 66.6914 18.7271 66.2296C18.5988 65.7678 18.4193 65.4343 18.1627 65.2035C17.9318 64.9726 17.6496 64.8443 17.3418 64.8443C16.9827 64.8443 16.6748 64.9982 16.3926 65.3317C16.1361 65.6396 15.9822 66.127 15.9822 66.7683C15.9822 67.6149 16.1617 68.2819 16.5209 68.7436C16.7774 69.0771 17.1109 69.2567 17.4701 69.2567C17.6496 69.2567 17.8805 69.2054 18.1114 69.1284C18.4193 69.0258 18.6501 68.8976 18.8297 68.7436Z" fill="#483E3F"/>
<path d="M18.4451 48.1701L20.4204 47.1953H20.6256V54.0704C20.6256 54.5322 20.6513 54.8144 20.6769 54.917C20.7026 55.0196 20.8052 55.1222 20.9078 55.1735C21.0361 55.2248 21.2669 55.2761 21.6517 55.2761V55.507H18.599V55.2761C18.9838 55.2761 19.2403 55.2248 19.3429 55.1735C19.4456 55.1222 19.5225 55.0453 19.5738 54.9426C19.6251 54.84 19.6508 54.5578 19.6508 54.0704V49.6837C19.6508 49.0937 19.6251 48.7089 19.5995 48.5549C19.5738 48.4267 19.5225 48.3241 19.4456 48.2728C19.3686 48.2214 19.2916 48.1701 19.189 48.1701C19.0351 48.1701 18.8299 48.2214 18.5733 48.3497L18.4451 48.1701Z" fill="#483E3F"/>
<path d="M23.6013 51.4792C23.6013 50.5556 23.7296 49.7604 24.0118 49.0934C24.294 48.4264 24.6531 47.9133 25.1405 47.6055C25.4997 47.349 25.8845 47.2207 26.2436 47.2207C26.8593 47.2207 27.4237 47.5285 27.9111 48.1699C28.5268 48.9651 28.8346 50.0169 28.8346 51.3766C28.8346 52.3257 28.7064 53.121 28.4242 53.788C28.142 54.455 27.8085 54.9167 27.3724 55.2246C26.9619 55.5324 26.5515 55.6607 26.141 55.6607C25.3714 55.6607 24.7301 55.1989 24.1913 54.2754C23.8065 53.4801 23.6013 52.5566 23.6013 51.4792ZM24.7814 51.6331C24.7814 52.7618 24.9096 53.6597 25.1918 54.378C25.4227 54.968 25.7562 55.2759 26.218 55.2759C26.4232 55.2759 26.6541 55.1733 26.885 54.9937C27.1158 54.7885 27.2954 54.4806 27.4237 54.0189C27.6033 53.3262 27.7059 52.3514 27.7059 51.12C27.7059 50.1965 27.6033 49.4269 27.4237 48.8112C27.2698 48.3495 27.0902 48.016 26.8593 47.8364C26.7054 47.7081 26.5002 47.6312 26.2693 47.6312C25.9871 47.6312 25.7562 47.7594 25.551 47.9903C25.2688 48.3238 25.0636 48.8369 24.961 49.5552C24.8327 50.2222 24.7814 50.9405 24.7814 51.6331Z" fill="#483E3F"/>
<path d="M31.2205 35.1116L33.1958 34.1367H33.401V41.0118C33.401 41.4736 33.4267 41.7558 33.4523 41.8584C33.478 41.961 33.5806 42.0636 33.6832 42.1149C33.8115 42.1662 34.0423 42.2176 34.4271 42.2176V42.4484H31.3744V42.2176C31.7592 42.2176 32.0157 42.1662 32.1183 42.1149C32.2209 42.0636 32.2979 41.9867 32.3492 41.8841C32.4005 41.7814 32.4262 41.4993 32.4262 41.0118V36.6251C32.4262 36.0351 32.4005 35.6503 32.3749 35.4964C32.3492 35.3681 32.2979 35.2655 32.2209 35.2142C32.144 35.1629 32.067 35.1116 31.9644 35.1116C31.8105 35.1116 31.6053 35.1629 31.3487 35.2911L31.2205 35.1116Z" fill="#483E3F"/>
<path d="M36.9155 35.1116L38.8908 34.1367H39.0961V41.0118C39.0961 41.4736 39.1217 41.7558 39.1474 41.8584C39.173 41.961 39.2756 42.0636 39.3783 42.1149C39.5065 42.1662 39.7374 42.2176 40.1222 42.2176V42.4484H37.0694V42.2176C37.4542 42.2176 37.7108 42.1662 37.8134 42.1149C37.916 42.0636 37.993 41.9867 38.0443 41.8841C38.0956 41.7814 38.1212 41.4993 38.1212 41.0118V36.6251C38.1212 36.0351 38.0956 35.6503 38.0699 35.4964C38.0443 35.3681 37.993 35.2655 37.916 35.2142C37.839 35.1629 37.7621 35.1116 37.6595 35.1116C37.5056 35.1116 37.3003 35.1629 37.0438 35.2911L36.9155 35.1116Z" fill="#483E3F"/>
<path d="M49.1777 29.4416L51.1531 28.4668H51.3583V35.3419C51.3583 35.8037 51.3839 36.0859 51.4096 36.1885C51.4352 36.2911 51.5379 36.3937 51.6405 36.445C51.7687 36.4963 51.9996 36.5476 52.3844 36.5476V36.7785H49.3317V36.5476C49.7165 36.5476 49.973 36.4963 50.0756 36.445C50.1782 36.3937 50.2552 36.3167 50.3065 36.2141C50.3578 36.1115 50.3834 35.8293 50.3834 35.3419V30.9552C50.3834 30.3652 50.3578 29.9803 50.3321 29.8264C50.3065 29.6982 50.2552 29.5955 50.1782 29.5442C50.1013 29.4929 50.0243 29.4416 49.9217 29.4416C49.7678 29.4416 49.5625 29.4929 49.306 29.6212L49.1777 29.4416Z" fill="#483E3F"/>
<path d="M59.4902 35.2134L58.9259 36.7782H54.1287V36.5474C55.5396 35.2647 56.5401 34.2129 57.1045 33.392C57.6688 32.5711 57.9767 31.8271 57.9767 31.1601C57.9767 30.6471 57.8228 30.211 57.4893 29.8775C57.1814 29.544 56.7966 29.3901 56.3605 29.3901C55.9501 29.3901 55.5909 29.5183 55.2831 29.7492C54.9752 29.9801 54.7187 30.3392 54.5904 30.7753H54.3595C54.4622 30.0314 54.7187 29.467 55.1291 29.0822C55.5396 28.6974 56.0527 28.4922 56.6684 28.4922C57.3353 28.4922 57.8741 28.6974 58.3102 29.1335C58.7463 29.5696 58.9772 30.057 58.9772 30.6214C58.9772 31.0319 58.8745 31.4423 58.695 31.8528C58.4128 32.4941 57.9254 33.1868 57.2584 33.9051C56.2579 34.9825 55.6422 35.6495 55.3857 35.8804H57.5149C57.951 35.8804 58.2589 35.8547 58.4128 35.8291C58.5924 35.8034 58.7463 35.7265 58.8746 35.6238C59.0028 35.5212 59.1311 35.393 59.2337 35.2134H59.4902Z" fill="#483E3F"/>
<path d="M52.8717 72.3093L40.3271 50.2217L41.6355 49.4521L53.1282 69.6927L78.5251 40.7812L79.6795 41.7817L52.8717 72.3093Z" fill="#472D27"/>
<path d="M155.846 131.994C155.846 150.692 140.706 165.832 122.008 165.832C119.951 165.832 117.914 165.647 115.96 165.298C100.162 162.438 88.1692 148.615 88.1692 131.994C88.1692 114.056 102.137 99.3689 119.807 98.2375C120.547 98.1963 121.267 98.1758 122.028 98.1758C140.686 98.1758 155.846 113.316 155.846 131.994Z" fill="#A05129"/>
<path d="M142 152C153.046 140.954 153.046 123.046 142 112C130.954 100.954 113.046 100.954 102 112C90.9543 123.046 90.9543 140.954 102 152C113.046 163.046 130.954 163.046 142 152Z" fill="#EEE5D6"/>
<path d="M129.354 136.535C131.863 132.476 130.605 127.152 126.546 124.643C122.487 122.135 117.163 123.392 114.655 127.451C112.146 131.51 113.403 136.834 117.463 139.343C121.522 141.851 126.846 140.594 129.354 136.535Z" fill="#A05129"/>
<path d="M133.219 108.791L134.494 108.174H134.618V112.597C134.618 112.884 134.638 113.07 134.659 113.152C134.68 113.234 134.741 113.275 134.803 113.316C134.885 113.358 135.029 113.378 135.276 113.378V113.522H133.301V113.378C133.548 113.378 133.713 113.358 133.774 113.316C133.836 113.275 133.898 113.234 133.918 113.172C133.939 113.111 133.96 112.926 133.96 112.597V109.758C133.96 109.367 133.939 109.141 133.918 109.017C133.898 108.935 133.877 108.873 133.816 108.832C133.774 108.791 133.713 108.77 133.651 108.77C133.548 108.77 133.425 108.812 133.26 108.894L133.219 108.791Z" fill="#52301F"/>
<path d="M143.895 120.002L143.525 121.01H140.419V120.866C141.324 120.043 141.961 119.364 142.352 118.829C142.723 118.294 142.908 117.821 142.908 117.389C142.908 117.06 142.805 116.793 142.599 116.566C142.393 116.361 142.147 116.237 141.859 116.237C141.591 116.237 141.365 116.319 141.159 116.463C140.954 116.607 140.81 116.834 140.707 117.122H140.563C140.624 116.649 140.789 116.278 141.056 116.031C141.324 115.785 141.653 115.641 142.064 115.641C142.496 115.641 142.846 115.785 143.134 116.052C143.422 116.319 143.566 116.649 143.566 117.019C143.566 117.286 143.504 117.554 143.381 117.821C143.196 118.233 142.887 118.685 142.455 119.158C141.817 119.858 141.406 120.29 141.242 120.434H142.62C142.908 120.434 143.093 120.434 143.216 120.413C143.319 120.392 143.422 120.351 143.525 120.29C143.607 120.228 143.689 120.146 143.751 120.022H143.895V120.002Z" fill="#52301F"/>
<path d="M145.212 129.486C145.356 129.136 145.541 128.869 145.788 128.663C146.014 128.478 146.302 128.375 146.631 128.375C147.042 128.375 147.372 128.519 147.598 128.786C147.762 128.992 147.845 129.218 147.845 129.445C147.845 129.836 147.598 130.226 147.125 130.638C147.454 130.761 147.701 130.946 147.865 131.173C148.03 131.399 148.112 131.687 148.112 131.995C148.112 132.448 147.968 132.839 147.68 133.168C147.31 133.6 146.754 133.826 146.035 133.826C145.685 133.826 145.438 133.785 145.315 133.703C145.191 133.62 145.129 133.518 145.129 133.415C145.129 133.333 145.15 133.271 145.212 133.209C145.273 133.147 145.335 133.127 145.438 133.127C145.5 133.127 145.561 133.127 145.644 133.168C145.685 133.189 145.788 133.23 145.932 133.312C146.096 133.394 146.199 133.435 146.261 133.456C146.364 133.476 146.466 133.497 146.569 133.497C146.837 133.497 147.063 133.394 147.248 133.189C147.454 132.983 147.536 132.736 147.536 132.469C147.536 132.263 147.495 132.057 147.392 131.872C147.33 131.728 147.248 131.625 147.166 131.543C147.063 131.44 146.898 131.337 146.713 131.255C146.528 131.173 146.322 131.131 146.117 131.131H145.993V131.008C146.199 130.987 146.405 130.905 146.61 130.782C146.816 130.658 146.96 130.514 147.063 130.35C147.166 130.185 147.207 130 147.207 129.794C147.207 129.527 147.125 129.321 146.96 129.157C146.796 128.992 146.59 128.91 146.343 128.91C145.952 128.91 145.603 129.116 145.335 129.548L145.212 129.486Z" fill="#52301F"/>
<path d="M143.936 143.678V144.234H143.237V145.612H142.599V144.234H140.377V143.74L142.805 140.264H143.237V143.678H143.936ZM142.599 143.678V141.066L140.748 143.678H142.599Z" fill="#52301F"/>
<path d="M136.078 149.706L135.77 150.364H134.186L133.836 151.064C134.515 151.167 135.07 151.413 135.461 151.825C135.811 152.175 135.975 152.586 135.975 153.059C135.975 153.327 135.914 153.594 135.811 153.82C135.708 154.047 135.564 154.252 135.379 154.417C135.214 154.581 135.009 154.705 134.803 154.808C134.515 154.952 134.206 155.013 133.898 155.013C133.589 155.013 133.363 154.952 133.219 154.849C133.075 154.746 133.013 154.622 133.013 154.499C133.013 154.417 133.034 154.355 133.095 154.314C133.157 154.252 133.239 154.232 133.322 154.232C133.383 154.232 133.445 154.252 133.507 154.273C133.548 154.293 133.651 154.355 133.774 154.437C133.959 154.581 134.165 154.643 134.371 154.643C134.679 154.643 134.947 154.52 135.173 154.293C135.399 154.067 135.523 153.779 135.523 153.45C135.523 153.141 135.42 152.833 135.214 152.565C135.009 152.298 134.721 152.072 134.371 151.928C134.083 151.804 133.713 151.743 133.219 151.722L134.227 149.686H136.078V149.706Z" fill="#52301F"/>
<path d="M123.674 152.873V153.017C123.324 153.058 123.057 153.12 122.831 153.223C122.604 153.326 122.399 153.49 122.193 153.696C121.987 153.902 121.802 154.128 121.679 154.395C121.535 154.642 121.432 154.951 121.329 155.321C121.699 155.074 122.07 154.93 122.44 154.93C122.79 154.93 123.119 155.074 123.366 155.362C123.633 155.65 123.756 156.02 123.756 156.473C123.756 156.905 123.633 157.316 123.366 157.666C123.036 158.098 122.625 158.324 122.09 158.324C121.741 158.324 121.432 158.201 121.185 157.975C120.691 157.522 120.445 156.905 120.445 156.185C120.445 155.712 120.547 155.259 120.733 154.848C120.918 154.416 121.185 154.046 121.535 153.716C121.885 153.387 122.214 153.161 122.543 153.058C122.872 152.935 123.16 152.894 123.427 152.894H123.674V152.873ZM121.267 155.588C121.226 155.938 121.206 156.226 121.206 156.432C121.206 156.679 121.247 156.946 121.35 157.234C121.432 157.522 121.576 157.748 121.761 157.933C121.885 158.057 122.049 158.119 122.234 158.119C122.46 158.119 122.666 158.016 122.831 157.81C123.016 157.604 123.098 157.296 123.098 156.905C123.098 156.473 123.016 156.082 122.831 155.753C122.646 155.424 122.399 155.259 122.09 155.259C121.987 155.259 121.885 155.28 121.782 155.321C121.658 155.362 121.494 155.465 121.267 155.588Z" fill="#52301F"/>
<path d="M108.637 149.707H111.455V149.851L109.707 155.055H109.275L110.838 150.324H109.398C109.11 150.324 108.905 150.365 108.781 150.427C108.555 150.55 108.39 150.736 108.267 150.982L108.164 150.941L108.637 149.707Z" fill="#52301F"/>
<path d="M101.376 143.29C100.964 142.94 100.697 142.672 100.574 142.467C100.45 142.261 100.388 142.055 100.388 141.829C100.388 141.479 100.512 141.191 100.779 140.944C101.047 140.698 101.396 140.574 101.828 140.574C102.26 140.574 102.589 140.698 102.857 140.924C103.124 141.15 103.248 141.418 103.248 141.706C103.248 141.911 103.186 142.096 103.042 142.302C102.898 142.508 102.61 142.755 102.178 143.022C102.631 143.372 102.939 143.66 103.083 143.845C103.289 144.112 103.371 144.38 103.371 144.668C103.371 145.038 103.227 145.347 102.939 145.614C102.651 145.881 102.281 146.005 101.828 146.005C101.335 146.005 100.944 145.84 100.656 145.532C100.43 145.285 100.327 145.017 100.327 144.709C100.327 144.483 100.409 144.256 100.553 144.01C100.738 143.824 101.005 143.557 101.376 143.29ZM101.561 143.434C101.355 143.619 101.191 143.804 101.088 144.03C100.985 144.236 100.923 144.483 100.923 144.729C100.923 145.059 101.005 145.326 101.191 145.532C101.376 145.737 101.602 145.84 101.89 145.84C102.178 145.84 102.384 145.758 102.569 145.614C102.733 145.449 102.816 145.264 102.816 145.038C102.816 144.853 102.775 144.688 102.672 144.544C102.487 144.236 102.116 143.886 101.561 143.434ZM101.993 142.878C102.301 142.59 102.507 142.384 102.589 142.22C102.672 142.055 102.713 141.87 102.713 141.664C102.713 141.397 102.631 141.191 102.487 141.027C102.343 140.883 102.116 140.8 101.869 140.8C101.602 140.8 101.396 140.883 101.232 141.027C101.067 141.171 100.985 141.356 100.985 141.562C100.985 141.706 101.026 141.829 101.088 141.973C101.149 142.117 101.252 142.24 101.376 142.364L101.993 142.878Z" fill="#52301F"/>
<path d="M97.0352 133.846V133.702C97.3643 133.702 97.6729 133.619 97.9814 133.475C98.2694 133.331 98.5574 133.064 98.8248 132.694C99.0922 132.324 99.2774 131.912 99.3802 131.46C98.9688 131.727 98.5985 131.85 98.29 131.85C97.9197 131.85 97.6111 131.706 97.3437 131.418C97.0763 131.13 96.9529 130.76 96.9529 130.287C96.9529 129.834 97.0763 129.423 97.3437 129.053C97.6523 128.621 98.0843 128.395 98.578 128.395C99.0099 128.395 99.3802 128.58 99.6888 128.929C100.059 129.361 100.244 129.917 100.244 130.554C100.244 131.13 100.1 131.686 99.8122 132.18C99.5242 132.694 99.1334 133.105 98.6191 133.434C98.2077 133.702 97.7551 133.846 97.2614 133.846H97.0352ZM99.4419 131.151C99.4831 130.822 99.5036 130.554 99.5036 130.349C99.5036 130.102 99.4625 129.834 99.3802 129.546C99.2979 129.258 99.1745 129.032 99.0099 128.888C98.8454 128.724 98.6808 128.662 98.4751 128.662C98.2488 128.662 98.0431 128.765 97.8786 128.971C97.714 129.176 97.6111 129.485 97.6111 129.896C97.6111 130.431 97.7346 130.863 97.9608 131.172C98.1254 131.398 98.3311 131.501 98.578 131.501C98.7014 131.501 98.8454 131.48 99.0099 131.418C99.1745 131.316 99.3185 131.254 99.4419 131.151Z" fill="#52301F"/>
<path d="M99.1951 117.861L100.47 117.244H100.594V121.667C100.594 121.955 100.614 122.14 100.635 122.222C100.656 122.305 100.717 122.346 100.779 122.387C100.861 122.428 101.005 122.448 101.252 122.448V122.592H99.2774V122.448C99.5242 122.448 99.6888 122.428 99.7505 122.387C99.8122 122.346 99.8739 122.304 99.8945 122.243C99.915 122.181 99.9356 121.996 99.9356 121.667V118.828C99.9356 118.437 99.915 118.211 99.8945 118.088C99.8739 118.005 99.8533 117.944 99.7916 117.902C99.7505 117.861 99.6888 117.841 99.6271 117.841C99.5242 117.841 99.4008 117.882 99.2362 117.964L99.1951 117.861Z" fill="#52301F"/>
<path d="M102.507 120.001C102.507 119.404 102.589 118.89 102.775 118.458C102.96 118.026 103.186 117.697 103.494 117.491C103.721 117.326 103.968 117.244 104.214 117.244C104.626 117.244 104.976 117.45 105.305 117.861C105.696 118.376 105.901 119.054 105.901 119.939C105.901 120.556 105.819 121.07 105.634 121.482C105.449 121.914 105.243 122.222 104.955 122.407C104.688 122.592 104.42 122.695 104.173 122.695C103.68 122.695 103.248 122.407 102.918 121.811C102.651 121.297 102.507 120.7 102.507 120.001ZM103.268 120.103C103.268 120.823 103.35 121.42 103.536 121.873C103.68 122.263 103.906 122.448 104.194 122.448C104.338 122.448 104.482 122.387 104.626 122.263C104.77 122.14 104.893 121.934 104.976 121.626C105.099 121.173 105.161 120.556 105.161 119.754C105.161 119.157 105.099 118.664 104.976 118.252C104.873 117.964 104.77 117.738 104.626 117.614C104.523 117.532 104.4 117.491 104.235 117.491C104.05 117.491 103.906 117.573 103.762 117.717C103.577 117.923 103.453 118.273 103.392 118.725C103.309 119.198 103.268 119.651 103.268 120.103Z" fill="#52301F"/>
<path d="M107.444 109.43L108.719 108.812H108.843V113.235C108.843 113.523 108.863 113.708 108.884 113.791C108.905 113.873 108.966 113.914 109.028 113.955C109.11 113.996 109.254 114.017 109.501 114.017V114.161H107.526V114.017C107.773 114.017 107.938 113.996 107.999 113.955C108.061 113.914 108.123 113.873 108.143 113.811C108.164 113.749 108.185 113.564 108.185 113.235V110.396C108.185 110.006 108.164 109.779 108.143 109.656C108.123 109.574 108.102 109.512 108.041 109.471C107.999 109.43 107.938 109.409 107.876 109.409C107.773 109.409 107.65 109.45 107.485 109.532L107.444 109.43Z" fill="#52301F"/>
<path d="M111.106 109.43L112.381 108.812H112.505V113.235C112.505 113.523 112.525 113.708 112.546 113.791C112.566 113.873 112.628 113.914 112.69 113.955C112.772 113.996 112.916 114.017 113.163 114.017V114.161H111.188V114.017C111.435 114.017 111.599 113.996 111.661 113.955C111.723 113.914 111.785 113.873 111.805 113.811C111.826 113.749 111.846 113.564 111.846 113.235V110.396C111.846 110.006 111.826 109.779 111.805 109.656C111.785 109.574 111.764 109.512 111.702 109.471C111.661 109.43 111.599 109.409 111.538 109.409C111.435 109.409 111.311 109.45 111.147 109.532L111.106 109.43Z" fill="#52301F"/>
<path d="M119.025 105.787L120.301 105.17H120.424V109.593C120.424 109.881 120.445 110.066 120.465 110.148C120.486 110.23 120.548 110.271 120.609 110.313C120.692 110.354 120.836 110.374 121.082 110.374V110.518H119.108V110.374C119.355 110.374 119.519 110.354 119.581 110.313C119.643 110.271 119.704 110.23 119.725 110.169C119.745 110.107 119.766 109.922 119.766 109.593V106.754C119.766 106.363 119.745 106.137 119.725 106.013C119.704 105.931 119.684 105.869 119.622 105.828C119.581 105.787 119.519 105.766 119.457 105.766C119.355 105.766 119.231 105.808 119.067 105.89L119.025 105.787Z" fill="#52301F"/>
<path d="M125.69 109.511L125.32 110.519H122.214V110.375C123.119 109.552 123.757 108.874 124.148 108.339C124.518 107.804 124.703 107.331 124.703 106.899C124.703 106.57 124.6 106.302 124.394 106.076C124.189 105.87 123.942 105.747 123.654 105.747C123.386 105.747 123.16 105.829 122.954 105.973C122.749 106.117 122.605 106.343 122.502 106.631H122.378C122.44 106.158 122.605 105.788 122.872 105.541C123.14 105.294 123.469 105.15 123.88 105.15C124.312 105.15 124.662 105.294 124.95 105.562C125.238 105.829 125.382 106.158 125.382 106.529C125.382 106.796 125.32 107.063 125.197 107.331C125.011 107.742 124.703 108.195 124.271 108.668C123.633 109.367 123.222 109.799 123.057 109.943H124.435C124.723 109.943 124.909 109.943 125.032 109.923C125.135 109.902 125.238 109.861 125.341 109.799C125.423 109.738 125.505 109.655 125.567 109.532H125.69V109.511Z" fill="#52301F"/>
<path opacity="0.2" d="M101.849 130.309C101.849 151.743 122.008 160.301 122.008 160.301C122.008 160.301 119.889 162.584 115.96 165.32C100.162 162.461 88.1692 148.637 88.1692 132.016C88.1692 114.079 102.137 99.3911 119.807 98.2598C122.131 99.8643 124.127 101.736 125.546 103.937C125.525 103.937 125.484 103.937 125.464 103.958C114.685 106.611 101.849 108.936 101.849 130.309Z" fill="#52301F"/>
<path d="M125.329 119.34L121.589 131.877L122.417 132.124L126.157 119.587L125.329 119.34Z" fill="#2A1A13"/>
<path d="M126.924 115.744L124.579 118.295L124.991 122.039L127.356 119.138L126.924 115.744Z" fill="#2A1A13"/>
<path d="M122.39 131.782L121.637 132.205L129.855 146.817L130.608 146.394L122.39 131.782Z" fill="#2A1A13"/>
<path d="M132.622 151.002L131.985 146.785L128.549 143.617L129.454 148.204L132.622 151.002Z" fill="#2A1A13"/>
<path d="M123.448 131.995C123.448 132.797 122.81 133.435 122.008 133.435C121.206 133.435 120.568 132.797 120.568 131.995C120.568 131.192 121.206 130.555 122.008 130.555C122.81 130.555 123.448 131.213 123.448 131.995Z" fill="#2A1A13"/>
<path d="M54.5489 138.927C54.8483 138.006 56.1517 138.006 56.4511 138.927L57.1839 141.182C57.3177 141.594 57.7017 141.873 58.1349 141.873L60.5063 141.873C61.475 141.873 61.8778 143.113 61.0941 143.682L59.1756 145.076C58.8251 145.331 58.6784 145.782 58.8123 146.194L59.5451 148.45C59.8445 149.371 58.79 150.137 58.0063 149.568L56.0878 148.174C55.7373 147.919 55.2627 147.919 54.9122 148.174L52.9937 149.568C52.21 150.137 51.1555 149.371 51.4549 148.45L52.1877 146.194C52.3216 145.782 52.1749 145.331 51.8244 145.076L49.9059 143.682C49.1222 143.113 49.525 141.873 50.4937 141.873L52.8651 141.873C53.2983 141.873 53.6823 141.594 53.8161 141.182L54.5489 138.927Z" fill="#95A1B3" fill-opacity="0.25"/>
<path d="M114.549 21.927C114.848 21.0057 116.152 21.0057 116.451 21.9271L117.184 24.1824C117.318 24.5944 117.702 24.8734 118.135 24.8734L120.506 24.8734C121.475 24.8734 121.878 26.113 121.094 26.6824L119.176 28.0762C118.825 28.3309 118.678 28.7822 118.812 29.1943L119.545 31.4496C119.844 32.3709 118.79 33.137 118.006 32.5676L116.088 31.1738C115.737 30.9191 115.263 30.9191 114.912 31.1738L112.994 32.5676C112.21 33.137 111.156 32.3709 111.455 31.4496L112.188 29.1943C112.322 28.7822 112.175 28.3309 111.824 28.0762L109.906 26.6824C109.122 26.113 109.525 24.8734 110.494 24.8734L112.865 24.8734C113.298 24.8734 113.682 24.5944 113.816 24.1824L114.549 21.927Z" fill="#95A1B3" fill-opacity="0.25"/>
<path d="M7.54894 14.927C7.8483 14.0057 9.1517 14.0057 9.45106 14.9271L10.1839 17.1824C10.3177 17.5944 10.7017 17.8734 11.1349 17.8734L13.5063 17.8734C14.475 17.8734 14.8778 19.113 14.0941 19.6824L12.1756 21.0762C11.8251 21.3309 11.6784 21.7822 11.8123 22.1943L12.5451 24.4496C12.8445 25.3709 11.79 26.137 11.0063 25.5676L9.08778 24.1738C8.7373 23.9191 8.2627 23.9191 7.91221 24.1738L5.99372 25.5676C5.21001 26.137 4.15553 25.3709 4.45488 24.4496L5.18768 22.1943C5.32155 21.7822 5.1749 21.3309 4.82441 21.0762L2.90592 19.6824C2.1222 19.113 2.52498 17.8734 3.4937 17.8734L5.86509 17.8734C6.29832 17.8734 6.68227 17.5944 6.81614 17.1824L7.54894 14.927Z" fill="#95A1B3" fill-opacity="0.25"/>
<path d="M184.379 115.868C184.635 115.908 184.698 116.247 184.477 116.38C181.002 118.442 179.893 122.635 181.164 125.903C182.395 129.07 185.654 131.307 189.443 130.852C189.773 130.813 189.966 131.209 189.739 131.449C189.012 132.211 188.191 132.817 187.26 133.29C185.078 134.386 182.798 134.601 180.45 133.919C175.517 132.484 172.62 127.233 174.249 122.188C175.747 117.556 180.306 115.247 184.379 115.868Z" fill="#95A1B3" fill-opacity="0.25"/>
</svg>
