<svg width="169" height="154" viewBox="0 0 169 154" fill="none" xmlns="http://www.w3.org/2000/svg">
<g opacity="0.25">
<path d="M115.712 80.6514C115.129 80.9205 114.541 81.3157 113.935 81.4383C102.711 83.5957 91.4867 85.7531 80.2467 87.8128C78.9567 88.0455 78.4542 88.5021 78.1907 89.8219C77.1653 95.1215 71.1669 97.69 66.6254 94.8394C65.6774 94.2406 65.0475 94.2168 64.214 94.952C63.1396 95.9014 61.9155 96.6996 60.5969 97.6883C61.378 98.339 62.0377 98.859 62.7904 99.4892C62.2168 100.283 61.6638 101.048 61.0492 101.898C58.7817 100.26 56.5993 98.6824 54.2467 96.9822C54.8203 96.1886 55.3734 95.4233 56.0493 94.488C57.6961 96.6274 59.0242 95.3867 60.3807 94.1665C60.732 93.8595 61.0834 93.5524 61.4992 93.3352C63.0162 92.4899 63.7332 91.4979 63.0203 89.5588C62.6159 88.4467 62.9124 87.0214 63.1916 85.7993C63.567 84.0858 63.194 83.1691 61.2461 81.8045C59.8935 80.8701 59.4993 82.3111 58.8786 82.8117C48.2241 91.4647 33.7827 91.6853 22.8406 83.3028C12.5583 75.4403 9.10089 61.1192 14.5511 48.9209C21.6894 32.8943 42.1568 27.3204 56.7603 37.4429C60.7899 40.2256 63.8679 43.7877 66.0715 48.1417C66.2887 48.5576 66.5265 48.9451 66.8082 49.4508C70.9274 47.8109 74.9694 46.1584 78.9909 44.5343C79.317 44.3816 79.7093 44.0179 79.8086 43.7014C80.4014 41.6273 80.9455 39.561 81.3556 37.4412C81.4393 37.027 80.9591 36.3779 80.5827 36.0628C78.7011 34.4872 78.3065 32.3466 78.0709 30.1053C77.9359 28.7996 78.6385 28.1856 79.8606 28.4647C80.7457 28.6729 81.6544 29.0276 82.4118 29.5318C86.1375 32.1381 89.8222 34.801 93.4864 37.4922C94.365 38.1273 95.1286 38.9811 95.8151 39.8224C96.0937 40.1533 96.2683 40.9267 96.0713 41.2589C95.8948 41.5628 95.1498 41.7579 94.7073 41.6538C92.0315 41.0576 89.3889 40.3559 86.7541 39.703C86.1005 39.5327 85.4312 39.2648 84.5792 38.9511C84.1676 40.5953 83.6553 42.0803 83.5004 43.608C83.4404 44.1687 84.1962 44.9738 84.7914 45.4039C93.8409 51.9872 102.911 58.5421 111.981 65.097C114.135 66.6538 116.289 68.2106 118.698 69.9517C119.268 67.7311 119.766 65.8476 120.269 63.838C121.826 64.489 123.25 65.0864 124.715 65.627C125.701 65.9943 126.723 66.4309 127.751 66.4407C128.759 66.4788 130.162 66.3281 130.69 65.7171C131.636 64.5881 130.54 63.5373 129.597 62.8125C126.86 60.7483 124.062 58.7692 121.142 56.6594C121.798 55.7524 122.289 55.0721 122.904 54.2218C123.491 54.6032 124.127 54.9766 124.694 55.3863C126.962 57.025 129.25 58.6354 131.497 60.3025C133.489 61.7852 134.329 64.2047 133.664 66.1402C132.945 68.2095 131.028 69.3697 128.333 69.2775C127.402 69.252 126.497 69.0721 125.591 68.8923C124.763 68.7251 123.918 68.4602 122.899 68.1985C121.542 74.0776 120.188 79.8306 118.897 85.4987C121.643 86.5343 124.322 87.3054 126.82 88.5063C141.72 95.6505 147.194 114.406 138.642 128.807C130.258 142.855 111.198 146.9 97.8791 137.447C87.699 130.219 83.2157 117.616 86.7033 105.984C90.3028 93.9585 100.82 85.8537 113.412 85.5048C114.734 85.4675 115.322 85.0723 115.467 83.7966C115.557 82.9556 115.822 82.1115 115.989 81.2831C115.868 81.1523 115.8 80.8877 115.712 80.6514ZM113.604 91.2096C105.282 90.5455 92.7225 97.4763 91.0439 111.322C89.4837 124.347 99.0089 136.063 112.089 137.188C125.043 138.309 136.522 128.397 137.159 115.395C137.882 100.902 126.316 92.0688 117.539 91.3778C117.444 91.5683 117.35 91.7589 117.283 91.9699C116.055 97.2521 114.798 102.514 113.646 107.809C113.55 108.3 113.956 109.111 114.361 109.447C116.279 111.092 116.677 113.407 115.235 115.342C113.855 117.193 111.336 117.573 109.473 116.27C107.602 114.918 107.23 112.448 108.522 110.362C108.957 109.64 109.327 108.829 109.543 107.993C110.291 105.168 110.912 102.338 111.583 99.4998C112.269 96.7595 112.947 93.9704 113.604 91.2096ZM61.4541 51.6651C59.2783 43.75 48.7687 37.2766 39.1185 37.8532C28.2239 38.4797 19.2469 46.6623 17.5977 57.4222C15.9358 68.2593 22.0246 78.7004 32.3775 82.6443C40.5965 85.7796 52.6603 83.2366 56.4249 77.3709C52.2145 73.4651 48.0041 69.5594 43.704 65.7181C43.3198 65.3542 42.4409 65.4956 41.7983 65.549C40.0043 65.7626 38.1917 64.9273 37.3874 63.3536C36.5264 61.739 36.7505 60.175 37.8519 58.7705C38.9532 57.3659 40.8844 56.6042 42.3631 57.5434C44.174 58.6795 45.6248 58.0453 47.222 57.3874C51.9729 55.4705 56.7237 53.5537 61.4541 51.6651ZM76.9501 83.3592C77.0508 83.5183 77.1311 83.7058 77.2318 83.8649C77.7689 83.7784 78.3139 83.7408 78.851 83.6544C82.636 82.8948 86.3927 82.1148 90.1493 81.3348C98.7085 79.5813 107.268 77.8279 115.819 76.0256C116.425 75.903 116.941 75.3692 117.487 75.0307C117.12 74.4636 116.746 73.8477 116.379 73.2805C116.371 73.2317 116.294 73.2191 116.237 73.1781C105.41 65.3532 94.6109 57.5488 83.7836 49.7239C83.3301 49.3961 82.8356 49.1251 82.1066 48.6413C79.4271 59.6923 76.6517 70.4582 74.1157 81.3108C74.3629 81.4464 74.5818 81.5614 74.8291 81.6969C76.2784 80.587 77.7483 79.4487 79.2181 78.3105C78.6041 77.6078 78.2404 77.2155 77.8483 76.8028C78.0863 76.4138 78.2628 76.1099 78.4393 75.8059C79.1705 74.4359 79.9975 74.1275 81.2634 75.3013C82.0318 76.0292 82.9435 76.5586 83.8143 77.1448C86.0818 78.7836 86.0819 78.7835 84.3219 80.9203C84.2195 81.062 84.0525 81.1139 83.9832 81.1501C83.0462 80.775 81.8762 79.8863 81.3422 80.1476C79.7197 80.9598 78.3994 82.2493 76.9501 83.3592ZM62.5194 54.5493C56.929 56.8518 51.4488 59.0614 45.9844 61.3687C44.7904 61.8865 44.7223 63.1748 45.7819 64.1564C47.8808 66.1478 50.008 68.1598 52.1273 70.1229C54.105 71.9836 56.1031 73.816 58.0729 75.6279C62.818 71.8084 65.173 60.6092 62.5194 54.5493ZM62.2753 79.4848C62.639 79.8771 62.8453 80.0693 63.0311 80.2899C64.2261 81.8007 65.4732 82.702 67.3196 81.1024C67.7402 80.7592 68.416 80.6003 68.9609 80.5627C70.2335 80.5331 70.7047 79.8812 71.0122 78.6796C73.4203 68.8995 75.9339 59.1526 78.3909 49.3647C78.4823 48.9993 78.4966 48.6213 78.5819 47.9063C74.8455 49.4344 71.3249 50.9028 67.7964 52.3223C70.529 62.4521 68.7149 71.4102 62.2753 79.4848Z" fill="#95A1B3"/>
<circle cx="70.5" cy="88.5" r="3.5" fill="white"/>
</g>
</svg>
