<svg width="19" height="19" viewBox="0 0 19 19" fill="none" xmlns="http://www.w3.org/2000/svg">
<path d="M18.6231 9.71943C18.6231 9.07365 18.5707 8.42437 18.459 7.78906H9.49829V11.4473H14.6297C14.4167 12.6272 13.7325 13.6709 12.7307 14.3342V16.7079H15.7921C17.5898 15.0533 18.6231 12.6097 18.6231 9.71943Z" fill="white"/>
<path d="M9.49823 18.9999C12.0604 18.9999 14.2212 18.1586 15.7955 16.7065L12.7341 14.3328C11.8824 14.9123 10.7828 15.2404 9.50172 15.2404C7.0233 15.2404 4.92189 13.5683 4.16789 11.3203H1.00879V13.7673C2.6215 16.9753 5.90627 18.9999 9.49823 18.9999Z" fill="white"/>
<path d="M4.16447 11.3207C3.76653 10.1408 3.76653 8.86319 4.16447 7.68333V5.23633H1.00886C-0.338564 7.92069 -0.338564 11.0833 1.00886 13.7677L4.16447 11.3207Z" fill="white"/>
<path d="M9.49821 3.76015C10.8526 3.7392 12.1616 4.24885 13.1425 5.18436L15.8548 2.47207C14.1374 0.859358 11.8579 -0.0272856 9.49821 0.000640194C5.90627 0.000640194 2.6215 2.02526 1.00879 5.23672L4.1644 7.68372C4.9149 5.4322 7.0198 3.76015 9.49821 3.76015Z" fill="white"/>
</svg>
