<svg width="81" height="84" viewBox="0 0 81 84" fill="none" xmlns="http://www.w3.org/2000/svg">
<path d="M74.3541 47.8287C75.6029 41.2579 75.0179 35.5355 72.9891 29.9406C72.7628 29.2823 72.0514 28.3148 71.6294 28.3195C68.4701 28.474 67.4787 25.957 66.0198 24.0025C58.053 13.1905 44.5824 8.67413 32.1657 12.6737C19.8242 16.6206 11.4981 27.9598 11.1793 41.2087C11.136 43.3988 11.2758 45.5948 8.95787 46.9503C8.62159 47.1411 8.52516 48.1375 8.63502 48.7095C9.81633 54.708 12.565 59.8768 17.2626 64.8887C16.5409 60.8399 17.8147 58.3137 20.489 56.4288C23.4358 54.3418 26.819 54.6347 29.2701 57.3823C33.3136 61.9237 37.2625 66.5538 41.1642 71.2281C43.3434 73.8753 43.3762 76.829 41.5806 79.3291C39.4593 82.2589 36.5398 83.2189 33.3103 82.4267C31.9729 82.0992 30.4594 82.3986 29.0216 82.3429C27.3368 82.2701 24.9262 82.8064 24.1119 81.8998C20.6386 78.1563 15.4006 75.3918 15.8356 69.033C15.8983 68.2281 15.1869 67.2606 14.5665 66.5987C10.143 61.8983 7.34237 56.3518 5.58962 50.1606C5.26176 48.958 3.99778 48.0643 3.43943 46.9C2.57976 45.13 1.32888 43.2648 1.36039 41.4411C1.70189 25.222 9.1192 13.0649 23.4775 5.73542C41.4816 -3.46582 62.7334 2.30187 74.3471 18.8619C75.969 21.161 77.4108 23.3625 75.5643 26.3012C75.1771 26.9305 75.5493 28.1804 75.8417 29.061C78.0218 35.3668 78.6221 41.7499 77.4011 48.3125C77.2692 48.9868 77.2283 49.9666 77.6077 50.4281C81.6642 55.4193 79.8865 61.3311 77.7072 65.4878C75.5556 69.6361 70.3442 72.851 65.2488 73.6122C60.0423 74.4065 57.2515 70.8226 57.8732 65.4969C58.5061 60.1074 59.2306 54.7208 59.9551 49.3342C60.5329 45.0799 62.0855 43.2871 65.4706 42.6722C69.1696 41.9942 72.1532 43.5854 74.3541 47.8287ZM30.9219 6.05886C23.8584 8.13183 17.9017 11.992 13.171 17.634C7.31317 24.6701 4.38999 32.828 4.47946 41.9638C4.48883 42.8077 5.60862 43.6234 6.18709 44.449C6.82719 43.6536 7.51161 42.9055 8.04357 42.0516C8.2469 41.7189 8.1258 41.2107 8.14889 40.7805C8.56296 25.7192 18.0232 13.6189 32.6276 9.45178C46.3987 5.53274 61.2024 11.0734 69.2697 23.0348C69.8647 23.916 71.6918 24.9746 72.2976 24.6733C74.4039 23.6228 72.9467 22.1818 72.1248 20.9449C63.0892 7.45749 46.5847 1.48583 30.9219 6.05886ZM67.0043 70.368C67.3861 69.6193 68.4908 68.353 68.7184 66.9849C69.632 61.4211 70.2543 55.7928 71.0125 50.2147C71.3733 47.5672 70.2938 46.0743 67.638 45.6858C64.9184 45.286 63.5224 46.4879 63.1894 49.1271C62.4643 54.8163 61.6559 60.5302 60.9946 66.2306C60.616 69.4277 62.894 71.2895 67.0043 70.368ZM40.2378 74.921C40.0132 74.7762 39.7804 74.6036 39.5558 74.4588C39.4979 74.2643 39.4513 74.0061 39.3183 73.8642C35.0148 68.8559 30.8059 63.759 26.3606 58.8837C24.9702 57.3624 23.1505 58.0554 21.7321 59.3849C20.1913 60.8113 19.4382 62.5475 20.8865 64.2633C24.9016 69.1155 28.9362 73.9317 33.2628 78.5098C34.0079 79.2858 36.409 79.3268 37.4929 78.7017C38.7074 78.0074 39.3606 76.2405 40.2378 74.921ZM73.8259 52.2497C73.2415 56.9898 72.6856 61.419 72.0645 66.4422C77.4071 64.2768 75.4621 59.7758 76.4653 56.5439C77.0216 54.6547 76.6477 52.8912 73.8259 52.2497ZM19.7798 67.8586C17.7392 73.3951 22.5856 74.9457 24.3339 77.8724C25.3685 79.6206 27.0078 80.2513 29.0681 78.64C26.0717 75.1778 23.2082 71.8574 19.7798 67.8586Z" fill="#95A1B3" fill-opacity="0.25"/>
<path d="M74.4621 47.2364C74.3656 47.0619 74.2675 46.892 74.1678 46.7266L74.4621 47.2364ZM74.4621 47.2364C74.4278 47.4331 74.3918 47.6305 74.3541 47.8287L74.4621 47.2364ZM76.1969 28.9404C78.3959 35.3022 79.0034 41.7506 77.7697 48.3811L77.7691 48.3844C77.7076 48.699 77.6685 49.0809 77.6871 49.43C77.7066 49.7937 77.7855 50.0538 77.8974 50.19L77.8987 50.1916C82.1075 55.3702 80.2322 61.4787 78.0401 65.6604C75.821 69.9389 70.4899 73.2082 65.3047 73.983C62.6036 74.395 60.4649 73.6751 59.0923 72.0956C57.7306 70.5285 57.1821 68.1828 57.5007 65.4534L57.5007 65.4532C58.1341 60.06 58.859 54.6703 59.5834 49.2842L59.5835 49.2837C59.8764 47.1268 60.4231 45.5334 61.3724 44.3979C62.3299 43.2526 63.6564 42.6206 65.4036 42.3033L23.307 5.40142C41.4851 -3.88863 62.9379 1.94048 74.654 18.6465C75.4591 19.7876 76.2654 20.9642 76.6178 22.242C76.9787 23.5503 76.8599 24.9432 75.8827 26.4992M76.1969 28.9404C76.1971 28.9412 76.1974 28.942 76.1976 28.9428L75.8417 29.061L76.1962 28.9385C76.1964 28.9391 76.1966 28.9398 76.1969 28.9404ZM76.1969 28.9404C76.0512 28.5018 75.8942 27.995 75.8183 27.5269C75.7391 27.0375 75.7665 26.6898 75.8827 26.4992M75.8827 26.4992C75.883 26.4987 75.8834 26.4982 75.8837 26.4976L75.5643 26.3012M75.8827 26.4992C75.8824 26.4997 75.8821 26.5002 75.8818 26.5007L75.5643 26.3012M75.5643 26.3012C77.4108 23.3625 75.969 21.161 74.3471 18.8619L75.5643 26.3012ZM33.5342 78.251C33.5346 78.2514 33.535 78.2518 33.5353 78.2522L33.2628 78.5098C34.0079 79.2858 36.409 79.3268 37.4929 78.7017C38.3553 78.2087 38.9347 77.1749 39.5122 76.1445C39.7037 75.8028 39.895 75.4614 40.0963 75.1403L40.0345 75.2361C39.9306 75.1691 39.8258 75.097 39.7251 75.0272M33.5342 78.251C33.6573 78.3787 33.8772 78.5018 34.1926 78.5956C34.5026 78.6879 34.874 78.7427 35.264 78.7564C36.0579 78.7843 36.8491 78.6401 37.3056 78.3769L37.3068 78.3761C37.827 78.0788 38.2528 77.5344 38.6721 76.8499C38.8464 76.5653 39.0133 76.2675 39.1842 75.9626C39.2169 75.9043 39.2497 75.8457 39.2827 75.787C39.4255 75.5331 39.5719 75.2761 39.7251 75.0272M33.5342 78.251C29.2174 73.6832 25.1901 68.8759 21.1754 64.0242L21.173 64.0214C20.5192 63.2468 20.3835 62.5046 20.5529 61.8037C20.7282 61.0783 21.2429 60.3489 21.9868 59.6601L21.9885 59.6585C22.6702 59.0196 23.4169 58.5651 24.1252 58.434C24.8064 58.3078 25.4775 58.4735 26.0835 59.1363C29.2541 62.6136 32.3021 66.2013 35.355 69.7948C36.5778 71.234 37.8014 72.6742 39.0339 74.1086L39.0392 74.1148L39.0447 74.1207C39.0542 74.1308 39.0785 74.1674 39.1095 74.2603C39.1296 74.3207 39.1416 74.3663 39.1555 74.4188C39.1664 74.46 39.1785 74.5055 39.1964 74.5658L39.236 74.6987L39.3526 74.7739C39.4586 74.8423 39.5676 74.9179 39.683 74.998L39.6855 74.9997C39.6986 75.0088 39.7118 75.018 39.7251 75.0272M33.5342 78.251L40.0765 74.8138M39.7251 75.0272C39.7906 74.9208 39.8573 74.816 39.9255 74.7134L40.0765 74.8138M40.0765 74.8138C40.0168 74.7732 39.9568 74.7315 39.8968 74.6899C39.7825 74.6106 39.6681 74.5312 39.5558 74.4588C39.5446 74.4209 39.5337 74.3807 39.5226 74.3393L40.0765 74.8138ZM72.6344 30.0625L72.6365 30.0685L23.3068 5.4015C8.82202 12.7956 1.32979 25.0803 0.985474 41.4332L0.98545 41.4346C0.968246 42.4302 1.30047 43.4136 1.72435 44.3459C1.9373 44.8143 2.17767 45.2786 2.41552 45.7312C2.45108 45.7989 2.48656 45.8663 2.52188 45.9333C2.72424 46.3175 2.92165 46.6923 3.10171 47.063C3.36803 47.618 3.78072 48.1148 4.15512 48.5654C4.20811 48.6292 4.26032 48.6921 4.31125 48.754C4.74058 49.2764 5.0875 49.7445 5.22781 50.2593L5.2288 50.2628C6.9944 56.4993 9.82048 62.1026 14.2929 66.8551C14.5919 67.1742 14.9047 67.5586 15.1331 67.9509C15.3664 68.3516 15.4843 68.7141 15.4617 69.0039L15.4615 69.0074C15.2352 72.3144 16.4923 74.6889 18.2245 76.6924C19.0856 77.6883 20.0678 78.5972 21.0399 79.4816C21.1255 79.5595 21.2111 79.6372 21.2964 79.7148C22.1849 80.5219 23.0555 81.3128 23.8352 82.1529C24.113 82.4607 24.5029 82.6216 24.9073 82.708C25.3149 82.7951 25.778 82.815 26.2451 82.809C26.6279 82.8041 27.0299 82.7814 27.4206 82.7593C27.5072 82.7544 27.5934 82.7495 27.6786 82.7449C28.1543 82.719 28.6044 82.7002 29.0054 82.7176L29.0071 82.7177C29.5461 82.7385 30.1026 82.7108 30.6371 82.6842C30.8343 82.6743 31.0284 82.6647 31.2176 82.6576C31.9365 82.6309 32.6055 82.6402 33.2209 82.7909C34.8963 83.2019 36.5102 83.1624 37.9888 82.6262C39.4679 82.0899 40.7861 81.0658 41.8843 79.5491L41.8851 79.5479C42.8254 78.2387 43.2976 76.7942 43.2376 75.3185C43.1777 73.8431 42.5871 72.3666 41.4537 70.9898L41.4521 70.9878C37.5488 66.3115 33.5971 61.6783 29.5501 57.133L29.5499 57.1327C28.2701 55.698 26.7286 54.886 25.1037 54.7195C23.4802 54.5532 21.809 55.0346 20.273 56.1223C18.8934 57.0946 17.8515 58.2496 17.2553 59.7051C16.7786 60.8689 16.5963 62.2017 16.7317 63.7508C12.5662 59.0598 10.1006 54.2096 9.00315 48.6381C8.95759 48.4001 8.95292 48.0519 8.99988 47.7433C9.02321 47.59 9.05698 47.4624 9.09551 47.3712C9.12642 47.2981 9.14931 47.2743 9.15124 47.2716C10.4023 46.5387 11.002 45.5642 11.2843 44.4876C11.5211 43.5844 11.5345 42.6 11.5473 41.6613C11.5493 41.5118 11.5513 41.3634 11.5542 41.2167C11.8696 28.1226 20.096 16.9274 32.28 13.0309L32.2807 13.0306C44.5375 9.08256 57.8426 13.5372 65.7179 24.2249L65.7193 24.2268C65.9699 24.5625 66.2035 24.911 66.443 25.2682C66.5463 25.4222 66.6506 25.5779 66.7579 25.7349C67.1081 26.2472 67.4819 26.7617 67.9172 27.2124C68.7999 28.1262 69.9324 28.7722 71.627 28.695C71.6326 28.6975 71.6751 28.7102 71.7585 28.7747C71.8569 28.851 71.9717 28.968 72.0898 29.1157C72.3278 29.4131 72.5381 29.7823 72.6344 30.0625ZM77.4011 48.3125C77.2692 48.9868 77.2283 49.9666 77.6077 50.4281C81.6642 55.4193 79.8865 61.3311 77.7072 65.4878C75.5556 69.6361 70.3442 72.851 65.2488 73.6122C60.0423 74.4065 57.2515 70.8226 57.8732 65.4969L77.4011 48.3125ZM32.525 9.0911L32.5247 9.09117C17.7664 13.3023 8.19462 25.5408 7.77416 40.7655C7.76773 40.8907 7.77171 41.0166 7.77664 41.1301C7.77791 41.1593 7.77923 41.1875 7.7805 41.2148C7.78451 41.3005 7.78814 41.3782 7.78883 41.456C7.7907 41.6665 7.76702 41.7842 7.72426 41.855C7.34452 42.4642 6.89007 43.0105 6.41351 43.5835C6.34054 43.6712 6.26704 43.7595 6.19322 43.8488C6.11516 43.757 6.03497 43.667 5.95542 43.5792C5.89475 43.5123 5.83502 43.4472 5.77629 43.3833C5.64726 43.2428 5.5231 43.1076 5.40466 42.9693C5.04788 42.5528 4.85755 42.2317 4.85444 41.9598C4.76591 32.9139 7.65782 24.8424 13.4588 17.8744C18.1411 12.2903 24.034 8.47116 31.0272 6.41877C46.5336 1.89152 62.8687 7.80271 71.8129 21.153C71.9197 21.3137 72.0359 21.4765 72.1497 21.6354L72.1613 21.6516C72.2724 21.8069 72.3812 21.9589 72.4838 22.1111C72.6985 22.4298 72.8666 22.7221 72.9516 22.9918C73.0341 23.2531 73.0305 23.4662 72.9375 23.6577C72.8403 23.8578 72.6159 24.0954 72.1306 24.3375C72.1081 24.3487 71.9967 24.3718 71.7489 24.3059C71.522 24.2456 71.2476 24.1285 70.9617 23.9697C70.3807 23.647 69.8317 23.1971 69.5804 22.825C61.4245 10.7322 46.4554 5.12671 32.525 9.0911ZM70.641 50.1641L70.6409 50.1642C70.3959 51.9673 70.1653 53.7725 69.9348 55.5774C69.4507 59.3687 68.9667 63.1584 68.3485 66.9233C68.2466 67.5356 67.9438 68.1447 67.5985 68.7143C67.4533 68.9538 67.305 69.1794 67.1641 69.3938C67.1383 69.433 67.1128 69.4719 67.0875 69.5104C66.9679 69.6929 66.8523 69.8717 66.7571 70.0378C64.8424 70.4361 63.4261 70.1843 62.536 69.54C61.637 68.8893 61.1894 67.7747 61.367 66.2747L61.3671 66.2738C61.7932 62.6003 62.2801 58.9243 62.7669 55.2495C63.0352 53.224 63.3034 51.1988 63.5614 49.1745L63.5615 49.174C63.7217 47.9043 64.1288 47.0556 64.752 46.5604C65.3717 46.0681 66.2814 45.8654 67.5835 46.0568L67.5837 46.0568C68.8556 46.2429 69.6792 46.6829 70.155 47.3261C70.6317 47.9707 70.8141 48.8934 70.641 50.1641ZM24.6567 77.6814L24.6559 77.6801C24.1905 76.901 23.5264 76.225 22.8579 75.5815C22.7456 75.4733 22.6332 75.3662 22.5213 75.2594C21.9557 74.7201 21.4019 74.1919 20.927 73.6077C20.3638 72.9148 19.9313 72.165 19.7523 71.2736C19.6023 70.5263 19.6257 69.656 19.9279 68.6073C23.0665 72.2667 25.7441 75.3716 28.5182 78.5776C27.6828 79.1448 26.976 79.2768 26.3968 79.1497C25.7382 79.0052 25.1436 78.5042 24.6567 77.6814ZM74.5653 64.2111C74.1166 64.8075 73.4693 65.3595 72.5183 65.8287C72.7756 63.7502 73.0223 61.7678 73.2652 59.8159C73.5603 57.4446 73.8498 55.1185 74.1458 52.7199C75.2259 53.038 75.7995 53.5387 76.0766 54.0959C76.3927 54.7313 76.3714 55.5339 76.1063 56.4357C75.8406 57.2933 75.7733 58.2227 75.7312 59.1321C75.7244 59.2774 75.7183 59.4222 75.7122 59.5663C75.6796 60.34 75.6477 61.0959 75.5225 61.83C75.3755 62.6921 75.103 63.4965 74.5653 64.2111Z" stroke="#95A1B3" stroke-opacity="0.25" stroke-width="0.75" stroke-miterlimit="10"/>
</svg>
