<svg width="252" height="180" viewBox="0 0 252 180" fill="none" xmlns="http://www.w3.org/2000/svg">
<path d="M134.03 125.178C127.923 125.178 122.048 122.781 117.559 118.288C115.671 116.4 115.671 113.341 117.559 111.457C119.447 109.569 122.506 109.569 124.39 111.457C127.915 114.982 132.894 116.318 137.7 115.025C142.456 113.752 146.071 110.184 147.403 105.452L154.352 67.3977C154.528 66.4341 154.994 65.5449 155.687 64.8477L165.582 54.961C181.187 39.3554 180.169 18.0858 179.135 10.1929C171.199 9.22149 149.745 8.30098 134.332 23.7107L124.441 33.6013C123.748 34.2946 122.859 34.7607 121.891 34.937L83.8329 41.8898C79.105 43.2216 75.5405 46.8331 74.2635 51.5845C72.9748 56.3986 74.3105 61.3771 77.8319 64.9025C79.72 66.7905 79.72 69.8497 77.8319 71.7338C75.9439 73.6219 72.8847 73.6219 71.0006 71.7338C65.0075 65.7407 62.7356 57.2721 64.9292 49.0815C67.1266 40.8948 73.3195 34.698 81.5101 32.5045C81.6354 32.4692 81.7647 32.4418 81.89 32.4183L118.671 25.6966L127.496 16.8754C150.486 -6.10596 183.021 0.948663 184.388 1.25811C186.186 1.66548 187.592 3.05996 188.019 4.85005C188.344 6.21319 195.716 38.4937 172.417 61.7924L163.592 70.6175L156.874 107.395C156.851 107.524 156.823 107.653 156.788 107.779C154.595 115.965 148.398 122.166 140.203 124.36C138.151 124.908 136.079 125.178 134.03 125.178Z" fill="#377BF5"/>
<path d="M78.6232 115.502C77.3854 115.502 76.1515 115.032 75.2075 114.088C73.3195 112.2 73.3195 109.141 75.2075 107.257L123.05 59.4141C124.939 57.526 127.998 57.526 129.882 59.4141C131.77 61.3021 131.77 64.3613 129.882 66.2454L82.0389 114.088C81.0949 115.032 79.861 115.502 78.6232 115.502Z" fill="#377BF5"/>
<path d="M75.2978 92.9494C74.06 92.9494 72.8261 92.4793 71.8821 91.5353C69.9941 89.6473 69.9941 86.588 71.8821 84.7039L100.488 56.0977C102.376 54.2096 105.436 54.2096 107.32 56.0977C109.208 57.9857 109.208 61.0449 107.32 62.929L78.7134 91.5353C77.7733 92.4754 76.5395 92.9494 75.2978 92.9494Z" fill="#377BF5"/>
<path d="M101.178 118.824C99.9398 118.824 98.706 118.354 97.762 117.41C95.8739 115.522 95.8739 112.463 97.762 110.579L126.368 81.9727C128.256 80.0846 131.315 80.0846 133.2 81.9727C135.088 83.8607 135.088 86.9199 133.2 88.804L104.593 117.41C103.649 118.354 102.415 118.824 101.178 118.824Z" fill="#377BF5"/>
<path d="M13.0634 148.957C15.3118 148.957 17.3996 149.306 19.3189 150.007C21.2383 150.708 22.7855 151.816 23.9685 153.328C24.889 152.149 26.1542 151.123 27.7602 150.257C29.3662 149.392 31.3835 148.957 33.8199 148.957C35.4416 148.957 36.977 149.188 38.4146 149.65C39.8522 150.113 41.1056 150.794 42.1789 151.699C43.2483 152.604 44.0865 153.72 44.6976 155.048C45.3086 156.376 45.6102 157.908 45.6102 159.643V178.131H37.8623V161.801C37.8623 159.623 37.4001 158.009 36.4796 156.956C35.5551 155.906 34.2077 155.377 32.4372 155.377C30.6275 155.377 29.2095 155.984 28.1754 157.202C27.1413 158.421 26.6243 160.23 26.6243 162.628V178.127H18.8763V162.244C18.8763 159.921 18.3984 158.193 17.4387 157.069C16.4791 155.945 14.9475 155.381 12.844 155.381C11.2929 155.381 10.1491 155.51 9.41269 155.769C8.67237 156.027 8.12006 156.251 7.75186 156.435V178.131H0V151.617C0.148848 151.542 0.571891 151.358 1.27304 151.064C1.9742 150.771 2.88687 150.465 4.01499 150.152C5.13918 149.838 6.46707 149.56 7.99864 149.321C9.53021 149.075 11.2185 148.957 13.0634 148.957Z" fill="#377BF5"/>
<path d="M58.7833 141.539C58.7833 142.722 58.3602 143.725 57.5102 144.555C56.6602 145.386 55.63 145.801 54.4118 145.801C53.2328 145.801 52.2183 145.386 51.3683 144.555C50.5183 143.725 50.0952 142.722 50.0952 141.539C50.0952 140.36 50.5183 139.361 51.3683 138.55C52.2183 137.739 53.2328 137.332 54.4118 137.332C55.63 137.332 56.6641 137.739 57.5102 138.55C58.3563 139.361 58.7833 140.356 58.7833 141.539ZM50.5927 153.22C50.5927 151.966 50.9609 151.097 51.7012 150.619C52.4376 150.141 53.4169 149.898 54.6351 149.898C55.4851 149.898 56.2685 149.992 56.9892 150.176C57.71 150.36 58.1604 150.489 58.3445 150.564V178.128H50.5966V153.22H50.5927Z" fill="#377BF5"/>
<path d="M90.6093 151.501C90.4252 152.202 90.0727 153.244 89.5595 154.626C89.0464 156.009 88.4157 157.568 87.6793 159.303C86.9429 161.039 86.1478 162.864 85.2978 164.783C84.4478 166.703 83.6017 168.548 82.7517 170.318C81.9017 172.089 81.1104 173.714 80.3701 175.191C79.6298 176.668 79.003 177.831 78.4899 178.677H70.738C69.6295 176.648 68.4975 174.443 67.3341 172.061C66.1708 169.68 65.1014 167.419 64.1221 165.281C63.1429 163.142 62.3124 161.285 61.6309 159.719C60.9454 158.152 60.5341 157.165 60.3853 156.757C60.1267 156.166 59.9152 155.613 59.7507 155.096C59.5862 154.579 59.5 154.007 59.5 153.381C59.5 152.938 59.5627 152.515 59.6959 152.108C59.8251 151.7 60.0366 151.332 60.3304 150.999C60.6242 150.666 61.0237 150.4 61.5212 150.196C62.0187 149.992 62.6532 149.891 63.4288 149.891C64.5373 149.891 65.356 150 65.8926 150.224C66.4254 150.447 66.7113 150.576 66.7505 150.611C67.1931 151.904 67.765 153.49 68.4662 155.371C69.1673 157.251 69.9037 159.17 70.6793 161.129C71.4549 163.083 72.2109 164.967 72.9512 166.773C73.6876 168.583 74.3143 170.04 74.8314 171.145C75.0155 170.776 75.3758 169.973 75.9086 168.736C76.4452 167.502 77.0445 166.052 77.7065 164.392C78.3685 162.731 79.0618 160.968 79.7825 159.107C80.5033 157.243 81.1574 155.5 81.7489 153.878C82.2268 152.55 82.7908 151.555 83.4372 150.889C84.0835 150.224 85.1058 149.895 86.5081 149.895C87.6872 149.895 88.6312 150.118 89.3323 150.56C90.0374 151.003 90.4604 151.316 90.6093 151.501Z" fill="#377BF5"/>
<path d="M117.954 159.858C117.954 161.002 117.798 162.036 117.484 162.957C117.171 163.877 116.67 164.664 115.988 165.311C115.303 165.957 114.402 166.455 113.277 166.807C112.149 167.16 110.759 167.332 109.098 167.332H98.0283C98.3613 168.844 99.2465 170.129 100.688 171.178C102.126 172.232 104.025 172.757 106.387 172.757C108.745 172.757 110.567 172.581 111.84 172.232C113.113 171.884 113.896 171.633 114.194 171.484L116.297 176.964C116.223 177.038 115.91 177.187 115.357 177.407C114.805 177.63 114.057 177.857 113.117 178.1C112.173 178.339 111.06 178.562 109.768 178.766C108.475 178.97 107.034 179.071 105.451 179.071C103.238 179.071 101.197 178.774 99.3327 178.186C97.4682 177.595 95.8465 176.69 94.4638 175.476C93.0811 174.257 92 172.726 91.2244 170.881C90.4488 169.036 90.061 166.858 90.061 164.351C90.061 162.028 90.4214 159.925 91.1421 158.041C91.8629 156.16 92.8774 154.547 94.1857 153.199C95.494 151.852 97.0726 150.81 98.9175 150.073C100.762 149.337 102.811 148.965 105.063 148.965C107.167 148.965 109.02 149.251 110.626 149.823C112.232 150.395 113.579 151.178 114.668 152.177C115.753 153.172 116.576 154.335 117.132 155.663C117.688 156.991 117.954 158.385 117.954 159.858ZM110.645 159.196C110.645 158.679 110.543 158.127 110.34 157.535C110.136 156.944 109.815 156.411 109.372 155.929C108.93 155.451 108.338 155.052 107.602 154.739C106.861 154.425 105.96 154.269 104.891 154.269C103.708 154.269 102.678 154.527 101.793 155.044C100.907 155.561 100.167 156.207 99.5756 156.983C98.9841 157.759 98.5415 158.609 98.2477 159.529C97.9539 160.45 97.8051 161.339 97.8051 162.185H107.715C108.933 162.185 109.725 161.934 110.097 161.437C110.461 160.939 110.645 160.191 110.645 159.196Z" fill="#377BF5"/>
<path d="M140.591 178.123V162.24C140.591 157.665 138.468 155.377 134.226 155.377C132.675 155.377 131.476 155.506 130.63 155.765C129.78 156.023 129.169 156.247 128.801 156.431V178.127H121.053V151.613C121.202 151.538 121.644 151.354 122.381 151.06C123.117 150.767 124.069 150.461 125.232 150.148C126.396 149.834 127.759 149.556 129.329 149.317C130.896 149.078 132.604 148.957 134.449 148.957C136.517 148.957 138.405 149.216 140.121 149.733C141.837 150.25 143.306 151.006 144.524 152.001C145.742 152.996 146.682 154.225 147.348 155.683C148.014 157.14 148.343 158.808 148.343 160.693V178.127H140.591V178.123Z" fill="#377BF5"/>
<path d="M162.342 156.208V168.441C162.342 170.067 162.718 171.163 163.474 171.735C164.23 172.307 165.218 172.593 166.436 172.593C166.953 172.593 167.458 172.53 167.956 172.401C168.453 172.272 168.896 172.123 169.283 171.959C169.671 171.794 169.996 171.626 170.251 171.461C170.509 171.297 170.658 171.195 170.694 171.156L173.573 175.805C173.498 175.879 173.259 176.083 172.852 176.412C172.444 176.745 171.865 177.094 171.109 177.462C170.353 177.83 169.428 178.163 168.343 178.457C167.254 178.751 166.028 178.9 164.665 178.9C161.12 178.9 158.559 177.995 156.972 176.189C155.386 174.379 154.591 172.037 154.591 169.158V156.204H152.765C151.512 156.204 150.634 155.926 150.137 155.374C149.639 154.821 149.389 154.046 149.389 153.051C149.389 152.275 149.498 151.602 149.722 151.03C149.945 150.458 150.09 150.082 150.164 149.894H154.591V145.021C154.591 143.767 154.959 142.902 155.699 142.42C156.435 141.942 157.415 141.699 158.633 141.699C159.483 141.699 160.266 141.793 160.987 141.977C161.708 142.161 162.158 142.291 162.342 142.365V149.894H168.265C169.518 149.894 170.396 150.172 170.893 150.724C171.391 151.276 171.641 152.052 171.641 153.047C171.641 153.823 171.532 154.496 171.309 155.068C171.085 155.64 170.94 156.02 170.866 156.204H162.342V156.208Z" fill="#377BF5"/>
<path d="M192.508 153.22C192.508 151.967 192.876 151.097 193.616 150.619C194.353 150.141 195.332 149.898 196.55 149.898C197.4 149.898 198.184 149.992 198.904 150.177C199.625 150.361 200.076 150.49 200.26 150.564V178.129C200.15 178.164 199.782 178.231 199.151 178.321C198.524 178.411 197.721 178.497 196.746 178.571C195.767 178.646 194.678 178.716 193.479 178.795C192.281 178.869 191.035 178.904 189.742 178.904C184.098 178.904 179.973 177.843 177.372 175.724C174.771 173.601 173.471 170.475 173.471 166.342V153.224C173.471 151.971 173.839 151.101 174.579 150.623C175.316 150.145 176.295 149.902 177.513 149.902C178.363 149.902 179.147 149.996 179.868 150.18C180.588 150.365 181.039 150.494 181.223 150.568V165.567C181.223 167.819 181.83 169.535 183.052 170.714C184.27 171.897 186.264 172.484 189.029 172.484C190.06 172.484 190.835 172.457 191.352 172.402C191.869 172.347 192.257 172.281 192.516 172.21V153.22H192.508Z" fill="#377BF5"/>
<path d="M218.192 155.377C216.641 155.377 215.442 155.534 214.596 155.847C213.746 156.161 213.155 156.411 212.822 156.595V178.127H205.074V152.334C205.223 152.224 205.626 151.985 206.292 151.613C206.958 151.245 207.831 150.865 208.92 150.477C210.009 150.089 211.271 149.74 212.712 149.427C214.153 149.114 215.72 148.957 217.416 148.957C218.447 148.957 219.426 149.031 220.35 149.18C221.271 149.329 222.086 149.549 222.787 149.846C223.488 150.144 224.04 150.528 224.448 151.01C224.855 151.487 225.055 152.079 225.055 152.78C225.055 153.814 224.851 154.625 224.448 155.216C224.04 155.808 223.692 156.251 223.398 156.544C223.288 156.435 223.049 156.313 222.677 156.184C222.309 156.055 221.882 155.925 221.404 155.796C220.926 155.667 220.397 155.565 219.825 155.491C219.253 155.412 218.709 155.377 218.192 155.377Z" fill="#377BF5"/>
<path d="M251.843 159.858C251.843 161.002 251.687 162.036 251.373 162.957C251.06 163.877 250.559 164.664 249.877 165.311C249.191 165.957 248.291 166.455 247.166 166.807C246.038 167.16 244.648 167.332 242.987 167.332H231.917C232.25 168.844 233.135 170.129 234.577 171.178C236.014 172.232 237.914 172.757 240.276 172.757C242.634 172.757 244.456 172.581 245.729 172.232C247.002 171.884 247.785 171.633 248.083 171.484L250.186 176.964C250.112 177.038 249.799 177.187 249.246 177.407C248.694 177.63 247.946 177.857 247.006 178.1C246.062 178.339 244.949 178.562 243.657 178.766C242.364 178.97 240.923 179.071 239.34 179.071C237.127 179.071 235.086 178.774 233.222 178.186C231.357 177.595 229.735 176.69 228.353 175.476C226.97 174.257 225.889 172.726 225.113 170.881C224.338 169.036 223.95 166.858 223.95 164.351C223.95 162.028 224.31 159.925 225.031 158.041C225.752 156.16 226.766 154.547 228.075 153.199C229.383 151.852 230.961 150.81 232.806 150.073C234.651 149.337 236.7 148.965 238.952 148.965C241.056 148.965 242.909 149.251 244.515 149.823C246.121 150.395 247.468 151.178 248.557 152.177C249.642 153.172 250.465 154.335 251.021 155.663C251.565 156.979 251.843 158.385 251.843 159.858ZM244.538 159.196C244.538 158.679 244.436 158.127 244.232 157.535C244.029 156.944 243.708 156.411 243.265 155.929C242.822 155.451 242.231 155.052 241.494 154.739C240.754 154.425 239.853 154.269 238.784 154.269C237.601 154.269 236.571 154.527 235.685 155.044C234.8 155.561 234.06 156.207 233.468 156.983C232.877 157.759 232.434 158.609 232.141 159.529C231.847 160.45 231.698 161.339 231.698 162.185H241.608C242.826 162.185 243.617 161.934 243.99 161.437C244.354 160.939 244.538 160.191 244.538 159.196Z" fill="#377BF5"/>
</svg>
