<svg width="126" height="126" viewBox="0 0 126 126" fill="none" xmlns="http://www.w3.org/2000/svg">
<path d="M70.03 125.178C63.9233 125.178 58.0477 122.781 53.5588 118.288C51.6707 116.4 51.6707 113.341 53.5588 111.457C55.4468 109.569 58.506 109.569 60.3901 111.457C63.9155 114.982 68.8941 116.318 73.7003 115.025C78.4556 113.752 82.071 110.184 83.4028 105.452L90.3517 67.3977C90.528 66.4341 90.9941 65.5449 91.6874 64.8477L101.582 54.961C117.187 39.3554 116.169 18.0858 115.135 10.1929C107.199 9.22149 85.7452 8.30098 70.3316 23.7107L60.441 33.6013C59.7477 34.2946 58.8585 34.7607 57.891 34.937L19.8329 41.8898C15.105 43.2216 11.5405 46.8331 10.2635 51.5845C8.97479 56.3986 10.3105 61.3771 13.8319 64.9025C15.72 66.7905 15.72 69.8497 13.8319 71.7338C11.9439 73.6219 8.8847 73.6219 7.00059 71.7338C1.00749 65.7407 -1.2644 57.2721 0.929151 49.0815C3.12662 40.8948 9.31949 34.698 17.5101 32.5045C17.6354 32.4692 17.7647 32.4418 17.89 32.4183L54.6712 25.6966L63.4963 16.8754C86.4856 -6.10596 119.021 0.948663 120.388 1.25811C122.186 1.66548 123.592 3.05996 124.019 4.85005C124.344 6.21319 131.716 38.4937 108.417 61.7924L99.5921 70.6175L92.8743 107.395C92.8508 107.524 92.8234 107.653 92.7881 107.779C90.5946 115.965 84.3978 122.166 76.2033 124.36C74.1507 124.908 72.0786 125.178 70.03 125.178Z" fill="#377BF5"/>
<path d="M14.6232 115.502C13.3854 115.502 12.1515 115.032 11.2075 114.088C9.3195 112.2 9.3195 109.141 11.2075 107.257L59.0505 59.4141C60.9385 57.526 63.9977 57.526 65.8818 59.4141C67.7699 61.3021 67.7699 64.3613 65.8818 66.2454L18.0389 114.088C17.0949 115.032 15.861 115.502 14.6232 115.502Z" fill="#377BF5"/>
<path d="M11.2978 92.9494C10.06 92.9494 8.82609 92.4793 7.88208 91.5353C5.99406 89.6473 5.99406 86.588 7.88208 84.7039L36.4884 56.0977C38.3764 54.2096 41.4356 54.2096 43.3197 56.0977C45.2077 57.9857 45.2077 61.0449 43.3197 62.929L14.7134 91.5353C13.7733 92.4754 12.5395 92.9494 11.2978 92.9494Z" fill="#377BF5"/>
<path d="M37.1776 118.824C35.9398 118.824 34.706 118.354 33.762 117.41C31.8739 115.522 31.8739 112.463 33.762 110.579L62.3683 81.9727C64.2563 80.0846 67.3155 80.0846 69.1996 81.9727C71.0876 83.8607 71.0876 86.9199 69.1996 88.804L40.5933 117.41C39.6493 118.354 38.4154 118.824 37.1776 118.824Z" fill="#377BF5"/>
</svg>
