<svg width="132" height="191" viewBox="0 0 132 191" fill="none" xmlns="http://www.w3.org/2000/svg">
<path d="M131.828 190.688V185.674C130.134 182.084 126.001 179.509 121.191 179.509C121.123 179.509 120.988 179.509 120.92 179.509C120.514 174.496 116.11 170.566 110.69 170.566C109.741 170.566 108.793 170.702 107.912 170.905C107.235 166.704 103.644 163.52 99.2402 163.52C97.953 163.52 96.7335 163.791 95.6495 164.265C94.5655 161.217 91.7877 158.845 88.2647 157.829C87.113 154.577 84.0642 152.274 80.4735 152.07C80.067 149.428 79.1862 147.87 77.9667 146.176C77.4925 142.721 76.002 140.011 74.1727 139.333C73.021 135.065 70.9885 131 68.7527 131C66.3137 131 64.2135 134.252 63.0617 139.13C60.555 139.74 58.658 143.805 58.658 148.683C58.658 148.751 58.658 148.818 58.658 148.954C57.7772 150.444 57.032 152.341 56.6932 154.577C56.1512 154.509 55.6092 154.442 55.0672 154.442C50.5957 154.442 46.8695 157.829 46.3952 162.165C44.2272 163.249 42.5335 165.011 41.6527 167.043C40.6365 166.637 39.5525 166.433 38.4007 166.433C33.7937 166.433 30.0675 169.956 29.661 174.496C28.6447 174.157 27.493 173.954 26.3412 173.954C20.9212 173.954 16.5175 177.883 16.111 182.897C16.0432 182.897 15.9077 182.897 15.84 182.897C10.7587 182.897 6.4905 185.674 5 189.536V190.756H131.828V190.688Z" fill="#95A1B3" fill-opacity="0.25"/>
<path d="M100.139 98.7558L90.7934 93.4766L86.1562 109.243L86.727 110.598L91.8635 112.739L96.5007 117.59L99.7824 137.565L100.71 138.421H101.423C102.493 134.212 104.491 121.371 105.846 112.311C106.203 109.956 105.918 106.389 105.204 104.463C104.491 102.466 102.208 99.9686 100.139 98.7558Z" fill="#CD2A2E"/>
<path d="M100.139 98.7558L90.7934 93.4766L86.1562 109.243L92.4343 111.74L97.6422 117.59L100.638 138.35H101.352C102.422 134.141 104.42 121.3 105.775 112.239C106.132 109.885 105.846 106.318 105.133 104.392C104.491 102.466 102.208 99.9686 100.139 98.7558Z" fill="#EA4335"/>
<path d="M86.727 110.598L88.3678 111.24L89.0812 110.384L86.1562 109.242L86.727 110.598Z" fill="#E6E6E6"/>
<path d="M93.7897 95.1174L90.7934 93.4766L86.1562 109.243L89.0099 110.384C89.2953 109.528 89.652 108.601 89.9373 107.602C91.2215 103.607 92.5769 99.7546 93.7897 95.1174Z" fill="#E6E6E6"/>
<path d="M35.7895 98.7538L45.1352 93.4746L49.7724 109.241L49.2016 110.596L44.0651 112.737L39.4279 117.588L36.1462 137.563L35.2188 138.42H34.5767C33.5066 134.21 31.509 121.369 30.1536 112.309C29.7969 109.954 30.0822 106.387 30.7956 104.461C31.4377 102.464 33.7206 99.9666 35.7895 98.7538Z" fill="#CD2A2E"/>
<path d="M35.7895 98.7538L45.1352 93.4746L49.7724 109.241L43.423 111.738L38.2151 117.588L35.2188 138.348H34.5767C33.5066 134.139 31.509 121.298 30.1536 112.237C29.7969 109.883 30.0822 106.316 30.7956 104.39C31.4377 102.464 33.7206 99.9666 35.7895 98.7538Z" fill="#EA4335"/>
<path d="M49.2019 110.596L47.5611 111.238L46.8477 110.382L49.7726 109.24L49.2019 110.596Z" fill="#E6E6E6"/>
<path d="M42.2104 95.1155L45.2068 93.4746L49.8439 109.241L46.9903 110.382C46.7049 109.526 46.3482 108.599 46.0629 107.6C44.7074 103.605 43.3519 99.7526 42.2104 95.1155Z" fill="#E6E6E6"/>
<path d="M67.9643 15C67.9643 15 67.679 15.214 67.2509 15.5707C66.4662 16.2128 65.1107 17.3543 63.4698 18.9238C62.1143 20.2079 60.5448 21.8487 58.904 23.7036C54.6235 28.6261 49.701 35.6176 46.2766 44.4639C46.1339 44.8919 45.9913 45.2486 45.8486 45.6767C43.5657 51.9547 41.5681 64.0113 41.5681 71.9302C41.5681 85.8417 43.851 93.9746 46.2053 101.251C46.2766 101.537 46.348 101.751 46.4193 102.036C46.9187 103.463 47.3467 104.89 47.7748 106.317C50.4144 114.592 52.9113 119.015 52.9113 119.015H82.946C82.946 119.015 85.5142 114.592 88.0825 106.317C88.5106 104.89 89.0099 103.463 89.438 102.036C89.5093 101.751 89.5807 101.537 89.652 101.251C92.0063 93.9032 94.2892 85.7704 94.2892 71.9302C94.2892 63.94 92.2916 51.9547 90.0087 45.6767C89.866 45.2486 89.7234 44.8919 89.5807 44.4639C86.2276 35.6889 81.3051 28.6975 77.0246 23.7036C75.6692 22.2055 74.4564 20.85 73.3149 19.7085C72.1734 18.5671 71.1747 17.6396 70.3186 16.9262C69.4625 16.2128 68.8204 15.6421 68.4637 15.3567C68.107 15.1427 67.9643 15 67.9643 15Z" fill="#EA4335"/>
<path d="M67.9643 15C67.9643 15 67.679 15.214 67.2509 15.5707C66.4662 16.2128 65.1107 17.3543 63.4699 18.9238C62.1144 20.2079 60.5449 21.8487 58.904 23.7036C58.0479 24.7024 57.1205 25.7725 56.2644 26.914C58.3333 26.7713 60.4735 26.6999 62.6138 26.6286C64.3973 26.5573 66.1808 26.5573 67.9643 26.5573C69.7479 26.5573 71.5314 26.5573 73.3149 26.6286C75.4552 26.6999 77.5954 26.7713 79.6643 26.914C78.7369 25.7725 77.8808 24.7024 77.0247 23.7036C75.6692 22.2055 74.4564 20.85 73.3149 19.7085C72.1735 18.5671 71.1747 17.6396 70.3186 16.9262C69.4625 16.2128 68.8204 15.6421 68.4637 15.3567C68.107 15.1427 67.9643 15 67.9643 15Z" fill="#C4C4C4"/>
<path d="M81.6619 124.795H54.2669L53.8389 128.505H82.09L81.6619 124.795Z" fill="#C4C4C4"/>
<path d="M81.9473 121.441H53.9816L53.4822 125.222H63.1846H72.7443H82.4467L81.9473 121.441Z" fill="#C4C4C4"/>
<path d="M81.7333 125.223H54.1956L54.1243 126.15H81.8046L81.7333 125.223Z" fill="#C4C4C4"/>
<path d="M53.839 122.512L53.6963 123.653H82.2327L82.0901 122.512H53.839Z" fill="#C4C4C4"/>
<path d="M52.9829 119.016V121.941C52.9829 122.226 53.1969 122.44 53.4823 122.44H82.4468C82.7322 122.44 82.9462 122.226 82.9462 121.941V119.016H52.9829Z" fill="#C4C4C4"/>
<path d="M68.9631 95.8289C68.9631 96.3283 68.5351 96.8276 67.9644 96.8276C67.465 96.8276 66.9656 96.3996 66.9656 95.8289C66.9656 95.3295 67.3936 94.8301 67.9644 94.8301C68.4637 94.8301 68.9631 95.2581 68.9631 95.8289Z" fill="#C4C4C4"/>
<path d="M67.9645 96.3289C67.8218 96.3289 67.6791 96.2575 67.6078 96.1862C67.5364 96.1148 67.4651 95.9722 67.4651 95.8295C67.4651 95.5441 67.6791 95.3301 67.9645 95.3301C68.2498 95.3301 68.4638 95.5441 68.4638 95.8295C68.4638 96.1148 68.2498 96.3289 67.9645 96.3289Z" fill="#B3B3B3"/>
<path d="M63.8264 95.6882C63.8264 96.1876 63.3984 96.687 62.8276 96.687C62.3282 96.687 61.8289 96.259 61.8289 95.6882C61.8289 95.1888 62.2569 94.6895 62.8276 94.6895C63.3984 94.7608 63.8264 95.1888 63.8264 95.6882Z" fill="#C4C4C4"/>
<path d="M62.899 96.1882C62.6137 96.1882 62.3997 95.9742 62.3997 95.6888C62.3997 95.4035 62.6137 95.1895 62.899 95.1895C63.1844 95.1895 63.3984 95.4035 63.3984 95.6888C63.3984 95.8315 63.3271 95.9742 63.2557 96.0455C63.1131 96.1882 63.0417 96.1882 62.899 96.1882Z" fill="#B3B3B3"/>
<path d="M58.7612 95.5456C58.7612 96.045 58.3332 96.5444 57.7624 96.5444C57.2631 96.5444 56.7637 96.1164 56.7637 95.5456C56.7637 95.0463 57.1917 94.5469 57.7624 94.5469C58.3332 94.6182 58.7612 95.0463 58.7612 95.5456Z" fill="#C4C4C4"/>
<path d="M57.7626 96.0456C57.4772 96.0456 57.2632 95.8316 57.2632 95.5463C57.2632 95.2609 57.4772 95.0469 57.7626 95.0469C58.0479 95.0469 58.262 95.2609 58.262 95.5463C58.262 95.8316 58.0479 96.0456 57.7626 96.0456Z" fill="#B3B3B3"/>
<path d="M53.6248 95.1882C53.6248 95.6876 53.1967 96.187 52.626 96.187C52.1266 96.187 51.6272 95.759 51.6272 95.1882C51.6272 94.6175 52.0552 94.1895 52.626 94.1895C53.1967 94.2608 53.6248 94.6888 53.6248 95.1882Z" fill="#C4C4C4"/>
<path d="M52.6974 95.6882C52.412 95.6882 52.198 95.4742 52.198 95.1888C52.198 94.9035 52.412 94.6895 52.6974 94.6895C52.9828 94.6895 53.1968 94.9035 53.1968 95.1888C53.1968 95.4742 52.9828 95.6882 52.6974 95.6882Z" fill="#B3B3B3"/>
<path d="M48.5596 94.5457C48.5596 95.045 48.1315 95.5444 47.5608 95.5444C47.0614 95.5444 46.562 95.1164 46.562 94.5457C46.562 94.0463 46.9901 93.5469 47.5608 93.5469C48.1315 93.6182 48.5596 94.0463 48.5596 94.5457Z" fill="#C4C4C4"/>
<path d="M47.5609 95.0456C47.2755 95.0456 47.0615 94.8316 47.0615 94.5463C47.0615 94.2609 47.2755 94.0469 47.5609 94.0469C47.8463 94.0469 48.0603 94.2609 48.0603 94.5463C48.1316 94.8316 47.8463 95.0456 47.5609 95.0456Z" fill="#B3B3B3"/>
<path d="M74.0283 95.6882C74.0283 96.1876 73.6003 96.687 73.0295 96.687C72.5302 96.687 72.0308 96.259 72.0308 95.6882C72.0308 95.1175 72.4588 94.6895 73.0295 94.6895C73.6003 94.7608 74.0283 95.1888 74.0283 95.6882Z" fill="#C4C4C4"/>
<path d="M73.0297 96.1882C72.7443 96.1882 72.5303 95.9742 72.5303 95.6888C72.5303 95.4035 72.7443 95.1895 73.0297 95.1895C73.315 95.1895 73.529 95.4035 73.529 95.6888C73.529 95.9742 73.315 96.1882 73.0297 96.1882Z" fill="#B3B3B3"/>
<path d="M79.0935 95.5456C79.0935 96.045 78.6654 96.5444 78.0947 96.5444C77.5953 96.5444 77.0959 96.1164 77.0959 95.5456C77.0959 94.9749 77.524 94.5469 78.0947 94.5469C78.6654 94.6182 79.0935 95.0463 79.0935 95.5456Z" fill="#C4C4C4"/>
<path d="M78.1661 96.0456C77.8808 96.0456 77.6667 95.8316 77.6667 95.5463C77.6667 95.2609 77.8808 95.0469 78.1661 95.0469C78.4515 95.0469 78.6655 95.2609 78.6655 95.5463C78.6655 95.8316 78.4515 96.0456 78.1661 96.0456Z" fill="#B3B3B3"/>
<path d="M84.23 95.1882C84.23 95.6876 83.8019 96.187 83.2312 96.187C82.7318 96.187 82.2324 95.759 82.2324 95.1882C82.2324 94.6175 82.6605 94.1895 83.2312 94.1895C83.8019 94.2608 84.23 94.6888 84.23 95.1882Z" fill="#C4C4C4"/>
<path d="M83.2313 95.6882C83.0886 95.6882 82.946 95.6169 82.8746 95.5455C82.8033 95.4742 82.7319 95.3315 82.7319 95.1888C82.7319 94.9035 82.946 94.6895 83.2313 94.6895C83.5167 94.6895 83.7307 94.9035 83.7307 95.1888C83.7307 95.4742 83.5167 95.6882 83.2313 95.6882Z" fill="#B3B3B3"/>
<path d="M89.2954 94.5457C89.2954 95.045 88.8673 95.5444 88.2966 95.5444C87.7972 95.5444 87.2979 95.1164 87.2979 94.5457C87.2979 94.0463 87.7259 93.5469 88.2966 93.5469C88.8673 93.6182 89.2954 94.0463 89.2954 94.5457Z" fill="#C4C4C4"/>
<path d="M88.2965 95.0456C88.0111 95.0456 87.7971 94.8316 87.7971 94.5463C87.7971 94.2609 88.0111 94.0469 88.2965 94.0469C88.4392 94.0469 88.5819 94.1182 88.6532 94.1896C88.7246 94.2609 88.7959 94.4036 88.7959 94.5463C88.8673 94.8316 88.5819 95.0456 88.2965 95.0456Z" fill="#B3B3B3"/>
<path d="M65.2534 47.3901C65.8241 47.3901 66.2522 46.9621 66.2522 46.3914C66.2522 45.8206 65.8241 45.3926 65.2534 45.3926C64.6827 45.3926 64.2546 45.8206 64.2546 46.3914C64.2546 46.8907 64.6827 47.3901 65.2534 47.3901Z" fill="#C4C4C4"/>
<path d="M65.2533 46.8895C64.968 46.8895 64.6826 46.6755 64.6826 46.3188C64.6826 46.0334 64.8966 45.748 65.182 45.748C65.4674 45.748 65.7527 45.9621 65.7527 46.3188C65.7527 46.6755 65.5387 46.8895 65.2533 46.8895Z" fill="#B3B3B3"/>
<path d="M59.76 47.605C60.3307 47.605 60.7588 47.1769 60.7588 46.6062C60.7588 46.0355 60.3307 45.6074 59.76 45.6074C59.1893 45.6074 58.7612 46.0355 58.7612 46.6062C58.7612 47.1056 59.1893 47.605 59.76 47.605Z" fill="#C4C4C4"/>
<path d="M59.7602 47.1044C59.4748 47.1044 59.1895 46.8903 59.1895 46.5336C59.1895 46.2483 59.4035 45.9629 59.7602 45.9629C60.0456 45.9629 60.3309 46.1769 60.3309 46.5336C60.3309 46.8903 60.0456 47.1044 59.7602 47.1044Z" fill="#B3B3B3"/>
<path d="M54.2668 48.0327C54.8376 48.0327 55.2656 47.6047 55.2656 47.0339C55.2656 46.4632 54.8376 46.0352 54.2668 46.0352C53.6961 46.0352 53.2681 46.4632 53.2681 47.0339C53.2681 47.6047 53.7675 48.0327 54.2668 48.0327Z" fill="#C4C4C4"/>
<path d="M54.2668 47.6043C53.9814 47.6043 53.696 47.3903 53.696 47.0336C53.696 46.7483 53.9101 46.4629 54.2668 46.4629C54.5521 46.4629 54.7662 46.6769 54.7662 47.0336C54.8375 47.319 54.6235 47.6043 54.2668 47.6043Z" fill="#B3B3B3"/>
<path d="M48.845 48.5307C49.4157 48.5307 49.8437 48.1027 49.8437 47.532C49.8437 46.9612 49.4157 46.5332 48.845 46.5332C48.2742 46.5332 47.8462 46.9612 47.8462 47.532C47.8462 48.0314 48.2742 48.5307 48.845 48.5307Z" fill="#C4C4C4"/>
<path d="M48.8451 48.034C48.5597 48.034 48.3457 47.82 48.3457 47.4633C48.3457 47.1779 48.5597 46.8926 48.8451 46.8926C49.1305 46.8926 49.3445 47.1066 49.3445 47.4633C49.3445 47.82 49.1305 48.034 48.8451 48.034Z" fill="#B3B3B3"/>
<path d="M70.6753 47.3901C71.246 47.3901 71.6741 46.9621 71.6741 46.3914C71.6741 45.8206 71.246 45.3926 70.6753 45.3926C70.1046 45.3926 69.6765 45.8206 69.6765 46.3914C69.6765 46.8907 70.1759 47.3901 70.6753 47.3901Z" fill="#C4C4C4"/>
<path d="M70.6754 46.8895C70.39 46.8895 70.176 46.6755 70.176 46.3188C70.176 46.0334 70.39 45.748 70.6754 45.748C70.9608 45.748 71.1748 45.9621 71.1748 46.3188C71.2461 46.6755 70.9608 46.8895 70.6754 46.8895Z" fill="#B3B3B3"/>
<path d="M76.1687 47.605C76.7394 47.605 77.1675 47.1769 77.1675 46.6062C77.1675 46.0355 76.7394 45.6074 76.1687 45.6074C75.598 45.6074 75.1699 46.0355 75.1699 46.6062C75.1699 47.1056 75.598 47.605 76.1687 47.605Z" fill="#C4C4C4"/>
<path d="M76.1687 47.1053C75.8833 47.1053 75.5979 46.8912 75.5979 46.6059C75.5979 46.3205 75.8119 46.0352 76.1687 46.0352C76.454 46.0352 76.7394 46.2492 76.7394 46.6059C76.7394 46.8912 76.454 47.1053 76.1687 47.1053Z" fill="#B3B3B3"/>
<path d="M81.6619 48.0327C82.2326 48.0327 82.6606 47.6047 82.6606 47.0339C82.6606 46.4632 82.2326 46.0352 81.6619 46.0352C81.0911 46.0352 80.6631 46.4632 80.6631 47.0339C80.6631 47.6047 81.0911 48.0327 81.6619 48.0327Z" fill="#C4C4C4"/>
<path d="M81.6617 47.532C81.519 47.532 81.3764 47.4606 81.305 47.3893C81.2337 47.3179 81.1624 47.1753 81.1624 47.0326C81.1624 46.8899 81.2337 46.7472 81.305 46.6759C81.3764 46.6045 81.519 46.5332 81.6617 46.5332C81.8044 46.5332 81.9471 46.6045 82.0184 46.6759C82.0898 46.7472 82.1611 46.8899 82.1611 47.0326C82.1611 47.3179 81.9471 47.532 81.6617 47.532Z" fill="#B3B3B3"/>
<path d="M87.0838 48.5307C87.6545 48.5307 88.0825 48.1027 88.0825 47.532C88.0825 46.9612 87.6545 46.5332 87.0838 46.5332C86.513 46.5332 86.085 46.9612 86.085 47.532C86.085 48.0314 86.5844 48.5307 87.0838 48.5307Z" fill="#C4C4C4"/>
<path d="M87.0837 48.0311C86.7983 48.0311 86.5129 47.817 86.5129 47.4603C86.5129 47.175 86.727 46.9609 87.0837 46.9609C87.369 46.9609 87.5831 47.175 87.5831 47.5317C87.6544 47.817 87.369 48.0311 87.0837 48.0311Z" fill="#B3B3B3"/>
<path d="M67.9641 53.7363C58.5471 53.7363 50.8423 61.3698 50.8423 70.8582C50.8423 80.2752 58.4758 87.98 67.9641 87.98C77.3812 87.98 85.086 80.3465 85.086 70.8582C85.086 61.3698 77.3812 53.7363 67.9641 53.7363Z" fill="#C4C4C4"/>
<path d="M82.4467 70.7889C82.4467 78.7791 75.9546 85.2711 67.9644 85.2711C59.9742 85.2711 53.4822 78.7791 53.4822 70.7889C53.4822 62.7987 59.9742 56.3066 67.9644 56.3066C75.9546 56.3066 82.4467 62.7987 82.4467 70.7889Z" fill="#377BF5"/>
<path d="M82.4467 70.7889C82.4467 78.7791 75.9546 85.2711 67.9644 85.2711C59.9742 85.2711 53.4822 78.7791 53.4822 70.7889C53.4822 62.7987 59.9742 56.3066 67.9644 56.3066C75.9546 56.3066 82.4467 62.7987 82.4467 70.7889ZM67.9644 56.8774C60.2596 56.8774 53.9816 63.1554 53.9816 70.8602C53.9816 78.5651 60.2596 84.8431 67.9644 84.8431C75.6693 84.8431 81.9473 78.5651 81.9473 70.8602C81.9473 63.084 75.6693 56.8774 67.9644 56.8774Z" fill="#E6E6E6"/>
<path opacity="0.2" d="M80.6632 68.8625C79.8071 62.6559 74.4565 57.8047 67.9645 57.8047C61.4724 57.8047 56.1932 62.5845 55.2657 68.8625C55.1944 69.2192 55.3371 69.5046 55.6224 69.6473C59.1182 71.1455 63.3986 72.0015 67.9645 72.0015C72.5303 72.0015 76.8108 71.1455 80.3065 69.6473C80.5918 69.4333 80.7345 69.2192 80.6632 68.8625Z" fill="#E2EFF8"/>
<path d="M89.9372 45.2489C89.8659 44.9635 89.7232 44.7495 89.6519 44.4641C89.5805 44.2501 89.5092 44.1074 89.4378 43.8934C82.5891 43.18 75.3836 42.752 68.0355 42.752C60.616 42.752 53.4819 43.1087 46.6332 43.8934C46.5618 44.1074 46.4905 44.2501 46.4192 44.4641C46.3478 44.7495 46.2051 44.9635 46.1338 45.2489C53.1966 44.5355 60.5447 44.1788 68.1068 44.1788C75.5263 44.1788 82.8745 44.5355 89.9372 45.2489Z" fill="#C4C4C4"/>
<path d="M67.9644 97.6834C59.9742 97.6834 52.198 97.3267 44.7786 96.6133C44.9212 97.0413 44.9926 97.4694 45.1353 97.8974C52.4834 98.6108 60.1169 98.9676 67.9644 98.9676C75.8119 98.9676 83.4454 98.6108 90.7936 97.8974C90.9363 97.4694 91.0076 97.0413 91.1503 96.6133C83.7308 97.3267 75.9546 97.6834 67.9644 97.6834Z" fill="#C4C4C4"/>
<path d="M67.9644 174.95C67.3224 174.95 66.6803 174.665 66.1809 174.165C59.1895 166.532 55.123 156.901 55.123 147.198C55.123 137.496 59.1181 132.217 63.7553 131.575C67.1083 131.361 68.7492 131.361 72.1022 131.575C76.7394 132.288 80.7345 137.496 80.7345 147.198C80.7345 156.901 76.668 166.532 69.6766 174.165C69.2486 174.665 68.6065 174.95 67.9644 174.95Z" fill="#FCD345"/>
<path d="M67.9644 169.812C67.5364 169.812 67.1083 169.598 66.7516 169.17C61.9718 162.393 59.1895 153.975 59.1895 145.342C59.1895 136.782 61.9718 132.144 65.1108 131.502C67.3937 131.288 68.5351 131.288 70.8181 131.502C73.9571 132.144 76.7394 136.782 76.7394 145.342C76.7394 153.903 73.9571 162.393 69.1772 169.17C68.8205 169.598 68.3925 169.812 67.9644 169.812Z" fill="#F8BF00"/>
<path d="M67.9646 161.252C67.6079 161.252 67.1798 161.109 66.8944 160.752C62.7567 155.473 60.3311 148.91 60.3311 142.275C60.3311 135.64 62.6853 132.002 65.4676 131.574C67.4652 131.431 68.4639 131.431 70.3902 131.574C73.1011 132.073 75.5267 135.64 75.5267 142.275C75.5267 148.91 73.1011 155.544 68.9633 160.752C68.7493 161.038 68.3213 161.252 67.9646 161.252Z" fill="#EB9E3D"/>
<path d="M7.54894 46.927C7.8483 46.0057 9.1517 46.0057 9.45106 46.9271L10.1839 49.1824C10.3177 49.5944 10.7017 49.8734 11.1349 49.8734L13.5063 49.8734C14.475 49.8734 14.8778 51.113 14.0941 51.6824L12.1756 53.0762C11.8251 53.3309 11.6784 53.7822 11.8123 54.1943L12.5451 56.4496C12.8445 57.3709 11.79 58.137 11.0063 57.5676L9.08778 56.1738C8.7373 55.9191 8.2627 55.9191 7.91221 56.1738L5.99372 57.5676C5.21001 58.137 4.15553 57.3709 4.45488 56.4496L5.18768 54.1943C5.32155 53.7822 5.1749 53.3309 4.82441 53.0762L2.90592 51.6824C2.1222 51.113 2.52498 49.8734 3.4937 49.8734L5.86509 49.8734C6.29832 49.8734 6.68227 49.5944 6.81614 49.1824L7.54894 46.927Z" fill="#95A1B3" fill-opacity="0.25"/>
<path d="M37.5489 2.92705C37.8483 2.00574 39.1517 2.00574 39.4511 2.92705L40.1839 5.18237C40.3177 5.5944 40.7017 5.87336 41.1349 5.87336L43.5063 5.87336C44.475 5.87336 44.8778 7.11297 44.0941 7.68237L42.1756 9.07624C41.8251 9.33088 41.6784 9.78225 41.8123 10.1943L42.5451 12.4496C42.8445 13.3709 41.79 14.137 41.0063 13.5676L39.0878 12.1738C38.7373 11.9191 38.2627 11.9191 37.9122 12.1738L35.9937 13.5676C35.21 14.137 34.1555 13.3709 34.4549 12.4496L35.1877 10.1943C35.3216 9.78225 35.1749 9.33088 34.8244 9.07624L32.9059 7.68237C32.1222 7.11297 32.525 5.87336 33.4937 5.87336L35.8651 5.87336C36.2983 5.87336 36.6823 5.5944 36.8161 5.18237L37.5489 2.92705Z" fill="#95A1B3" fill-opacity="0.25"/>
<path d="M117.549 56.927C117.848 56.0057 119.152 56.0057 119.451 56.9271L120.184 59.1824C120.318 59.5944 120.702 59.8734 121.135 59.8734L123.506 59.8734C124.475 59.8734 124.878 61.113 124.094 61.6824L122.176 63.0762C121.825 63.3309 121.678 63.7822 121.812 64.1943L122.545 66.4496C122.844 67.3709 121.79 68.137 121.006 67.5676L119.088 66.1738C118.737 65.9191 118.263 65.9191 117.912 66.1738L115.994 67.5676C115.21 68.137 114.156 67.3709 114.455 66.4496L115.188 64.1943C115.322 63.7822 115.175 63.3309 114.824 63.0762L112.906 61.6824C112.122 61.113 112.525 59.8734 113.494 59.8734L115.865 59.8734C116.298 59.8734 116.682 59.5944 116.816 59.1824L117.549 56.927Z" fill="#95A1B3" fill-opacity="0.25"/>
<path d="M111.379 4.86766C111.635 4.9076 111.698 5.24733 111.477 5.38024C108.002 7.44177 106.893 11.6354 108.164 14.9028C109.395 18.0703 112.654 20.3068 116.443 19.8525C116.773 19.8135 116.966 20.2086 116.739 20.4485C116.012 21.2107 115.191 21.8169 114.26 22.2902C112.078 23.3864 109.798 23.601 107.45 22.9189C102.517 21.4843 99.6202 16.2332 101.249 11.1878C102.747 6.55593 107.306 4.24661 111.379 4.86766Z" fill="#95A1B3" fill-opacity="0.25"/>
</svg>
