<svg width="127" height="126" viewBox="0 0 127 126" fill="none" xmlns="http://www.w3.org/2000/svg">
<path d="M70.7636 125.178C64.657 125.178 58.7814 122.781 54.2924 118.288C52.4044 116.4 52.4044 113.341 54.2924 111.457C56.1804 109.569 59.2397 109.569 61.1238 111.457C64.6491 114.982 69.6277 116.318 74.4339 115.025C79.1892 113.752 82.8047 110.184 84.1365 105.452L91.0853 67.3977C91.2616 66.4341 91.7277 65.5449 92.4211 64.8477L102.316 54.961C117.921 39.3554 116.903 18.0858 115.869 10.1929C107.933 9.22149 86.4789 8.30098 71.0653 23.7107L61.1747 33.6013C60.4814 34.2946 59.5922 34.7607 58.6247 34.937L20.5665 41.8898C15.8386 43.2216 12.2741 46.8331 10.9971 51.5845C9.70843 56.3986 11.0442 61.3771 14.5656 64.9025C16.4536 66.7905 16.4536 69.8497 14.5656 71.7338C12.6776 73.6219 9.61834 73.6219 7.73424 71.7338C1.74113 65.7407 -0.53076 57.2721 1.66279 49.0815C3.86026 40.8948 10.0531 34.698 18.2437 32.5045C18.3691 32.4692 18.4983 32.4418 18.6237 32.4183L55.4049 25.6966L64.23 16.8754C87.2192 -6.10596 119.754 0.948663 121.121 1.25811C122.919 1.66548 124.326 3.05996 124.752 4.85005C125.078 6.21319 132.45 38.4937 109.151 61.7924L100.326 70.6175L93.6079 107.395C93.5844 107.524 93.557 107.653 93.5218 107.779C91.3282 115.965 85.1314 122.166 76.9369 124.36C74.8844 124.908 72.8123 125.178 70.7636 125.178Z" fill="white"/>
<path d="M15.3568 115.502C14.119 115.502 12.8852 115.032 11.9412 114.088C10.0531 112.2 10.0531 109.141 11.9412 107.257L59.7841 59.4141C61.6722 57.526 64.7314 57.526 66.6155 59.4141C68.5035 61.3021 68.5035 64.3613 66.6155 66.2454L18.7725 114.088C17.8285 115.032 16.5946 115.502 15.3568 115.502Z" fill="white"/>
<path d="M12.0314 92.9494C10.7936 92.9494 9.55974 92.4793 8.61572 91.5353C6.7277 89.6473 6.7277 86.588 8.61572 84.7039L37.222 56.0977C39.11 54.2096 42.1693 54.2096 44.0534 56.0977C45.9414 57.9857 45.9414 61.0449 44.0534 62.929L15.4471 91.5353C14.507 92.4754 13.2731 92.9494 12.0314 92.9494Z" fill="white"/>
<path d="M37.9113 118.824C36.6735 118.824 35.4396 118.354 34.4956 117.41C32.6076 115.522 32.6076 112.463 34.4956 110.579L63.1019 81.9727C64.9899 80.0846 68.0491 80.0846 69.9332 81.9727C71.8213 83.8607 71.8213 86.9199 69.9332 88.804L41.327 117.41C40.3829 118.354 39.1491 118.824 37.9113 118.824Z" fill="white"/>
</svg>
