<svg width="29" height="19" viewBox="0 0 29 19" fill="red" xmlns="http://www.w3.org/2000/svg">
<path d="M17.2183 8.27913L17.289 8.35085L17.3602 8.27964C18.8823 6.75754 20.2937 5.34921 21.7636 3.88553L21.8419 3.80755L21.7565 3.7374C21.6059 3.61369 21.4528 3.4919 21.2994 3.36988C20.921 3.06878 20.5406 2.76621 20.191 2.42958C20.1026 2.34393 20.012 2.21406 19.9509 2.07939C19.8881 1.94078 19.8659 1.81811 19.8863 1.73975C19.9068 1.66218 19.9882 1.56107 20.1114 1.46945C20.2318 1.37983 20.3717 1.31468 20.4823 1.29647L20.4825 1.29644C22.9878 0.87837 25.4964 0.49717 28.0088 0.115847L28.0089 0.115822C28.3039 0.0705557 28.4914 0.125703 28.6003 0.234812C28.7104 0.345253 28.7662 0.537003 28.7369 0.824793C28.7033 1.14923 28.6698 1.47365 28.6364 1.79803C28.4154 3.93976 28.1946 6.08005 27.9437 8.21571L27.9437 8.21581C27.9008 8.58384 27.763 8.76964 27.6037 8.82666C27.4414 8.88479 27.2023 8.82963 26.9108 8.58718C26.5129 8.256 26.1351 7.90207 25.6919 7.48684C25.4627 7.27216 25.2161 7.04109 24.9401 6.78832L24.8678 6.72208L24.8002 6.79307C24.2073 7.41525 23.6193 8.03656 23.0333 8.65582C21.7732 9.98727 20.5221 11.3093 19.2506 12.6102C18.5817 13.2943 17.994 13.6064 17.4182 13.596C16.8407 13.5856 16.244 13.2505 15.5583 12.5633L15.5582 12.5632C14.614 11.619 13.6668 10.6779 12.7164 9.73986L12.6462 9.81096L12.7169 9.74032C12.6849 9.70835 12.6471 9.68563 12.6068 9.66224C12.5985 9.65744 12.5898 9.65246 12.5806 9.64719C12.5428 9.62548 12.4964 9.59888 12.4349 9.56027L12.367 9.51769L12.3106 9.57464C9.94289 11.967 7.5536 14.3778 5.16431 16.7855L5.16414 16.7857C5.03454 16.9169 4.90684 17.049 4.77958 17.1806C4.41995 17.5524 4.06381 17.9206 3.67819 18.2566L3.67807 18.2567C2.764 19.0558 1.54151 19.0047 0.718144 18.1784L0.718018 18.1783C-0.0917565 17.3685 -0.128593 16.1215 0.743091 15.238L0.671908 15.1678L0.743094 15.238C4.13456 11.8004 7.55065 8.38433 10.9883 4.98667L10.9884 4.9866C11.4453 4.53411 11.9667 4.32268 12.4855 4.33248C13.0051 4.3423 13.5338 4.57423 14.0033 5.03032L14.0035 5.03051C14.7655 5.76678 15.5044 6.5248 16.2461 7.28564C16.569 7.61679 16.8923 7.94847 17.2183 8.27913Z" fill="#909090" stroke="white" stroke-width="0.2"/>
</svg>
