<svg width="13" height="13" viewBox="0 0 13 13" fill="none" xmlns="http://www.w3.org/2000/svg">
<circle cx="6.5" cy="6.5" r="6.5"/>
<g clip-path="url(#clip0_1948_10)">
<path d="M5.92866 8.03772C6.12998 7.74409 6.31027 7.48641 6.48455 7.22873C7.19668 6.18903 7.90581 5.15232 8.61795 4.11262C8.81026 3.83397 9.10473 3.74109 9.37215 3.88191C9.6546 4.03172 9.7778 4.37929 9.64859 4.68191C9.62456 4.74184 9.5885 4.79877 9.55244 4.8497C8.53682 6.33285 7.5212 7.816 6.50258 9.29914C6.27421 9.63173 5.88058 9.68267 5.60414 9.39203C4.92506 8.67892 4.25499 7.95682 3.58793 7.23173C3.39262 7.01899 3.39862 6.68641 3.5699 6.4527C3.72615 6.23997 3.99958 6.15307 4.23696 6.26094C4.33011 6.30289 4.41425 6.3748 4.48336 6.44671C4.94609 6.93809 5.40282 7.43547 5.86256 7.92985C5.88659 7.95382 5.90162 7.98978 5.92866 8.03772Z" fill="white"/>
</g>
<defs>
<clipPath id="clip0_1948_10">
<rect width="7.03122" height="6.59176" fill="white" transform="translate(3.05884 3.44141)"/>
</clipPath>
</defs>
</svg>
